STARTFONT 2.1
COMMENT 
COMMENT Converted from OpenType font "NimbusSanL-Bol.otf" by "otf2bdf 3.0".
COMMENT 
FONT -FreeType-NimbusSanL-Bold-R-Normal--43-310-100-100-P-234-ISO10646-1
SIZE 31 100 100
FONTBOUNDINGBOX 52 32 0 0
STARTPROPERTIES 20
FOUNDRY "FreeType"
FAMILY_NAME "NimbusSanL"
WEIGHT_NAME "Bold"
SLANT "R"
SETWIDTH_NAME "Normal"
ADD_STYLE_NAME ""
PIXEL_SIZE 43
POINT_SIZE 310
RESOLUTION_X 100
RESOLUTION_Y 100
SPACING "P"
AVERAGE_WIDTH 234
CHARSET_REGISTRY "ISO10646"
CHARSET_ENCODING "1"
FONT_ASCENT 31
FONT_DESCENT 11
COPYRIGHT "Copyright 2014 by (URW)++ Design & Development GmbH"
_OTF_FONTFILE "NimbusSanL-Bol.otf"
_OTF_PSNAME "NimbusSanL-Bol"
_GBDFED_INFO "Edited with gbdfed 1.6."
ENDPROPERTIES
CHARS 758
STARTCHAR 0020
ENCODING 32
SWIDTH 278 0
DWIDTH 12 0
BBX 0 0 0 0
BITMAP
ENDCHAR
STARTCHAR 0021
ENCODING 33
SWIDTH 325 0
DWIDTH 14 0
BBX 6 31 5 -1
BITMAP
FC
FC
FC
FC
FC
FC
FC
FC
FC
FC
FC
FC
FC
FC
78
78
78
78
78
78
78
78
00
00
00
FC
FC
FC
FC
FC
FC
ENDCHAR
STARTCHAR 0022
ENCODING 34
SWIDTH 464 0
DWIDTH 20 0
BBX 16 11 2 21
BITMAP
FC3F
FC3F
FC3F
FC3F
FC3F
FC3F
FC1F
781F
781E
780E
380E
ENDCHAR
STARTCHAR 0023
ENCODING 35
SWIDTH 557 0
DWIDTH 24 0
BBX 24 31 0 -1
BITMAP
00F078
00F078
01F0F8
01F0F8
01F0F8
01E0F0
01E0F0
01E1F0
7FFFFF
7FFFFF
7FFFFF
7FFFFF
07C3E0
07C3E0
07C3E0
0783C0
0783C0
0F87C0
FFFFFC
FFFFFC
FFFFFC
FFFFFC
1F0F80
1F0F80
1F0F80
1E0F00
1E0F00
3E1F00
3E1F00
3E1F00
3C1E00
ENDCHAR
STARTCHAR 0024
ENCODING 36
SWIDTH 557 0
DWIDTH 24 0
BBX 22 38 1 -6
BITMAP
007000
007000
007800
03FF80
0FFFC0
1FFFE0
3FFFF0
7F73F0
7E71F8
7C71F8
7C70F8
7C70F8
7C7000
7E7000
7FF000
3FF000
1FFF00
0FFFC0
07FFE0
01FFF0
007FF8
0073F8
0071FC
0070FC
FC70FC
FC70FC
FC70FC
FE71F8
7F73F8
7FFFF0
3FFFF0
1FFFE0
07FF80
01FE00
007000
007000
007000
007000
ENDCHAR
STARTCHAR 0025
ENCODING 37
SWIDTH 882 0
DWIDTH 38 0
BBX 36 32 1 -1
BITMAP
07E0007000
1FF800E000
3FFC00E000
7FFE01C000
7E7E01C000
F81E038000
F81F078000
F01F070000
F00F0F0000
F81F0E0000
F81E1E0000
7E7E1C0000
7FFC3C0000
3FFC380000
1FF8780000
07E0700000
0000F07F00
0000E1FF80
0001C3FFC0
0001C3FFE0
000387C3F0
00038781F0
00070F80F0
00070F80F0
000E0F80F0
001E0F80F0
001C07C1F0
003C07E3E0
003803FFE0
007803FFC0
007000FF80
00F0003E00
ENDCHAR
STARTCHAR 0026
ENCODING 38
SWIDTH 720 0
DWIDTH 31 0
BBX 27 32 2 -1
BITMAP
007E0000
01FF8000
03FFC000
07FFE000
0FFFE000
0FC3E000
0F83E000
0F83E000
0FC3E000
0FE7E000
07EFC000
07FFC000
03FF8000
01FE0000
03FE0000
0FFE0600
1FFF07C0
3FFF8FC0
7F1FCF80
7E0FEF80
7C0FFF80
FC07FF80
FC03FF00
FC01FF00
7E00FE00
7F01FE00
7F87FE00
3FFFFF00
3FFFFF80
1FFFDFC0
07FF0FE0
01FC07E0
ENDCHAR
STARTCHAR 0027
ENCODING 39
SWIDTH 232 0
DWIDTH 10 0
BBX 6 11 2 21
BITMAP
FC
FC
FC
FC
FC
FC
FC
78
78
78
38
ENDCHAR
STARTCHAR 0028
ENCODING 40
SWIDTH 325 0
DWIDTH 14 0
BBX 11 40 2 -8
BITMAP
03E0
03C0
07C0
0780
0F80
0F00
1F00
1F00
3E00
3E00
7C00
7C00
7C00
7C00
F800
F800
F800
F800
F800
F800
F800
F800
F800
F800
F800
FC00
FC00
7C00
7C00
7C00
3E00
3E00
1F00
1F00
1F00
0F80
0780
07C0
03C0
03E0
ENDCHAR
STARTCHAR 0029
ENCODING 41
SWIDTH 325 0
DWIDTH 14 0
BBX 11 40 1 -8
BITMAP
F800
7800
7C00
3C00
3E00
1F00
1F00
1F80
0F80
0F80
07C0
07C0
07C0
07E0
03E0
03E0
03E0
03E0
03E0
03E0
03E0
03E0
03E0
03E0
03E0
03E0
07E0
07C0
07C0
07C0
0F80
0F80
0F80
1F00
1F00
3E00
3C00
7C00
7800
F800
ENDCHAR
STARTCHAR 002A
ENCODING 42
SWIDTH 394 0
DWIDTH 17 0
BBX 14 14 1 18
BITMAP
0380
0380
0380
0380
73BC
FFFC
FFFC
1FE0
0FC0
0FE0
1EE0
3CF0
3870
0820
ENDCHAR
STARTCHAR 002B
ENCODING 43
SWIDTH 580 0
DWIDTH 25 0
BBX 21 21 2 -1
BITMAP
00F800
00F800
00F800
00F800
00F800
00F800
00F800
00F800
FFFFF8
FFFFF8
FFFFF8
FFFFF8
FFFFF8
00F800
00F800
00F800
00F800
00F800
00F800
00F800
00F800
ENDCHAR
STARTCHAR 002C
ENCODING 44
SWIDTH 278 0
DWIDTH 12 0
BBX 6 13 3 -8
BITMAP
FC
FC
FC
FC
FC
FC
1C
1C
1C
1C
78
F0
E0
ENDCHAR
STARTCHAR 002D
ENCODING 45
SWIDTH 325 0
DWIDTH 14 0
BBX 12 6 1 9
BITMAP
FFF0
FFF0
FFF0
FFF0
FFF0
FFF0
ENDCHAR
STARTCHAR 002E
ENCODING 46
SWIDTH 278 0
DWIDTH 12 0
BBX 6 6 3 -1
BITMAP
FC
FC
FC
FC
FC
FC
ENDCHAR
STARTCHAR 002F
ENCODING 47
SWIDTH 278 0
DWIDTH 12 0
BBX 12 31 0 -1
BITMAP
0070
00E0
00E0
00E0
00C0
01C0
01C0
01C0
0380
0380
0380
0300
0700
0700
0700
0E00
0E00
0E00
0E00
1C00
1C00
1C00
3800
3800
3800
3800
7000
7000
7000
6000
E000
ENDCHAR
STARTCHAR 0030
ENCODING 48
SWIDTH 1068 0
DWIDTH 46 0
BBX 22 32 1 0
BITMAP
00FC00
07FF80
0FFFC0
1FFFE0
3FFFF0
3F87F0
3F03F0
7E01F8
7E01F8
7E01F8
7E01F8
FC00FC
FC00FC
FC00FC
FC00FC
FC00FC
FC00FC
FC00FC
FC00FC
FC00FC
FC00FC
7E01F8
7E01F8
7E01F8
7E01F8
7F03F8
3F87F0
3FFFF0
1FFFE0
0FFFC0
07FF80
01FE00
ENDCHAR
STARTCHAR 0031
ENCODING 49
SWIDTH 696 0
DWIDTH 30 0
BBX 13 32 3 0
BITMAP
0078
0078
00F8
00F8
03F8
0FF8
FFF8
FFF8
FFF8
FFF8
01F8
01F8
01F8
01F8
01F8
01F8
01F8
01F8
01F8
01F8
01F8
01F8
01F8
01F8
01F8
01F8
01F8
01F8
01F8
01F8
01F8
01F8
ENDCHAR
STARTCHAR 0032
ENCODING 50
SWIDTH 627 0
DWIDTH 27 0
BBX 20 32 2 0
BITMAP
03FC00
0FFF00
1FFF80
3FFFC0
7FFFE0
7F0FE0
FE07F0
FC03F0
FC03F0
FC03F0
F803F0
F803F0
0003F0
0007F0
0007E0
000FE0
001FC0
007F80
00FF00
01FE00
03F800
0FF000
1FE000
3FC000
7F8000
7F0000
FE0000
FFFFF0
FFFFF0
FFFFF0
FFFFF0
FFFFF0
ENDCHAR
STARTCHAR 0033
ENCODING 51
SWIDTH 580 0
DWIDTH 25 0
BBX 21 32 1 0
BITMAP
01FC00
07FF80
1FFFC0
3FFFE0
3FFFE0
7F07F0
7E03F0
7E03F0
7C03F0
7C03F0
0003F0
0003F0
0007E0
00FFC0
00FF80
00FFC0
00FFE0
007FF0
0007F0
0003F8
0001F8
0001F8
FC01F8
FC01F8
FE01F8
7E03F8
7F87F0
3FFFF0
3FFFE0
1FFFC0
07FF80
01FC00
ENDCHAR
STARTCHAR 0034
ENCODING 52
SWIDTH 627 0
DWIDTH 27 0
BBX 21 32 1 0
BITMAP
001FC0
003FC0
003FC0
007FC0
007FC0
00FFC0
01FFC0
01EFC0
03EFC0
03CFC0
078FC0
0F8FC0
0F0FC0
1F0FC0
1E0FC0
3C0FC0
7C0FC0
780FC0
F80FC0
FFFFF8
FFFFF8
FFFFF8
FFFFF8
FFFFF8
000FC0
000FC0
000FC0
000FC0
000FC0
000FC0
000FC0
000FC0
ENDCHAR
STARTCHAR 0035
ENCODING 53
SWIDTH 580 0
DWIDTH 25 0
BBX 21 32 1 0
BITMAP
0FFFF0
1FFFF0
1FFFF0
1FFFF0
1FFFF0
1E0000
1E0000
1E0000
3E0000
3E0000
3E7E00
3FFF80
3FFFC0
3FFFE0
7FFFF0
7F07F0
7E03F8
0001F8
0001F8
0001F8
0001F8
0001F8
0001F8
FC01F8
FC03F8
7E03F0
7F0FF0
7FFFE0
3FFFE0
1FFFC0
0FFF00
01FC00
ENDCHAR
STARTCHAR 0036
ENCODING 54
SWIDTH 580 0
DWIDTH 25 0
BBX 21 32 1 0
BITMAP
00FE00
03FF80
07FFE0
0FFFE0
1FFFF0
1F83F0
3F01F8
3E01F8
7E0000
7E0000
7E0000
7E3F00
7CFF80
7DFFE0
FFFFF0
FFFFF0
FF87F8
FF01F8
FE01F8
FE01F8
7C00F8
7C00F8
7C00F8
7E01F8
7E01F8
3F03F8
3F87F0
1FFFF0
1FFFE0
0FFFC0
03FF80
00FC00
ENDCHAR
STARTCHAR 0037
ENCODING 55
SWIDTH 580 0
DWIDTH 25 0
BBX 22 32 1 0
BITMAP
FFFFFC
FFFFFC
FFFFFC
FFFFFC
FFFFFC
0001F8
0001F0
0003F0
0007E0
0007C0
000FC0
001F80
001F00
003F00
003E00
007E00
007C00
00FC00
00FC00
01F800
01F800
01F800
03F000
03F000
03F000
03F000
03E000
07E000
07E000
07E000
07E000
07E000
ENDCHAR
STARTCHAR 0038
ENCODING 56
SWIDTH 673 0
DWIDTH 29 0
BBX 21 32 1 0
BITMAP
01FC00
07FF00
0FFF80
1FFFC0
3FFFE0
3F07E0
7E03F0
7E03F0
7C01F0
7C01F0
7E03F0
3E03E0
3F8FE0
1FFFC0
07FF00
0FFF80
3FFFE0
7F07F0
7E03F0
FE03F8
FC01F8
FC01F8
FC01F8
FC01F8
FE03F8
FE03F8
7F8FF0
7FFFF0
3FFFE0
1FFFC0
07FF00
01FC00
ENDCHAR
STARTCHAR 0039
ENCODING 57
SWIDTH 580 0
DWIDTH 25 0
BBX 21 32 1 0
BITMAP
01FC00
07FF00
0FFF80
1FFFC0
3FFFE0
7F07E0
7E03F0
7C03F0
FC01F8
FC01F8
FC01F8
FC01F8
FC01F8
7E03F8
7E03F8
7F07F8
3FFFF8
3FFFF8
1FFFF8
0FFDF8
03F1F8
0001F8
0001F0
0001F0
7E03F0
7E07F0
7F0FE0
3FFFE0
3FFFC0
1FFF80
0FFF00
01F800
ENDCHAR
STARTCHAR 003A
ENCODING 58
SWIDTH 534 0
DWIDTH 23 0
BBX 6 22 3 4
BITMAP
FC
FC
FC
FC
FC
FC
00
00
00
00
00
00
00
00
00
00
FC
FC
FC
FC
FC
FC
ENDCHAR
STARTCHAR 003B
ENCODING 59
SWIDTH 325 0
DWIDTH 14 0
BBX 6 29 5 -8
BITMAP
FC
FC
FC
FC
FC
FC
00
00
00
00
00
00
00
00
00
00
FC
FC
FC
FC
FC
FC
0C
0C
1C
1C
38
F0
E0
ENDCHAR
STARTCHAR 003C
ENCODING 60
SWIDTH 580 0
DWIDTH 25 0
BBX 21 21 2 -1
BITMAP
000008
000078
0003F8
000FF8
007FF8
03FFE0
0FFF00
7FF800
FFC000
FE0000
F80000
FE0000
FFC000
7FF800
1FFF00
03FFE0
007FF8
001FF8
0003F8
000078
000018
ENDCHAR
STARTCHAR 003D
ENCODING 61
SWIDTH 580 0
DWIDTH 25 0
BBX 21 16 2 2
BITMAP
FFFFF8
FFFFF8
FFFFF8
FFFFF8
FFFFF8
000000
000000
000000
000000
000000
000000
FFFFF8
FFFFF8
FFFFF8
FFFFF8
FFFFF8
ENDCHAR
STARTCHAR 003E
ENCODING 62
SWIDTH 580 0
DWIDTH 25 0
BBX 21 21 2 -1
BITMAP
800000
E00000
FC0000
FF8000
FFE000
7FFC00
0FFF80
01FFE0
003FF8
0007F8
0000F8
0003F8
001FF8
00FFF0
07FF80
3FFE00
FFF000
FF8000
FC0000
F00000
800000
ENDCHAR
STARTCHAR 003F
ENCODING 63
SWIDTH 603 0
DWIDTH 26 0
BBX 21 32 3 -1
BITMAP
01FC00
0FFF00
1FFFC0
3FFFE0
7FFFE0
7F0FF0
FE03F0
FC03F8
FC01F8
FC01F8
FC01F8
0001F8
0003F8
0007F0
000FF0
001FE0
003FC0
007F80
007E00
00FC00
00F800
00F800
00F800
000000
000000
000000
01FC00
01FC00
01FC00
01FC00
01FC00
01FC00
ENDCHAR
STARTCHAR 0040
ENCODING 64
SWIDTH 975 0
DWIDTH 42 0
BBX 40 38 1 -6
BITMAP
00007FC000
0007FFF800
001FFFFE00
003FE1FF80
00FE001FC0
01F80007E0
03E00001F0
07C00000F8
078000007C
0F0000003C
1F003F1E3E
1E00FFBC1E
3C01FFFC1E
3C03E1FC0E
780780F80F
780F00F80F
780F00780F
781E00780F
F01E00700F
F03E00F01F
F03C00F01E
F03C00E01E
F83C01E03E
F83E03E07C
783E07E0F8
781F0FF1F8
7C1FFEFFF0
3C0FFCFFC0
3E03F87F80
1F00000000
1F80000000
0FC0000000
07F0000000
03FC001800
01FFC7F800
007FFFFC00
001FFFF800
0003FF8000
ENDCHAR
STARTCHAR 0041
ENCODING 65
SWIDTH 720 0
DWIDTH 31 0
BBX 29 33 1 -1
BITMAP
001FE000
001FE000
003FE000
003FF000
003FF000
007FF000
007FF800
007FF800
00FFF800
00FDFC00
00FDFC00
01FCFC00
01F8FE00
01F8FE00
03F87E00
03F07F00
03F07F00
07F03F00
07E03F80
07E03F80
0FE01F80
0FFFFF80
0FFFFFC0
1FFFFFC0
1FFFFFC0
1FFFFFE0
3F8007E0
3F0007E0
3F0007F0
7F0003F0
7E0003F0
7E0003F8
FE0003F8
ENDCHAR
STARTCHAR 0042
ENCODING 66
SWIDTH 720 0
DWIDTH 31 0
BBX 25 33 4 -1
BITMAP
FFFFC000
FFFFF000
FFFFF800
FFFFFC00
FFFFFE00
FC03FE00
FC007F00
FC007F00
FC003F00
FC003F00
FC007F00
FC007E00
FC00FE00
FFFFFC00
FFFFF800
FFFFF000
FFFFF800
FFFFFC00
FC03FE00
FC007F00
FC003F00
FC003F80
FC003F80
FC003F80
FC003F80
FC003F00
FC007F00
FC01FF00
FFFFFE00
FFFFFE00
FFFFFC00
FFFFF000
FFFFC000
ENDCHAR
STARTCHAR 0043
ENCODING 67
SWIDTH 720 0
DWIDTH 31 0
BBX 27 33 2 -1
BITMAP
003FC000
00FFF800
03FFFE00
07FFFF00
0FFFFF80
1FFFFFC0
3FE03FC0
3F800FE0
7F000FE0
7F0007E0
7E0007E0
FE000000
FE000000
FE000000
FC000000
FC000000
FC000000
FC000000
FC000000
FE000000
FE000000
FE0007E0
7E0007E0
7F0007E0
7F000FE0
3F800FE0
3FC03FC0
1FFDFFC0
0FFFFF80
07FFFF00
03FFFE00
01FFF800
003FC000
ENDCHAR
STARTCHAR 0044
ENCODING 68
SWIDTH 720 0
DWIDTH 31 0
BBX 26 33 3 -1
BITMAP
FFFF8000
FFFFF000
FFFFF800
FFFFFC00
FFFFFE00
FE03FF00
FE00FF00
FE003F80
FE003F80
FE001F80
FE001FC0
FE001FC0
FE000FC0
FE000FC0
FE000FC0
FE000FC0
FE000FC0
FE000FC0
FE000FC0
FE000FC0
FE000FC0
FE001FC0
FE001FC0
FE001F80
FE003F80
FE003F80
FE007F00
FE03FF00
FFFFFE00
FFFFFC00
FFFFF800
FFFFF000
FFFF8000
ENDCHAR
STARTCHAR 0045
ENCODING 69
SWIDTH 673 0
DWIDTH 29 0
BBX 24 33 3 -1
BITMAP
FFFFFE
FFFFFE
FFFFFE
FFFFFE
FFFFFE
FE0000
FE0000
FE0000
FE0000
FE0000
FE0000
FE0000
FE0000
FFFFFC
FFFFFC
FFFFFC
FFFFFC
FFFFFC
FE0000
FE0000
FE0000
FE0000
FE0000
FE0000
FE0000
FE0000
FE0000
FE0000
FFFFFF
FFFFFF
FFFFFF
FFFFFF
FFFFFF
ENDCHAR
STARTCHAR 0046
ENCODING 70
SWIDTH 603 0
DWIDTH 26 0
BBX 22 33 3 -1
BITMAP
FFFFFC
FFFFFC
FFFFFC
FFFFFC
FFFFFC
FE0000
FE0000
FE0000
FE0000
FE0000
FE0000
FE0000
FE0000
FFFFF0
FFFFF0
FFFFF0
FFFFF0
FFFFF0
FE0000
FE0000
FE0000
FE0000
FE0000
FE0000
FE0000
FE0000
FE0000
FE0000
FE0000
FE0000
FE0000
FE0000
FE0000
ENDCHAR
STARTCHAR 0047
ENCODING 71
SWIDTH 789 0
DWIDTH 34 0
BBX 29 33 2 -1
BITMAP
001FE000
00FFFC00
03FFFF00
07FFFF80
0FFFFFC0
1FFFFFE0
1FE01FE0
3F8007F0
7F8003F0
7F0003F0
7E0001F8
FE000000
FE000000
FE000000
FC000000
FC00FFF8
FC00FFF8
FC00FFF8
FC00FFF8
FE00FFF8
FE0001F8
FE0001F8
7F0001F8
7F0003F8
7F8003F8
3FC007F8
1FE01FF8
1FFFFFF8
0FFFFFF8
07FFFEF8
03FFFCF8
00FFF078
001FC000
ENDCHAR
STARTCHAR 0048
ENCODING 72
SWIDTH 720 0
DWIDTH 31 0
BBX 25 33 3 -1
BITMAP
FC001F80
FC001F80
FC001F80
FC001F80
FC001F80
FC001F80
FC001F80
FC001F80
FC001F80
FC001F80
FC001F80
FC001F80
FC001F80
FFFFFF80
FFFFFF80
FFFFFF80
FFFFFF80
FFFFFF80
FC001F80
FC001F80
FC001F80
FC001F80
FC001F80
FC001F80
FC001F80
FC001F80
FC001F80
FC001F80
FC001F80
FC001F80
FC001F80
FC001F80
FC001F80
ENDCHAR
STARTCHAR 0049
ENCODING 73
SWIDTH 278 0
DWIDTH 12 0
BBX 6 33 3 -1
BITMAP
FC
FC
FC
FC
FC
FC
FC
FC
FC
FC
FC
FC
FC
FC
FC
FC
FC
FC
FC
FC
FC
FC
FC
FC
FC
FC
FC
FC
FC
FC
FC
FC
FC
ENDCHAR
STARTCHAR 004A
ENCODING 74
SWIDTH 557 0
DWIDTH 24 0
BBX 20 33 1 -1
BITMAP
0007F0
0007F0
0007F0
0007F0
0007F0
0007F0
0007F0
0007F0
0007F0
0007F0
0007F0
0007F0
0007F0
0007F0
0007F0
0007F0
0007F0
0007F0
0007F0
0007F0
FC07F0
FC07F0
FC07F0
FE07F0
FE07F0
FE07F0
FE07F0
7FFFE0
7FFFE0
3FFFC0
1FFF80
0FFF00
03FC00
ENDCHAR
STARTCHAR 004B
ENCODING 75
SWIDTH 720 0
DWIDTH 31 0
BBX 27 33 3 -1
BITMAP
FE003FC0
FE003F80
FE007F00
FE00FE00
FE01FE00
FE03FC00
FE07F800
FE07F000
FE0FE000
FE1FC000
FE3F8000
FE7F0000
FEFF0000
FFFE0000
FFFC0000
FFFE0000
FFFF0000
FFFF0000
FFFF8000
FF9FC000
FF1FE000
FE0FE000
FE07F000
FE07F800
FE03FC00
FE01FC00
FE00FE00
FE00FF00
FE007F80
FE003F80
FE003FC0
FE001FE0
FE000FE0
ENDCHAR
STARTCHAR 004C
ENCODING 76
SWIDTH 603 0
DWIDTH 26 0
BBX 22 33 3 -1
BITMAP
FE0000
FE0000
FE0000
FE0000
FE0000
FE0000
FE0000
FE0000
FE0000
FE0000
FE0000
FE0000
FE0000
FE0000
FE0000
FE0000
FE0000
FE0000
FE0000
FE0000
FE0000
FE0000
FE0000
FE0000
FE0000
FE0000
FE0000
FE0000
FFFFFC
FFFFFC
FFFFFC
FFFFFC
FFFFFC
ENDCHAR
STARTCHAR 004D
ENCODING 77
SWIDTH 836 0
DWIDTH 36 0
BBX 30 33 3 -1
BITMAP
FFC007FC
FFC00FFC
FFC00FFC
FFC00FFC
FFC00FFC
FFE00FFC
FFE01FFC
FFE01FFC
FDE01FFC
FDF01EFC
FDF03EFC
FDF03EFC
FDF03EFC
FCF03EFC
FCF83CFC
FCF87CFC
FCF87CFC
FC787CFC
FC787CFC
FC7C78FC
FC7CF8FC
FC7CF8FC
FC3CF8FC
FC3EF0FC
FC3EF0FC
FC3FF0FC
FC3FF0FC
FC1FF0FC
FC1FE0FC
FC1FE0FC
FC1FE0FC
FC0FE0FC
FC0FE0FC
ENDCHAR
STARTCHAR 004E
ENCODING 78
SWIDTH 720 0
DWIDTH 31 0
BBX 25 33 3 -1
BITMAP
FE001F80
FE001F80
FF001F80
FF001F80
FF801F80
FFC01F80
FFC01F80
FFE01F80
FFE01F80
FFF01F80
FDF01F80
FDF81F80
FCF81F80
FCFC1F80
FC7E1F80
FC7E1F80
FC3F1F80
FC3F1F80
FC1F9F80
FC0F9F80
FC0FDF80
FC07DF80
FC07FF80
FC03FF80
FC03FF80
FC01FF80
FC01FF80
FC00FF80
FC007F80
FC007F80
FC003F80
FC003F80
FC001F80
ENDCHAR
STARTCHAR 004F
ENCODING 79
SWIDTH 789 0
DWIDTH 34 0
BBX 30 33 2 -1
BITMAP
001FE000
00FFFC00
03FFFE00
07FFFF80
0FFFFFC0
1FFFFFE0
1FE01FE0
3F800FF0
7F8007F0
7F0003F8
7E0003F8
FE0001F8
FE0001FC
FC0001FC
FC0001FC
FC0001FC
FC0001FC
FC0001FC
FC0001FC
FC0001FC
FE0001FC
FE0001F8
7E0003F8
7F0003F8
7F8007F0
3FC00FF0
3FE01FE0
1FFFFFE0
0FFFFFC0
07FFFF80
03FFFE00
00FFFC00
001FE000
ENDCHAR
STARTCHAR 0050
ENCODING 80
SWIDTH 673 0
DWIDTH 29 0
BBX 24 33 3 -1
BITMAP
FFFFC0
FFFFF0
FFFFFC
FFFFFE
FFFFFE
FE07FF
FE00FF
FE007F
FE003F
FE003F
FE003F
FE003F
FE003F
FE007F
FE00FF
FE03FE
FFFFFE
FFFFFC
FFFFF8
FFFFF0
FFFFC0
FE0000
FE0000
FE0000
FE0000
FE0000
FE0000
FE0000
FE0000
FE0000
FE0000
FE0000
FE0000
ENDCHAR
STARTCHAR 0051
ENCODING 81
SWIDTH 789 0
DWIDTH 34 0
BBX 30 34 2 -2
BITMAP
001FE000
00FFFC00
03FFFF00
07FFFF80
0FFFFFC0
1FFFFFE0
1FE01FE0
3FC00FF0
3F8007F0
7F0003F8
7E0003F8
FE0001FC
FE0001FC
FE0001FC
FC0000FC
FC0000FC
FC0000FC
FC0000FC
FC0000FC
FE0001FC
FE0021FC
FE0071F8
7F00F9F8
7F01FFF8
3F80FFF0
3FC07FF0
1FE01FE0
1FFFFFE0
0FFFFFF0
07FFFFF8
03FFFFFC
00FFFCF8
001FE078
00000030
ENDCHAR
STARTCHAR 0052
ENCODING 82
SWIDTH 720 0
DWIDTH 31 0
BBX 26 33 3 -1
BITMAP
FFFFF800
FFFFFE00
FFFFFF00
FFFFFF00
FFFFFF80
FE00FF80
FE003FC0
FE001FC0
FE001FC0
FE001FC0
FE001FC0
FE001F80
FE001F80
FE003F80
FFFFFF00
FFFFFE00
FFFFF800
FFFFFC00
FFFFFE00
FE01FF00
FE007F00
FE003F80
FE003F80
FE003F80
FE003F80
FE003F80
FE003F80
FE003F80
FE003F80
FE003F80
FE003F80
FE001FC0
FE001FC0
ENDCHAR
STARTCHAR 0053
ENCODING 83
SWIDTH 673 0
DWIDTH 29 0
BBX 26 33 1 -1
BITMAP
007F8000
03FFF000
0FFFFC00
1FFFFE00
3FFFFF00
3FC1FF00
7F007F80
7E003F80
7E001F80
7E001F80
7E000000
7F000000
7FC00000
3FFE0000
3FFFF000
1FFFFC00
07FFFF00
01FFFF80
000FFF80
0000FFC0
00003FC0
00001FC0
00000FC0
FE000FC0
7E000FC0
7F000FC0
7F801FC0
3FE07F80
3FFFFF80
1FFFFF00
0FFFFE00
03FFF800
007FC000
ENDCHAR
STARTCHAR 0054
ENCODING 84
SWIDTH 603 0
DWIDTH 26 0
BBX 25 33 1 -1
BITMAP
FFFFFF80
FFFFFF80
FFFFFF80
FFFFFF80
FFFFFF80
007F0000
007F0000
007F0000
007F0000
007F0000
007F0000
007F0000
007F0000
007F0000
007F0000
007F0000
007F0000
007F0000
007F0000
007F0000
007F0000
007F0000
007F0000
007F0000
007F0000
007F0000
007F0000
007F0000
007F0000
007F0000
007F0000
007F0000
007F0000
ENDCHAR
STARTCHAR 0055
ENCODING 85
SWIDTH 720 0
DWIDTH 31 0
BBX 25 33 3 -1
BITMAP
FE001F80
FE001F80
FE001F80
FE001F80
FE001F80
FE001F80
FE001F80
FE001F80
FE001F80
FE001F80
FE001F80
FE001F80
FE001F80
FE001F80
FE001F80
FE001F80
FE001F80
FE001F80
FE001F80
FE001F80
FE001F80
FE001F80
FE001F80
FE001F80
FE003F80
7F003F80
7F807F00
3FFFFF00
3FFFFE00
1FFFFC00
0FFFF800
03FFF000
00FF8000
ENDCHAR
STARTCHAR 0056
ENCODING 86
SWIDTH 673 0
DWIDTH 29 0
BBX 27 33 1 -1
BITMAP
FE000FE0
FE000FC0
7E000FC0
7F001FC0
7F001F80
3F001F80
3F001F80
3F803F00
1F803F00
1F803F00
1F807E00
0FC07E00
0FC07E00
0FC07C00
07E0FC00
07E0FC00
07E0F800
03E0F800
03F1F800
03F1F000
01F1F000
01FBF000
01FBF000
00FBE000
00FBE000
00FFE000
007FC000
007FC000
007FC000
007F8000
003F8000
003F8000
003F0000
ENDCHAR
STARTCHAR 0057
ENCODING 87
SWIDTH 952 0
DWIDTH 41 0
BBX 39 33 1 -1
BITMAP
FE00FE00FE
FE00FE00FE
FE00FE00FC
FE01FE00FC
7E01FE01FC
7F01FF01FC
7F01FF01F8
3F01FF01F8
3F03EF01F8
3F03EF03F8
3F03EF83F0
1F83EF83F0
1F83CF83F0
1F87C783F0
1F87C783E0
0F87C7C7E0
0FC7C7C7E0
0FC787C7E0
07CF83C7C0
07CF83E7C0
07CF83EFC0
07EF83EF80
03EF03EF80
03EF01EF80
03FF01FF80
03FF01FF00
01FF01FF00
01FE01FF00
01FE00FF00
01FE00FE00
00FE00FE00
00FE00FE00
00FC00FE00
ENDCHAR
STARTCHAR 0058
ENCODING 88
SWIDTH 673 0
DWIDTH 29 0
BBX 27 33 1 -1
BITMAP
7F001FC0
7F803FC0
3F803F80
3FC07F80
1FC07F00
1FE0FE00
0FE0FE00
07F1FC00
07F1FC00
03FBF800
03FBF000
01FFF000
00FFE000
00FFE000
007FC000
007F8000
003F8000
007FC000
007FC000
00FFE000
01FFF000
01FFF000
03FBF800
03F3F800
07F1FC00
0FE1FE00
0FE0FE00
1FC07F00
1FC07F00
3F803F80
7F803FC0
7F001FC0
FF001FE0
ENDCHAR
STARTCHAR 0059
ENCODING 89
SWIDTH 673 0
DWIDTH 29 0
BBX 27 33 1 -1
BITMAP
FF000FE0
7F001FC0
7F001FC0
3F803F80
3F803F80
1FC07F00
1FC07F00
0FE07E00
0FE0FE00
07F0FC00
07F1FC00
03F1F800
03F9F800
01FBF800
01FFF000
00FFF000
00FFE000
007FE000
007FC000
003FC000
003F8000
001F8000
001F8000
001F8000
001F8000
001F8000
001F8000
001F8000
001F8000
001F8000
001F8000
001F8000
001F8000
ENDCHAR
STARTCHAR 005A
ENCODING 90
SWIDTH 603 0
DWIDTH 26 0
BBX 24 33 1 -1
BITMAP
FFFFFF
FFFFFF
FFFFFF
FFFFFF
FFFFFF
0000FF
0000FE
0001FC
0003FC
0007F8
0007F0
000FE0
001FE0
003FC0
003F80
007F80
00FF00
00FE00
01FC00
03FC00
07F800
07F000
0FF000
1FE000
1FC000
3F8000
7F8000
FF0000
FFFFFF
FFFFFF
FFFFFF
FFFFFF
FFFFFF
ENDCHAR
STARTCHAR 005B
ENCODING 91
SWIDTH 325 0
DWIDTH 14 0
BBX 10 40 3 -8
BITMAP
FFC0
FFC0
FFC0
FFC0
F800
F800
F800
F800
F800
F800
F800
F800
F800
F800
F800
F800
F800
F800
F800
F800
F800
F800
F800
F800
F800
F800
F800
F800
F800
F800
F800
F800
F800
F800
F800
F800
FFC0
FFC0
FFC0
FFC0
ENDCHAR
STARTCHAR 005C
ENCODING 92
SWIDTH 278 0
DWIDTH 12 0
BBX 12 31 0 -1
BITMAP
E000
E000
E000
7000
7000
7000
3800
3800
3800
1C00
1C00
1C00
0E00
0E00
0E00
0600
0700
0700
0300
0380
0380
0380
01C0
01C0
01C0
00E0
00E0
00E0
0070
0070
0070
ENDCHAR
STARTCHAR 005D
ENCODING 93
SWIDTH 325 0
DWIDTH 14 0
BBX 10 40 1 -8
BITMAP
FFC0
FFC0
FFC0
FFC0
07C0
07C0
07C0
07C0
07C0
07C0
07C0
07C0
07C0
07C0
07C0
07C0
07C0
07C0
07C0
07C0
07C0
07C0
07C0
07C0
07C0
07C0
07C0
07C0
07C0
07C0
07C0
07C0
07C0
07C0
07C0
07C0
FFC0
FFC0
FFC0
FFC0
ENDCHAR
STARTCHAR 005E
ENCODING 94
SWIDTH 580 0
DWIDTH 25 0
BBX 19 18 3 12
BITMAP
01F000
03F800
03F800
07F800
07FC00
07FC00
0FBE00
0FBE00
1F1F00
1F1F00
1E1F00
3E0F80
3E0F80
3C07C0
7C07C0
7C07C0
F803E0
F803E0
ENDCHAR
STARTCHAR 005F
ENCODING 95
SWIDTH 557 0
DWIDTH 24 0
BBX 26 3 -1 -8
BITMAP
FFFFFFC0
FFFFFFC0
FFFFFFC0
ENDCHAR
STARTCHAR 0060
ENCODING 96
SWIDTH 325 0
DWIDTH 14 0
BBX 8 7 1 26
BITMAP
F8
7C
7C
3E
1E
0F
07
ENDCHAR
STARTCHAR 0061
ENCODING 97
SWIDTH 557 0
DWIDTH 24 0
BBX 22 25 1 -1
BITMAP
01FE00
0FFF80
1FFFE0
3FFFE0
3FFFF0
7F07F0
7E03F0
7E03F0
0003F0
000FF0
01FFF0
0FFFF0
3FFFF0
7FFBF0
7F03F0
7E03F0
FC03F0
FC03F0
FC07F0
FE0FF0
7FFFF0
7FFFF0
3FFBF8
1FF3FC
0FC1FC
ENDCHAR
STARTCHAR 0062
ENCODING 98
SWIDTH 603 0
DWIDTH 26 0
BBX 22 33 3 -1
BITMAP
FC0000
FC0000
FC0000
FC0000
FC0000
FC0000
FC0000
FC0000
FC7E00
FDFF80
FFFFC0
FFFFE0
FFFFF0
FF8FF0
FE03F8
FE01F8
FC01F8
FC01FC
FC00FC
FC00FC
FC00FC
FC00FC
FC00FC
FC01FC
FC01F8
FE01F8
FE03F8
FF87F0
FFFFF0
FFFFE0
FFFFC0
FDFF80
FC7E00
ENDCHAR
STARTCHAR 0063
ENCODING 99
SWIDTH 557 0
DWIDTH 24 0
BBX 21 25 1 -1
BITMAP
00FE00
03FF80
0FFFE0
1FFFF0
3FFFF0
3F83F8
3F01F8
7E01F8
7E00F8
7E0000
7E0000
FE0000
FC0000
FE0000
7E0000
7E0000
7E00F8
7E01F8
7F01F8
3F83F8
3FFFF0
1FFFE0
0FFFC0
07FF80
00FE00
ENDCHAR
STARTCHAR 0064
ENCODING 100
SWIDTH 603 0
DWIDTH 26 0
BBX 22 33 1 -1
BITMAP
0000FC
0000FC
0000FC
0000FC
0000FC
0000FC
0000FC
0000FC
01F8FC
07FEFC
0FFFFC
1FFFFC
3FFFFC
3F87FC
7F03FC
7E01FC
7E00FC
7E00FC
FC00FC
FC00FC
FC00FC
FC00FC
FC00FC
FE00FC
7E00FC
7E01FC
7F01FC
7FC7FC
3FFFFC
3FFFFC
1FFFFC
07FEFC
01F8FC
ENDCHAR
STARTCHAR 0065
ENCODING 101
SWIDTH 557 0
DWIDTH 24 0
BBX 22 25 1 -1
BITMAP
01FC00
07FF00
0FFFC0
1FFFE0
3FFFF0
3F07F0
7E03F8
7E01F8
FC01F8
FC01F8
FFFFF8
FFFFFC
FFFFFC
FFFFFC
FC0000
FC0000
FC0000
7C01F8
7E01F8
7F03F0
3FFFF0
1FFFE0
0FFFC0
07FF80
01FC00
ENDCHAR
STARTCHAR 0066
ENCODING 102
SWIDTH 325 0
DWIDTH 14 0
BBX 12 33 1 -1
BITMAP
03F0
0FF0
0FF0
1FF0
1FF0
1F80
1F80
1F80
1F80
FFF0
FFF0
FFF0
FFF0
1F80
1F80
1F80
1F80
1F80
1F80
1F80
1F80
1F80
1F80
1F80
1F80
1F80
1F80
1F80
1F80
1F80
1F80
1F80
1F80
ENDCHAR
STARTCHAR 0067
ENCODING 103
SWIDTH 603 0
DWIDTH 26 0
BBX 21 33 2 -9
BITMAP
01F1F8
07F9F8
0FFDF8
1FFFF8
3FFFF8
7F8FF8
7F07F8
7E03F8
FC01F8
FC01F8
FC01F8
FC01F8
FC01F8
FC01F8
FC01F8
FC01F8
FC01F8
FE03F8
7F03F8
7F8FF8
3FFFF8
3FFFF8
1FFDF8
0FF9F8
03F1F8
0001F8
0001F8
FE03F8
7F07F0
7FFFE0
3FFFC0
0FFF80
03FC00
ENDCHAR
STARTCHAR 0068
ENCODING 104
SWIDTH 603 0
DWIDTH 26 0
BBX 20 33 3 -1
BITMAP
FC0000
FC0000
FC0000
FC0000
FC0000
FC0000
FC0000
FC0000
FC3F00
FCFFC0
FDFFE0
FFFFE0
FFFFF0
FF8FF0
FE07F0
FE03F0
FC03F0
FC03F0
FC03F0
FC03F0
FC03F0
FC03F0
FC03F0
FC03F0
FC03F0
FC03F0
FC03F0
FC03F0
FC03F0
FC03F0
FC03F0
FC03F0
FC03F0
ENDCHAR
STARTCHAR 0069
ENCODING 105
SWIDTH 278 0
DWIDTH 12 0
BBX 6 33 3 -1
BITMAP
FC
FC
FC
FC
FC
00
00
00
FC
FC
FC
FC
FC
FC
FC
FC
FC
FC
FC
FC
FC
FC
FC
FC
FC
FC
FC
FC
FC
FC
FC
FC
FC
ENDCHAR
STARTCHAR 006A
ENCODING 106
SWIDTH 278 0
DWIDTH 12 0
BBX 9 41 0 -9
BITMAP
1F80
1F80
1F80
1F80
1F80
0000
0000
0000
1F80
1F80
1F80
1F80
1F80
1F80
1F80
1F80
1F80
1F80
1F80
1F80
1F80
1F80
1F80
1F80
1F80
1F80
1F80
1F80
1F80
1F80
1F80
1F80
1F80
1F80
1F80
1F80
FF80
FF80
FF80
FF00
FE00
ENDCHAR
STARTCHAR 006B
ENCODING 107
SWIDTH 557 0
DWIDTH 24 0
BBX 20 33 3 -1
BITMAP
FC0000
FC0000
FC0000
FC0000
FC0000
FC0000
FC0000
FC0000
FC07F0
FC0FE0
FC1FC0
FC3F80
FC3F00
FC7E00
FCFE00
FDFC00
FDF800
FFF000
FFF800
FFF800
FFFC00
FFFC00
FFFE00
FE7E00
FC7F00
FC3F80
FC3F80
FC1FC0
FC1FC0
FC0FE0
FC0FE0
FC07F0
FC07F0
ENDCHAR
STARTCHAR 006C
ENCODING 108
SWIDTH 278 0
DWIDTH 12 0
BBX 6 33 3 -1
BITMAP
FC
FC
FC
FC
FC
FC
FC
FC
FC
FC
FC
FC
FC
FC
FC
FC
FC
FC
FC
FC
FC
FC
FC
FC
FC
FC
FC
FC
FC
FC
FC
FC
FC
ENDCHAR
STARTCHAR 006D
ENCODING 109
SWIDTH 882 0
DWIDTH 38 0
BBX 32 25 3 -1
BITMAP
FCFE03F0
FDFF8FFC
FFFFDFFE
FFFFFFFF
FFFFFFFF
FF1FF87F
FE07F03F
FC07F03F
FC07E03F
FC07E03F
FC07E03F
FC07E03F
FC07E03F
FC07E03F
FC07E03F
FC07E03F
FC07E03F
FC07E03F
FC07E03F
FC07E03F
FC07E03F
FC07E03F
FC07E03F
FC07E03F
FC07E03F
ENDCHAR
STARTCHAR 006E
ENCODING 110
SWIDTH 603 0
DWIDTH 26 0
BBX 21 25 3 -1
BITMAP
FC3F00
FCFFC0
FDFFE0
FFFFF0
FFFFF0
FF8FF0
FE03F0
FC03F8
FC03F8
FC03F8
FC03F8
FC03F8
FC03F8
FC03F8
FC03F8
FC03F8
FC03F8
FC03F8
FC03F8
FC03F8
FC03F8
FC03F8
FC03F8
FC03F8
FC03F8
ENDCHAR
STARTCHAR 006F
ENCODING 111
SWIDTH 603 0
DWIDTH 26 0
BBX 23 25 2 -1
BITMAP
01FE00
07FF80
1FFFE0
3FFFF0
3FFFF0
7F87F8
7E01FC
FE01FC
FC00FC
FC00FC
FC00FC
FC00FE
FC00FE
FC00FE
FC00FC
FC00FC
FC00FC
FE01FC
7E01F8
7F87F8
3FFFF0
3FFFF0
1FFFE0
07FF80
01FE00
ENDCHAR
STARTCHAR 0070
ENCODING 112
SWIDTH 603 0
DWIDTH 26 0
BBX 23 33 2 -9
BITMAP
FE3F00
FEFFC0
FFFFE0
FFFFF0
FFFFF8
FFC7F8
FF01FC
FF00FC
FE00FC
FE00FE
FE007E
FE007E
FE007E
FE007E
FE007E
FE00FC
FE00FC
FF00FC
FF01FC
FFC3F8
FFFFF8
FFFFF0
FFFFE0
FEFFC0
FE3F00
FE0000
FE0000
FE0000
FE0000
FE0000
FE0000
FE0000
FE0000
ENDCHAR
STARTCHAR 0071
ENCODING 113
SWIDTH 603 0
DWIDTH 26 0
BBX 22 33 1 -9
BITMAP
01F8FC
07FEFC
0FFFFC
1FFFFC
3FFFFC
3F87FC
7F01FC
7E01FC
7E00FC
7E00FC
FC00FC
FC00FC
FC00FC
FC00FC
FC00FC
FE00FC
7E00FC
7E01FC
7F01FC
3F87FC
3FFFFC
1FFFFC
0FFFFC
07FEFC
01F8FC
0000FC
0000FC
0000FC
0000FC
0000FC
0000FC
0000FC
0000FC
ENDCHAR
STARTCHAR 0072
ENCODING 114
SWIDTH 394 0
DWIDTH 17 0
BBX 13 25 3 -1
BITMAP
FC38
FCF8
FDF8
FDF8
FFF8
FFF8
FF00
FE00
FC00
FC00
FC00
FC00
FC00
FC00
FC00
FC00
FC00
FC00
FC00
FC00
FC00
FC00
FC00
FC00
FC00
ENDCHAR
STARTCHAR 0073
ENCODING 115
SWIDTH 557 0
DWIDTH 24 0
BBX 21 25 1 -1
BITMAP
01FE00
07FF80
1FFFE0
3FFFE0
3FFFF0
7F03F0
7E01F8
7E01F8
7F0000
7FF000
3FFE00
3FFFC0
1FFFF0
03FFF0
007FF8
000FF8
0003F8
FC01F8
FE01F8
7E03F8
7FFFF8
3FFFF0
3FFFE0
0FFFC0
03FE00
ENDCHAR
STARTCHAR 0074
ENCODING 116
SWIDTH 325 0
DWIDTH 14 0
BBX 12 30 1 -1
BITMAP
1F80
1F80
1F80
1F80
1F80
1F80
FFF0
FFF0
FFF0
FFF0
1F80
1F80
1F80
1F80
1F80
1F80
1F80
1F80
1F80
1F80
1F80
1F80
1F80
1F80
1F80
1FF0
1FF0
1FF0
0FF0
07F0
ENDCHAR
STARTCHAR 0075
ENCODING 117
SWIDTH 603 0
DWIDTH 26 0
BBX 21 25 2 -1
BITMAP
FE01F8
FE01F8
FE01F8
FE01F8
FE01F8
FE01F8
FE01F8
FE01F8
FE01F8
FE01F8
FE01F8
FE01F8
FE01F8
FE01F8
FE01F8
FE01F8
FE01F8
7E01F8
7E03F8
7F87F8
7FFFF8
3FFFF8
3FFDF8
1FF9F8
07E1F8
ENDCHAR
STARTCHAR 0076
ENCODING 118
SWIDTH 557 0
DWIDTH 24 0
BBX 22 25 1 -1
BITMAP
FC00FC
FC01FC
FE01F8
7E01F8
7E01F8
7E03F0
3F03F0
3F03F0
3F03E0
1F87E0
1F87E0
1F87C0
0F8FC0
0FCFC0
0FCF80
07CF80
07FF80
07FF00
03FF00
03FF00
03FF00
01FE00
01FE00
01FE00
00FC00
ENDCHAR
STARTCHAR 0077
ENCODING 119
SWIDTH 789 0
DWIDTH 34 0
BBX 33 25 0 -1
BITMAP
FE03F01F80
7E07F03F80
7E07F03F00
7E07F03F00
7E07F83F00
3F07F83F00
3F0FF87E00
3F0FF87E00
3F0F787E00
1F0F7C7C00
1F8F7C7C00
1F9F7CFC00
1F9F3CFC00
0F9E3CF800
0FDE3EF800
0FDE3EF800
07FE3FF800
07FE1FF000
07FC1FF000
07FC1FF000
03FC1FF000
03FC1FE000
03F80FE000
03F80FE000
01F80FE000
ENDCHAR
STARTCHAR 0078
ENCODING 120
SWIDTH 557 0
DWIDTH 24 0
BBX 22 25 1 -1
BITMAP
FE03FC
7F03F8
7F07F0
3F87F0
1F8FE0
1FCFE0
0FDFC0
0FFF80
07FF80
03FF00
03FE00
01FE00
01FC00
01FE00
03FF00
03FF00
07FF80
0FFF80
0FDFC0
1FCFE0
3F87E0
3F87F0
7F03F8
7F03F8
FE01FC
ENDCHAR
STARTCHAR 0079
ENCODING 121
SWIDTH 557 0
DWIDTH 24 0
BBX 22 33 1 -9
BITMAP
FC00FC
FC00FC
FE01F8
7E01F8
7E01F8
7F03F0
3F03F0
3F03F0
3F83E0
1F87E0
1F87E0
1F87C0
0FCFC0
0FCFC0
0FCF80
07EF80
07FF80
07FF00
03FF00
03FF00
03FE00
01FE00
01FE00
00FC00
00FC00
00FC00
00F800
01F800
03F800
1FF000
1FF000
1FE000
1FC000
ENDCHAR
STARTCHAR 007A
ENCODING 122
SWIDTH 510 0
DWIDTH 22 0
BBX 19 25 1 -1
BITMAP
7FFFE0
7FFFE0
7FFFE0
7FFFE0
7FFFE0
001FC0
003FC0
007F80
007F00
00FE00
01FE00
03FC00
03F800
07F000
0FF000
1FE000
1FC000
3F8000
7F8000
FF0000
FFFFE0
FFFFE0
FFFFE0
FFFFE0
FFFFE0
ENDCHAR
STARTCHAR 007B
ENCODING 123
SWIDTH 394 0
DWIDTH 17 0
BBX 12 40 2 -8
BITMAP
03F0
07F0
0FF0
0FF0
1F80
1F00
1F00
1F00
1F00
1F00
1F00
1F00
1F00
1F00
1F00
1F00
1F00
3F00
FE00
FC00
FC00
FE00
3F00
1F00
1F00
1F00
1F00
1F00
1F00
1F00
1F00
1F00
1F00
1F00
1F00
1F80
1FF0
0FF0
0FF0
03F0
ENDCHAR
STARTCHAR 007C
ENCODING 124
SWIDTH 278 0
DWIDTH 12 0
BBX 4 40 4 -8
BITMAP
F0
F0
F0
F0
F0
F0
F0
F0
F0
F0
F0
F0
F0
F0
F0
F0
F0
F0
F0
F0
F0
F0
F0
F0
F0
F0
F0
F0
F0
F0
F0
F0
F0
F0
F0
F0
F0
F0
F0
F0
ENDCHAR
STARTCHAR 007D
ENCODING 125
SWIDTH 394 0
DWIDTH 17 0
BBX 12 40 3 -8
BITMAP
FC00
FE00
FF00
FF00
1F80
1F80
0F80
0F80
0F80
0F80
0F80
0F80
0F80
0F80
0F80
0F80
0F80
0F80
0FF0
07F0
01F0
07F0
0FC0
0F80
0F80
0F80
0F80
0F80
0F80
0F80
0F80
0F80
0F80
0F80
0F80
1F80
FF00
FF00
FE00
FC00
ENDCHAR
STARTCHAR 007E
ENCODING 126
SWIDTH 580 0
DWIDTH 25 0
BBX 19 7 3 12
BITMAP
1F0000
7F80E0
7FE0E0
FBF1E0
E0FFE0
E07FC0
001F80
ENDCHAR
STARTCHAR 00A0
ENCODING 160
SWIDTH 278 0
DWIDTH 12 0
BBX 0 0 0 0
BITMAP
ENDCHAR
STARTCHAR 00A1
ENCODING 161
SWIDTH 325 0
DWIDTH 14 0
BBX 6 31 3 -7
BITMAP
FC
FC
FC
FC
FC
FC
00
00
00
38
78
78
78
78
78
78
7C
FC
FC
FC
FC
FC
FC
FC
FC
FC
FC
FC
FC
FC
FC
ENDCHAR
STARTCHAR 00A2
ENCODING 162
SWIDTH 557 0
DWIDTH 24 0
BBX 20 32 2 -5
BITMAP
006000
006000
006000
007000
07FF00
0FFF80
1FFFC0
3FFFE0
7FEFF0
7E67F0
FE63F0
FC63F0
FC6000
FC6000
FC6000
FC6000
FC6000
FC6000
FC6000
FC61F0
FC63F0
7E63F0
7F67F0
7FFFE0
3FFFC0
1FFF80
0FFF00
01FC00
006000
006000
006000
006000
ENDCHAR
STARTCHAR 00A3
ENCODING 163
SWIDTH 557 0
DWIDTH 24 0
BBX 22 32 1 -1
BITMAP
01FE00
07FF80
1FFFE0
3FFFF0
3FFFF0
7F03F8
7E01F8
7E01F8
7E00F8
7E00F8
7E0000
7F0000
3F0000
3F8000
1F8000
FFFE00
FFFE00
0FC000
07C000
07E000
07E000
07C000
07C000
07C000
0F8000
1F0000
3EFE78
7FFFF8
7FFFFC
7FFFFC
3FFFF8
301FE0
ENDCHAR
STARTCHAR 00A4
ENCODING 164
SWIDTH 557 0
DWIDTH 24 0
BBX 20 22 2 4
BITMAP
200040
7000E0
F9F9F0
FFFFF0
7FFFE0
3FFFC0
3F9FC0
3E07C0
3C03C0
7C03E0
7801E0
7801E0
7C03E0
3C03C0
3E07C0
3F9FC0
3FFFC0
7FFFE0
FFFFF0
F9F9F0
7000E0
200040
ENDCHAR
STARTCHAR 00A5
ENCODING 165
SWIDTH 557 0
DWIDTH 24 0
BBX 22 30 1 -1
BITMAP
FC007C
FC00FC
7E00F8
7E01F8
3F03F0
3F03F0
1F87E0
0F87E0
0FCFC0
07CF80
07FF80
03FF00
03FF00
01FE00
00FE00
3FFFF0
3FFFF0
3FFFF0
00FC00
3FFFF0
3FFFF0
3FFFF0
00FC00
00FC00
00FC00
00FC00
00FC00
00FC00
00FC00
00FC00
ENDCHAR
STARTCHAR 00A6
ENCODING 166
SWIDTH 278 0
DWIDTH 12 0
BBX 4 40 4 -8
BITMAP
F0
F0
F0
F0
F0
F0
F0
F0
F0
F0
F0
F0
F0
F0
F0
F0
F0
00
00
00
00
00
00
F0
F0
F0
F0
F0
F0
F0
F0
F0
F0
F0
F0
F0
F0
F0
F0
F0
ENDCHAR
STARTCHAR 00A7
ENCODING 167
SWIDTH 557 0
DWIDTH 24 0
BBX 21 41 1 -10
BITMAP
01FC00
07FF00
0FFFC0
1FFFC0
3FDFE0
3F07E0
3F03E0
3F03E0
3F8000
3FC000
3FF000
1FFC00
0FFE00
0FFF80
1FFFE0
3EFFF0
7C3FF0
7C0FF8
FC03F8
FC01F8
FE00F8
7F80F8
7FC0F8
3FF1F8
1FFFF0
0FFFE0
03FF80
01FFC0
007FE0
001FF0
000FF0
0003F0
3E03F0
3F03F0
3F03F0
3F87F0
1FFFE0
1FFFE0
0FFFC0
07FF00
00F800
ENDCHAR
STARTCHAR 00A8
ENCODING 168
SWIDTH 325 0
DWIDTH 14 0
BBX 13 5 1 27
BITMAP
F8F8
F8F8
F8F8
F8F8
F8F8
ENDCHAR
STARTCHAR 00A9
ENCODING 169
SWIDTH 743 0
DWIDTH 32 0
BBX 33 33 -1 -1
BITMAP
0007F80000
003FFF0000
00FFFFC000
01FC0FE000
03E001F000
078000F800
0F00803C00
1E0FF81E00
1C1FFE1E00
3C3FFF0F00
387E1F0700
787C0F0780
7078078780
70F0000380
70F0000380
F0F0000380
F0F0000380
F0F0000380
70F0000380
70F0078380
7078078780
78780F0780
387E1F0700
3C3FFE0F00
3C1FFE1E00
1E0FF81E00
0F00C03C00
078000F800
03E001F000
01FC0FE000
00FFFFC000
003FFF0000
0007F80000
ENDCHAR
STARTCHAR 00AA
ENCODING 170
SWIDTH 371 0
DWIDTH 16 0
BBX 13 20 1 12
BITMAP
0FC0
3FE0
7FF0
78F0
7070
00F0
1FF0
3FF0
7C70
F070
F0F0
F0F0
7FF0
7F78
3E00
0000
0000
7FF8
7FF8
7FF8
ENDCHAR
STARTCHAR 00AB
ENCODING 171
SWIDTH 557 0
DWIDTH 24 0
BBX 16 17 4 4
BITMAP
0201
0E03
1E07
3E1F
7E3F
FC7E
F87C
E078
E070
F078
F87C
7C3F
3E1F
1E0F
0E07
0601
0200
ENDCHAR
STARTCHAR 00AC
ENCODING 172
SWIDTH 580 0
DWIDTH 25 0
BBX 21 12 2 4
BITMAP
FFFFF8
FFFFF8
FFFFF8
000038
000038
000038
000038
000038
000038
000038
000038
000038
ENDCHAR
STARTCHAR 00AD
ENCODING 173
SWIDTH 325 0
DWIDTH 14 0
BBX 12 6 1 9
BITMAP
FFF0
FFF0
FFF0
FFF0
FFF0
FFF0
ENDCHAR
STARTCHAR 00AE
ENCODING 174
SWIDTH 743 0
DWIDTH 32 0
BBX 33 33 -1 -1
BITMAP
0007F80000
003FFF0000
00FFFFC000
01FC0FE000
03E001F000
078000F800
0F00003C00
1E7FFC1E00
1C7FFE1E00
3C7FFF0F00
38783F8700
78780F8780
7078078780
7078078380
70780F0380
F07FFE0380
F07FFC0380
F07FFE0380
70787F0380
70780F0380
70780F0780
78780F0780
38780F0700
3C780F0F00
1C780F1E00
1E780F9E00
0F00003C00
078000F800
03E001F000
01FC0FE000
00FFFFC000
003FFF0000
0007F80000
ENDCHAR
STARTCHAR 00AF
ENCODING 175
SWIDTH 325 0
DWIDTH 14 0
BBX 13 3 1 28
BITMAP
FFF8
FFF8
FFF8
ENDCHAR
STARTCHAR 00B0
ENCODING 176
SWIDTH 394 0
DWIDTH 17 0
BBX 13 14 2 16
BITMAP
0700
1FC0
3FE0
78F0
7038
E038
E038
E038
E038
7038
78F0
3FE0
1FC0
0700
ENDCHAR
STARTCHAR 00B1
ENCODING 177
SWIDTH 580 0
DWIDTH 25 0
BBX 21 27 2 -1
BITMAP
00F800
00F800
00F800
00F800
00F800
00F800
00F800
00F800
FFFFF8
FFFFF8
FFFFF8
FFFFF8
FFFFF8
00F800
00F800
00F800
00F800
00F800
00F800
00F800
000000
000000
FFFFF8
FFFFF8
FFFFF8
FFFFF8
FFFFF8
ENDCHAR
STARTCHAR 00B2
ENCODING 178
SWIDTH 325 0
DWIDTH 14 0
BBX 14 19 0 12
BITMAP
0FC0
3FF0
3FF8
7CF8
787C
703C
703C
007C
0078
00F0
03E0
07C0
1F80
3E00
7C00
7FFC
7FFC
FFFC
FFFC
ENDCHAR
STARTCHAR 00B3
ENCODING 179
SWIDTH 325 0
DWIDTH 14 0
BBX 14 19 0 12
BITMAP
0FC0
3FF0
3FF8
78F8
7878
7078
0078
00F0
07F0
07F0
07F8
0078
003C
F03C
F87C
7878
7FF8
3FF0
1FE0
ENDCHAR
STARTCHAR 00B4
ENCODING 180
SWIDTH 325 0
DWIDTH 14 0
BBX 9 7 5 26
BITMAP
1F80
1F00
3E00
3C00
7800
7000
F000
ENDCHAR
STARTCHAR 00B5
ENCODING 181
SWIDTH 603 0
DWIDTH 26 0
BBX 23 33 2 -9
BITMAP
FE03F8
FE03F8
FE03F8
FE03F8
FE03F8
FE03F8
FE03F8
FE03F8
FE03F8
FE03F8
FE03F8
FE03F8
FE03F8
FE03F8
FE03F8
FE03F8
FE03F8
FE03F8
FE07F8
FF8FF8
FFFFF8
FFFFFE
FFFFFE
FFFEFE
FCF87C
FC0000
FC0000
FC0000
FC0000
FC0000
FC0000
FC0000
FC0000
ENDCHAR
STARTCHAR 00B6
ENCODING 182
SWIDTH 557 0
DWIDTH 24 0
BBX 22 40 1 -8
BITMAP
03FFFC
0FFFFC
1FFFFC
3FF8F0
7FF8F0
7FF8F0
FFF8F0
FFF8F0
FFF8F0
FFF8F0
FFF8F0
FFF8F0
FFF8F0
FFF8F0
7FF8F0
7FF8F0
3FF8F0
1FF8F0
0FF8F0
03F8F0
0078F0
0078F0
0078F0
0078F0
0078F0
0078F0
0078F0
0078F0
0078F0
0078F0
0078F0
0078F0
0078F0
0078F0
0078F0
0078F0
0078F0
0078F0
0078F0
0078F0
ENDCHAR
STARTCHAR 00B7
ENCODING 183
SWIDTH 278 0
DWIDTH 12 0
BBX 5 5 3 7
BITMAP
F8
F8
F8
F8
F8
ENDCHAR
STARTCHAR 00B8
ENCODING 184
SWIDTH 325 0
DWIDTH 14 0
BBX 12 9 1 -10
BITMAP
0300
0600
07C0
0FE0
00F0
00F0
61E0
FFE0
3FC0
ENDCHAR
STARTCHAR 00B9
ENCODING 185
SWIDTH 325 0
DWIDTH 14 0
BBX 9 19 1 12
BITMAP
0380
0380
0780
1F80
FF80
FF80
0780
0780
0780
0780
0780
0780
0780
0780
0780
0780
0780
0780
0780
ENDCHAR
STARTCHAR 00BA
ENCODING 186
SWIDTH 371 0
DWIDTH 16 0
BBX 14 20 1 12
BITMAP
0FC0
3FF0
7FF0
7878
F078
F03C
F03C
F03C
F03C
F03C
F078
7878
7FF0
3FE0
0FC0
0000
0000
FFF8
FFF8
FFF8
ENDCHAR
STARTCHAR 00BB
ENCODING 187
SWIDTH 557 0
DWIDTH 24 0
BBX 16 16 4 4
BITMAP
8040
C060
E070
F87C
FC7E
7E3F
3E1F
0E0F
0E07
3E1F
7E3F
FC7E
F87C
F078
C060
8040
ENDCHAR
STARTCHAR 00BC
ENCODING 188
SWIDTH 836 0
DWIDTH 36 0
BBX 34 32 1 -1
BITMAP
000000F000
038001E000
078001C000
1F8003C000
FF80078000
FF80078000
FF800F0000
07800E0000
07801E0000
07801C0000
07803C0000
0780780000
0780780000
0780F01F00
0780E03F00
0781E07F00
0781C07F00
0783C0EF00
078781EF00
000781CF00
000F038F00
000E038F00
001E070F00
003C0E0F00
003C0FFFC0
00780FFFC0
00700FFFC0
00F0000F00
00E0000F00
01E0000F00
03C0000F00
03C0000F00
ENDCHAR
STARTCHAR 00BD
ENCODING 189
SWIDTH 836 0
DWIDTH 36 0
BBX 35 31 1 -1
BITMAP
038001E000
078003C000
0F8003C000
FF80078000
FF80078000
FF800F0000
07800E0000
07801E0000
07803C0000
07803C0000
0780780000
0780700000
0780F07F00
0780E1FF80
0781E3FFC0
0783C3C3C0
0783C3C3E0
07878381E0
00070781E0
000F0003C0
001E0007C0
001E000F80
003C001F00
0038007E00
007800F800
007001F000
00F003E000
01E003FFE0
01E003FFE0
03C007FFE0
038007FFE0
ENDCHAR
STARTCHAR 00BE
ENCODING 190
SWIDTH 836 0
DWIDTH 36 0
BBX 34 32 1 -1
BITMAP
0F80007800
3FE000F000
7FF000F000
78F801E000
F0F801C000
F07803C000
00F0038000
00F0078000
07E00F0000
07E00F0000
07F01E0000
00F81C0000
00783C0000
F078381F00
F078783F00
F8F8F03F00
7FF0F07F00
7FF1E0EF00
1FC1C0EF00
0003C1CF00
0003838F00
0007838F00
000F070F00
000F0F0F00
001E0FFFC0
001C0FFFC0
003C0FFFC0
0038000F00
0078000F00
00F0000F00
00F0000F00
01E0000000
ENDCHAR
STARTCHAR 00BF
ENCODING 191
SWIDTH 603 0
DWIDTH 26 0
BBX 21 33 2 -9
BITMAP
00FC00
00FC00
00FC00
00FC00
00FC00
00FC00
000000
000000
000000
00FC00
00FC00
00F800
01F800
03F800
07F000
0FF000
1FE000
3FC000
7F0000
7E0000
FE0000
FC00F8
FC00F8
FC01F8
FE01F8
FE01F8
7F03F8
7F87F0
3FFFF0
3FFFE0
1FFFC0
07FF80
01FE00
ENDCHAR
STARTCHAR 00C0
ENCODING 192
SWIDTH 720 0
DWIDTH 31 0
BBX 29 42 1 -1
BITMAP
007C0000
003E0000
001E0000
001F0000
000F0000
00070000
00038000
00000000
00000000
001FE000
001FE000
003FE000
003FF000
003FF000
007FF000
007FF800
007FF800
00FFF800
00FDFC00
00FDFC00
01FCFC00
01F8FE00
01F8FE00
03F87E00
03F07F00
03F07F00
07F03F00
07E03F80
07E03F80
0FE01F80
0FFFFF80
0FFFFFC0
1FFFFFC0
1FFFFFC0
1FFFFFE0
3F8007E0
3F0007E0
3F0007F0
7F0003F0
7E0003F0
7E0003F8
FE0003F8
ENDCHAR
STARTCHAR 00C1
ENCODING 193
SWIDTH 720 0
DWIDTH 31 0
BBX 29 42 1 -1
BITMAP
0001F800
0001F000
0003E000
0003C000
00078000
00070000
00070000
00000000
00000000
001FE000
001FE000
003FE000
003FF000
003FF000
007FF000
007FF800
007FF800
00FFF800
00FDFC00
00FDFC00
01FCFC00
01F8FE00
01F8FE00
03F87E00
03F07F00
03F07F00
07F03F00
07E03F80
07E03F80
0FE01F80
0FFFFF80
0FFFFFC0
1FFFFFC0
1FFFFFC0
1FFFFFE0
3F8007E0
3F0007E0
3F0007F0
7F0003F0
7E0003F0
7E0003F8
FE0003F8
ENDCHAR
STARTCHAR 00C2
ENCODING 194
SWIDTH 720 0
DWIDTH 31 0
BBX 29 42 1 -1
BITMAP
000F8000
001FC000
001DE000
003CE000
00787000
00707800
00E03800
00000000
00000000
001FE000
001FE000
003FE000
003FF000
003FF000
007FF000
007FF800
007FF800
00FFF800
00FDFC00
00FDFC00
01FCFC00
01F8FE00
01F8FE00
03F87E00
03F07F00
03F07F00
07F03F00
07E03F80
07E03F80
0FE01F80
0FFFFF80
0FFFFFC0
1FFFFFC0
1FFFFFC0
1FFFFFE0
3F8007E0
3F0007E0
3F0007F0
7F0003F0
7E0003F0
7E0003F8
FE0003F8
ENDCHAR
STARTCHAR 00C3
ENCODING 195
SWIDTH 720 0
DWIDTH 31 0
BBX 29 41 1 -1
BITMAP
007C0C00
00FFDC00
00FFFC00
00E3F800
01C0F000
00000000
00000000
00000000
001FE000
001FE000
003FE000
003FF000
003FF000
007FF000
007FF800
007FF800
00FFF800
00FDFC00
00FDFC00
01FCFC00
01F8FE00
01F8FE00
03F87E00
03F07F00
03F07F00
07F03F00
07E03F80
07E03F80
0FE01F80
0FFFFF80
0FFFFFC0
1FFFFFC0
1FFFFFC0
1FFFFFE0
3F8007E0
3F0007E0
3F0007F0
7F0003F0
7E0003F0
7E0003F8
FE0003F8
ENDCHAR
STARTCHAR 00C4
ENCODING 196
SWIDTH 720 0
DWIDTH 31 0
BBX 29 41 1 -1
BITMAP
00F8F800
00F8F800
00F8F800
00F8F800
00F8F800
00000000
00000000
00000000
001FE000
001FE000
003FE000
003FF000
003FF000
007FF000
007FF800
007FF800
00FFF800
00FDFC00
00FDFC00
01FCFC00
01F8FE00
01F8FE00
03F87E00
03F07F00
03F07F00
07F03F00
07E03F80
07E03F80
0FE01F80
0FFFFF80
0FFFFFC0
1FFFFFC0
1FFFFFC0
1FFFFFE0
3F8007E0
3F0007E0
3F0007F0
7F0003F0
7E0003F0
7E0003F8
FE0003F8
ENDCHAR
STARTCHAR 00C5
ENCODING 197
SWIDTH 720 0
DWIDTH 31 0
BBX 29 42 1 -1
BITMAP
00078000
000FC000
0018C000
00186000
0018C000
000FC000
00078000
00000000
00000000
001FE000
001FE000
003FE000
003FF000
003FF000
007FF000
007FF800
007FF800
00FFF800
00FDFC00
00FDFC00
01FCFC00
01F8FE00
01F8FE00
03F87E00
03F07F00
03F07F00
07F03F00
07E03F80
07E03F80
0FE01F80
0FFFFF80
0FFFFFC0
1FFFFFC0
1FFFFFC0
1FFFFFE0
3F8007E0
3F0007E0
3F0007F0
7F0003F0
7E0003F0
7E0003F8
FE0003F8
ENDCHAR
STARTCHAR 00C6
ENCODING 198
SWIDTH 998 0
DWIDTH 43 0
BBX 42 33 0 -1
BITMAP
001FFFFFFF80
001FFFFFFF80
001FFFFFFF80
003FFFFFFF80
003FFFFFFF80
007F1F800000
007E1F800000
007E1F800000
00FE1F800000
00FC1F800000
00FC1F800000
01FC1F800000
01F81F800000
01F81FFFFF00
03F81FFFFF00
03F01FFFFF00
03F01FFFFF00
07F01FFFFF00
07E01F800000
07E01F800000
0FE01F800000
0FFFFF800000
0FFFFF800000
1FFFFF800000
1FFFFF800000
1FFFFF800000
3F801F800000
3F001F800000
3F001FFFFFC0
7F001FFFFFC0
7E001FFFFFC0
7E001FFFFFC0
FE001FFFFFC0
ENDCHAR
STARTCHAR 00C7
ENCODING 199
SWIDTH 720 0
DWIDTH 31 0
BBX 27 41 2 -9
BITMAP
003FC000
00FFF800
03FFFE00
07FFFF00
0FFFFF80
1FFFFFC0
3FE03FC0
3F800FE0
7F000FE0
7F0007E0
7E0007E0
FE000000
FE000000
FE000000
FC000000
FC000000
FC000000
FC000000
FC000000
FE000000
FE000000
FE0007E0
7E0007E0
7F0007E0
7F000FE0
3F800FE0
3FE03FC0
1FFFFFC0
0FFFFF80
07FFFF00
03FFFE00
01FFF800
003FC000
000C0000
000D0000
001FC000
0003E000
0001E000
00C3C000
01FFC000
007F0000
ENDCHAR
STARTCHAR 00C8
ENCODING 200
SWIDTH 673 0
DWIDTH 29 0
BBX 24 42 3 -1
BITMAP
03F000
01F000
00F800
007800
003800
003C00
001C00
000000
000000
FFFFFE
FFFFFE
FFFFFE
FFFFFE
FFFFFE
FE0000
FE0000
FE0000
FE0000
FE0000
FE0000
FE0000
FE0000
FFFFFC
FFFFFC
FFFFFC
FFFFFC
FFFFFC
FE0000
FE0000
FE0000
FE0000
FE0000
FE0000
FE0000
FE0000
FE0000
FE0000
FFFFFF
FFFFFF
FFFFFF
FFFFFF
FFFFFF
ENDCHAR
STARTCHAR 00C9
ENCODING 201
SWIDTH 673 0
DWIDTH 29 0
BBX 24 42 3 -1
BITMAP
000F80
000F00
001F00
001E00
003C00
003800
007000
000000
000000
FFFFFE
FFFFFE
FFFFFE
FFFFFE
FFFFFE
FE0000
FE0000
FE0000
FE0000
FE0000
FE0000
FE0000
FE0000
FFFFFC
FFFFFC
FFFFFC
FFFFFC
FFFFFC
FE0000
FE0000
FE0000
FE0000
FE0000
FE0000
FE0000
FE0000
FE0000
FE0000
FFFFFF
FFFFFF
FFFFFF
FFFFFF
FFFFFF
ENDCHAR
STARTCHAR 00CA
ENCODING 202
SWIDTH 673 0
DWIDTH 29 0
BBX 24 42 3 -1
BITMAP
007E00
007E00
00FF00
01E780
03C380
0383C0
0701E0
000000
000000
FFFFFE
FFFFFE
FFFFFE
FFFFFE
FFFFFE
FE0000
FE0000
FE0000
FE0000
FE0000
FE0000
FE0000
FE0000
FFFFFC
FFFFFC
FFFFFC
FFFFFC
FFFFFC
FE0000
FE0000
FE0000
FE0000
FE0000
FE0000
FE0000
FE0000
FE0000
FE0000
FFFFFF
FFFFFF
FFFFFF
FFFFFF
FFFFFF
ENDCHAR
STARTCHAR 00CB
ENCODING 203
SWIDTH 673 0
DWIDTH 29 0
BBX 24 41 3 -1
BITMAP
07C7C0
07C7C0
07C7C0
07C7C0
07C7C0
000000
000000
000000
FFFFFE
FFFFFE
FFFFFE
FFFFFE
FFFFFE
FE0000
FE0000
FE0000
FE0000
FE0000
FE0000
FE0000
FE0000
FFFFFC
FFFFFC
FFFFFC
FFFFFC
FFFFFC
FE0000
FE0000
FE0000
FE0000
FE0000
FE0000
FE0000
FE0000
FE0000
FE0000
FFFFFF
FFFFFF
FFFFFF
FFFFFF
FFFFFF
ENDCHAR
STARTCHAR 00CC
ENCODING 204
SWIDTH 278 0
DWIDTH 12 0
BBX 9 42 0 -1
BITMAP
F800
7C00
3C00
3E00
1E00
0F00
0700
0000
0000
1F80
1F80
1F80
1F80
1F80
1F80
1F80
1F80
1F80
1F80
1F80
1F80
1F80
1F80
1F80
1F80
1F80
1F80
1F80
1F80
1F80
1F80
1F80
1F80
1F80
1F80
1F80
1F80
1F80
1F80
1F80
1F80
1F80
ENDCHAR
STARTCHAR 00CD
ENCODING 205
SWIDTH 278 0
DWIDTH 12 0
BBX 9 42 3 -1
BITMAP
0F80
1F00
1E00
3E00
3C00
3800
7000
0000
0000
FC00
FC00
FC00
FC00
FC00
FC00
FC00
FC00
FC00
FC00
FC00
FC00
FC00
FC00
FC00
FC00
FC00
FC00
FC00
FC00
FC00
FC00
FC00
FC00
FC00
FC00
FC00
FC00
FC00
FC00
FC00
FC00
FC00
ENDCHAR
STARTCHAR 00CE
ENCODING 206
SWIDTH 278 0
DWIDTH 12 0
BBX 14 42 -1 -1
BITMAP
07C0
0FC0
1FE0
3CF0
3870
7038
E03C
0000
0000
0FC0
0FC0
0FC0
0FC0
0FC0
0FC0
0FC0
0FC0
0FC0
0FC0
0FC0
0FC0
0FC0
0FC0
0FC0
0FC0
0FC0
0FC0
0FC0
0FC0
0FC0
0FC0
0FC0
0FC0
0FC0
0FC0
0FC0
0FC0
0FC0
0FC0
0FC0
0FC0
0FC0
ENDCHAR
STARTCHAR 00CF
ENCODING 207
SWIDTH 278 0
DWIDTH 12 0
BBX 12 41 0 -1
BITMAP
F0F0
F0F0
F0F0
F0F0
F0F0
0000
0000
0000
1F80
1F80
1F80
1F80
1F80
1F80
1F80
1F80
1F80
1F80
1F80
1F80
1F80
1F80
1F80
1F80
1F80
1F80
1F80
1F80
1F80
1F80
1F80
1F80
1F80
1F80
1F80
1F80
1F80
1F80
1F80
1F80
1F80
ENDCHAR
STARTCHAR 00D0
ENCODING 208
SWIDTH 720 0
DWIDTH 31 0
BBX 29 33 0 -1
BITMAP
1FFFF800
1FFFFE00
1FFFFF00
1FFFFF80
1FFFFFC0
1FC07FE0
1FC00FE0
1FC007F0
1FC007F0
1FC003F0
1FC003F8
1FC001F8
1FC001F8
1FC001F8
FFFF01F8
FFFF01F8
FFFF01F8
1FC001F8
1FC001F8
1FC001F8
1FC001F8
1FC001F8
1FC003F8
1FC003F0
1FC003F0
1FC007F0
1FC00FE0
1FC07FE0
1FFFFFC0
1FFFFF80
1FFFFF00
1FFFFE00
1FFFF000
ENDCHAR
STARTCHAR 00D1
ENCODING 209
SWIDTH 720 0
DWIDTH 31 0
BBX 25 41 3 -1
BITMAP
01F03800
03FF7000
03FFF000
038FF000
0703C000
00000000
00000000
00000000
FE001F80
FE001F80
FF001F80
FF001F80
FF801F80
FFC01F80
FFC01F80
FFE01F80
FFE01F80
FFF01F80
FDF01F80
FDF81F80
FCF81F80
FCFC1F80
FC7E1F80
FC7E1F80
FC3F1F80
FC3F1F80
FC1F9F80
FC0F9F80
FC0FDF80
FC07DF80
FC07FF80
FC03FF80
FC03FF80
FC01FF80
FC01FF80
FC00FF80
FC007F80
FC007F80
FC003F80
FC003F80
FC001F80
ENDCHAR
STARTCHAR 00D2
ENCODING 210
SWIDTH 789 0
DWIDTH 34 0
BBX 30 41 2 -1
BITMAP
007E0000
003E0000
001F0000
000F0000
00078000
00038000
00000000
00000000
001FE000
00FFFC00
03FFFE00
07FFFF80
0FFFFFC0
1FFFFFE0
1FE01FE0
3F800FF0
7F8007F0
7F0003F8
7E0003F8
FE0001F8
FE0001FC
FC0001FC
FC0001FC
FC0001FC
FC0001FC
FC0001FC
FC0001FC
FC0001FC
FE0001FC
FE0001F8
7E0003F8
7F0003F8
7F8007F0
3FC00FF0
3FE01FE0
1FFFFFE0
0FFFFFC0
07FFFF80
03FFFE00
00FFFC00
001FE000
ENDCHAR
STARTCHAR 00D3
ENCODING 211
SWIDTH 789 0
DWIDTH 34 0
BBX 30 41 2 -1
BITMAP
0001F000
0001E000
0003C000
0003C000
00078000
00070000
00000000
00000000
001FE000
00FFFC00
03FFFE00
07FFFF80
0FFFFFC0
1FFFFFE0
1FE01FE0
3F800FF0
7F8007F0
7F0003F8
7E0003F8
FE0001F8
FE0001FC
FC0001FC
FC0001FC
FC0001FC
FC0001FC
FC0001FC
FC0001FC
FC0001FC
FE0001FC
FE0001F8
7E0003F8
7F0003F8
7F8007F0
3FC00FF0
3FE01FE0
1FFFFFE0
0FFFFFC0
07FFFF80
03FFFE00
00FFFC00
001FE000
ENDCHAR
STARTCHAR 00D4
ENCODING 212
SWIDTH 789 0
DWIDTH 34 0
BBX 30 41 2 -1
BITMAP
000FC000
001FE000
001DE000
0038F000
00787800
00F03800
00000000
00000000
001FE000
00FFFC00
03FFFE00
07FFFF80
0FFFFFC0
1FFFFFE0
1FE01FE0
3F800FF0
7F8007F0
7F0003F8
7E0003F8
FE0001F8
FE0001FC
FC0001FC
FC0001FC
FC0001FC
FC0001FC
FC0001FC
FC0001FC
FC0001FC
FE0001FC
FE0001F8
7E0003F8
7F0003F8
7F8007F0
3FC00FF0
3FE01FE0
1FFFFFE0
0FFFFFC0
07FFFF80
03FFFE00
00FFFC00
001FE000
ENDCHAR
STARTCHAR 00D5
ENCODING 213
SWIDTH 789 0
DWIDTH 34 0
BBX 30 41 2 -1
BITMAP
003C0E00
007F0E00
00FFFC00
00FFFC00
00C0F800
00000000
00000000
00000000
001FE000
00FFFC00
03FFFE00
07FFFF80
0FFFFFC0
1FFFFFE0
1FE01FE0
3F800FF0
7F8007F0
7F0003F8
7E0003F8
FE0001F8
FE0001FC
FC0001FC
FC0001FC
FC0001FC
FC0001FC
FC0001FC
FC0001FC
FC0001FC
FE0001FC
FE0001F8
7E0003F8
7F0003F8
7F8007F0
3FC00FF0
3FE01FE0
1FFFFFE0
0FFFFFC0
07FFFF80
03FFFE00
00FFFC00
001FE000
ENDCHAR
STARTCHAR 00D6
ENCODING 214
SWIDTH 789 0
DWIDTH 34 0
BBX 30 41 2 -1
BITMAP
00F8F800
00F8F800
00F8F800
00F8F800
00F8F800
00000000
00000000
00000000
001FE000
00FFFC00
03FFFE00
07FFFF80
0FFFFFC0
1FFFFFE0
1FE01FE0
3F800FF0
7F8007F0
7F0003F8
7E0003F8
FE0001F8
FE0001FC
FC0001FC
FC0001FC
FC0001FC
FC0001FC
FC0001FC
FC0001FC
FC0001FC
FE0001FC
FE0001F8
7E0003F8
7F0003F8
7F8007F0
3FC00FF0
3FE01FE0
1FFFFFE0
0FFFFFC0
07FFFF80
03FFFE00
00FFFC00
001FE000
ENDCHAR
STARTCHAR 00D7
ENCODING 215
SWIDTH 580 0
DWIDTH 25 0
BBX 19 18 3 1
BITMAP
180100
3C0380
7E07C0
FF0FE0
7F9FC0
3FFF80
1FFF00
0FFE00
07FC00
03FC00
07FE00
0FFF00
1FFF80
3FBFC0
7F1FE0
7E0FC0
3C0780
180300
ENDCHAR
STARTCHAR 00D8
ENCODING 216
SWIDTH 789 0
DWIDTH 34 0
BBX 30 34 2 -2
BITMAP
001FE008
00FFFC1C
03FFFE3C
07FFFF78
0FFFFFF0
1FFFFFE0
3FE01FE0
3F800FF0
7F000FF0
7F001FF8
FE001FF8
FE003DF8
FC0079F8
FC00F1FC
FC01E1FC
FC03C1FC
FC0781FC
FC0F01FC
FC1E01FC
FC3C01FC
FC7801F8
FE7801F8
FEF003F8
7FE003F8
7FC007F0
3F800FF0
3FE01FE0
1FFFFFC0
3FFFFFC0
7FFFFF80
F3FFFE00
F0FFFC00
E03FE000
40000000
ENDCHAR
STARTCHAR 00D9
ENCODING 217
SWIDTH 720 0
DWIDTH 31 0
BBX 25 42 3 -1
BITMAP
01F00000
00F80000
00780000
003C0000
001C0000
001E0000
000E0000
00000000
00000000
FE001F80
FE001F80
FE001F80
FE001F80
FE001F80
FE001F80
FE001F80
FE001F80
FE001F80
FE001F80
FE001F80
FE001F80
FE001F80
FE001F80
FE001F80
FE001F80
FE001F80
FE001F80
FE001F80
FE001F80
FE001F80
FE001F80
FE001F80
FE001F80
FE003F80
7F003F80
7F807F00
3FFFFF00
3FFFFE00
1FFFFC00
0FFFF800
03FFF000
00FF8000
ENDCHAR
STARTCHAR 00DA
ENCODING 218
SWIDTH 720 0
DWIDTH 31 0
BBX 25 42 3 -1
BITMAP
0007C000
0007C000
000F8000
000F0000
001E0000
001C0000
00380000
00000000
00000000
FE001F80
FE001F80
FE001F80
FE001F80
FE001F80
FE001F80
FE001F80
FE001F80
FE001F80
FE001F80
FE001F80
FE001F80
FE001F80
FE001F80
FE001F80
FE001F80
FE001F80
FE001F80
FE001F80
FE001F80
FE001F80
FE001F80
FE001F80
FE001F80
FE003F80
7F003F80
7F807F00
3FFFFF00
3FFFFE00
1FFFFC00
0FFFF800
03FFF000
00FF8000
ENDCHAR
STARTCHAR 00DB
ENCODING 219
SWIDTH 720 0
DWIDTH 31 0
BBX 25 42 3 -1
BITMAP
003E0000
007F0000
00778000
00F38000
01E1C000
01C1E000
0380F000
00000000
00000000
FE001F80
FE001F80
FE001F80
FE001F80
FE001F80
FE001F80
FE001F80
FE001F80
FE001F80
FE001F80
FE001F80
FE001F80
FE001F80
FE001F80
FE001F80
FE001F80
FE001F80
FE001F80
FE001F80
FE001F80
FE001F80
FE001F80
FE001F80
FE001F80
FE003F80
7F003F80
7F807F00
3FFFFF00
3FFFFE00
1FFFFC00
0FFFF800
03FFF000
00FF8000
ENDCHAR
STARTCHAR 00DC
ENCODING 220
SWIDTH 720 0
DWIDTH 31 0
BBX 25 41 3 -1
BITMAP
03E3E000
03E3E000
03E3E000
03E3E000
03E3E000
00000000
00000000
00000000
FE001F80
FE001F80
FE001F80
FE001F80
FE001F80
FE001F80
FE001F80
FE001F80
FE001F80
FE001F80
FE001F80
FE001F80
FE001F80
FE001F80
FE001F80
FE001F80
FE001F80
FE001F80
FE001F80
FE001F80
FE001F80
FE001F80
FE001F80
FE001F80
FE003F80
7F003F80
7F807F00
3FFFFF00
3FFFFE00
1FFFFC00
0FFFF800
03FFF000
00FF8000
ENDCHAR
STARTCHAR 00DD
ENCODING 221
SWIDTH 673 0
DWIDTH 29 0
BBX 27 42 1 -1
BITMAP
0003E000
0003C000
0007C000
00078000
000F0000
000E0000
001C0000
00000000
00000000
FF000FE0
7F001FC0
7F001FC0
3F803F80
3F803F80
1FC07F00
1FC07F00
0FE07E00
0FE0FE00
07F0FC00
07F1FC00
03F1F800
03F9F800
01FBF800
01FFF000
00FFF000
00FFE000
007FE000
007FC000
003FC000
003F8000
001F8000
001F8000
001F8000
001F8000
001F8000
001F8000
001F8000
001F8000
001F8000
001F8000
001F8000
001F8000
ENDCHAR
STARTCHAR 00DE
ENCODING 222
SWIDTH 673 0
DWIDTH 29 0
BBX 24 33 3 -1
BITMAP
FE0000
FE0000
FE0000
FE0000
FE0000
FE0000
FFFFE0
FFFFF8
FFFFFC
FFFFFE
FFFFFE
FE01FF
FE007F
FE007F
FE003F
FE003F
FE003F
FE003F
FE007F
FE007F
FE00FE
FFFFFE
FFFFFC
FFFFFC
FFFFF8
FFFFE0
FE0000
FE0000
FE0000
FE0000
FE0000
FE0000
FE0000
ENDCHAR
STARTCHAR 00DF
ENCODING 223
SWIDTH 603 0
DWIDTH 26 0
BBX 22 33 3 -1
BITMAP
03FC00
0FFF00
3FFFC0
7FFFC0
7FFFE0
FE0FF0
FC07F0
FC03F0
FC03F0
FC03F0
FC03F0
FC07E0
FC1FC0
FC7F80
FC7FC0
FC7FE0
FC7FF0
FC07F8
FC03F8
FC01FC
FC00FC
FC00FC
FC00FC
FC00FC
FC01FC
FC01F8
FC03F8
FC0FF8
FC7FF0
FC7FF0
FC7FE0
FC7F80
FC7E00
ENDCHAR
STARTCHAR 00E0
ENCODING 224
SWIDTH 557 0
DWIDTH 24 0
BBX 22 34 1 -1
BITMAP
07C000
03E000
03E000
01F000
00F000
007000
003800
000000
000000
01FE00
0FFF80
1FFFE0
3FFFE0
3FFFF0
7F07F0
7E03F0
7E03F0
0003F0
000FF0
01FFF0
0FFFF0
3FFFF0
7FFBF0
7F03F0
7E03F0
FC03F0
FC03F0
FC07F0
FE0FF0
7FFFF0
7FFFF0
3FFBF8
1FF3FC
0FC1FC
ENDCHAR
STARTCHAR 00E1
ENCODING 225
SWIDTH 557 0
DWIDTH 24 0
BBX 22 34 1 -1
BITMAP
001F80
001F00
003E00
003C00
007800
007000
00F000
000000
000000
01FE00
0FFF80
1FFFE0
3FFFE0
3FFFF0
7F07F0
7E03F0
7E03F0
0003F0
000FF0
01FFF0
0FFFF0
3FFFF0
7FFBF0
7F03F0
7E03F0
FC03F0
FC03F0
FC07F0
FE0FF0
7FFFF0
7FFFF0
3FFBF8
1FF3FC
0FC1FC
ENDCHAR
STARTCHAR 00E2
ENCODING 226
SWIDTH 557 0
DWIDTH 24 0
BBX 22 34 1 -1
BITMAP
00F800
00FC00
01FE00
03DE00
038F00
070780
0E0380
000000
000000
01FE00
0FFF80
1FFFE0
3FFFE0
3FFFF0
7F07F0
7E03F0
7E03F0
0003F0
000FF0
01FFF0
0FFFF0
3FFFF0
7FFBF0
7F03F0
7E03F0
FC03F0
FC03F0
FC07F0
FE0FF0
7FFFF0
7FFFF0
3FFBF8
1FF3FC
0FC1FC
ENDCHAR
STARTCHAR 00E3
ENCODING 227
SWIDTH 557 0
DWIDTH 24 0
BBX 22 34 1 -1
BITMAP
0780C0
0FF1C0
0FFFC0
1EFFC0
1C1F80
000000
000000
000000
000000
01FE00
0FFF80
1FFFE0
3FFFE0
3FFFF0
7F07F0
7E03F0
7E03F0
0003F0
000FF0
01FFF0
0FFFF0
3FFFF0
7FF3F0
7F03F0
7E03F0
FC03F0
FC03F0
FE07F0
FE0FF0
7FFFF0
7FFFF0
3FFBF8
1FF3FC
0FC1FC
ENDCHAR
STARTCHAR 00E4
ENCODING 228
SWIDTH 557 0
DWIDTH 24 0
BBX 22 33 1 -1
BITMAP
0F8F80
0F8F80
0F8F80
0F8F80
0F8F80
000000
000000
000000
01FE00
0FFF80
1FFFE0
3FFFE0
3FFFF0
7F07F0
7E03F0
7E03F0
0003F0
000FF0
01FFF0
0FFFF0
3FFFF0
7FFBF0
7F03F0
7E03F0
FC03F0
FC03F0
FC07F0
FE0FF0
7FFFF0
7FFFF0
3FFBF8
1FF3FC
0FC1FC
ENDCHAR
STARTCHAR 00E5
ENCODING 229
SWIDTH 557 0
DWIDTH 24 0
BBX 22 34 1 -1
BITMAP
007800
00FC00
018C00
018600
018C00
00FC00
007800
000000
000000
01FE00
0FFF80
1FFFE0
3FFFE0
3FFFF0
7F07F0
7E03F0
7E03F0
0003F0
000FF0
01FFF0
0FFFF0
3FFFF0
7FF3F0
7F03F0
7E03F0
FC03F0
FC03F0
FC07F0
FE0FF0
7FFFF0
7FFFF0
3FFBF8
1FF3FC
0FC1FC
ENDCHAR
STARTCHAR 00E6
ENCODING 230
SWIDTH 882 0
DWIDTH 38 0
BBX 36 25 1 -1
BITMAP
01FE07F000
0FFF9FFE00
1FFFFFFF00
3FFFFFFF80
3FFFFFFFC0
7F07FC0FC0
7E03F807E0
7E03F807E0
0003F807E0
000FF003F0
03FFFFFFF0
0FFFFFFFF0
3FFFFFFFF0
7FF3FFFFF0
7F03F00000
FE03F00000
FC03F00000
FC03F803F0
FC07F807E0
FE0FFC0FE0
7FFFFFFFC0
7FFE7FFF80
3FFC3FFF00
1FF81FFE00
0FE007F000
ENDCHAR
STARTCHAR 00E7
ENCODING 231
SWIDTH 557 0
DWIDTH 24 0
BBX 21 33 1 -9
BITMAP
00FE00
03FF80
0FFFE0
1FFFF0
3FFFF0
3F83F8
7F01F8
7E01F8
7E00F8
7E0000
7E0000
FE0000
FC0000
FE0000
7E0000
7E0000
7E00F8
7E01F8
7F01F8
3F83F8
3FFFF0
1FFFE0
0FFFC0
07FF80
00FC00
006000
006C00
00FE00
000F00
000F00
061F00
07FE00
03FC00
ENDCHAR
STARTCHAR 00E8
ENCODING 232
SWIDTH 557 0
DWIDTH 24 0
BBX 22 34 1 -1
BITMAP
07C000
03E000
01E000
00F000
00F000
007800
003800
000000
000000
01FC00
07FF00
0FFFC0
1FFFE0
3FFFF0
3F07F0
7E03F8
7E01F8
FC01F8
FC01F8
FFFFF8
FFFFFC
FFFFFC
FFFFFC
FC0000
FC0000
FC0000
7C01F8
7E01F8
7F03F0
3FFFF0
1FFFE0
0FFFC0
07FF80
01FC00
ENDCHAR
STARTCHAR 00E9
ENCODING 233
SWIDTH 557 0
DWIDTH 24 0
BBX 22 34 1 -1
BITMAP
001F80
001F00
003E00
003C00
003800
007000
007000
000000
000000
01FC00
07FF00
0FFFC0
1FFFE0
3FFFF0
3F07F0
7E03F8
7E01F8
FC01F8
FC01F8
FFFFF8
FFFFFC
FFFFFC
FFFFFC
FC0000
FC0000
FC0000
7C01F8
7E01F8
7F03F0
3FFFF0
1FFFE0
0FFFC0
07FF80
01FC00
ENDCHAR
STARTCHAR 00EA
ENCODING 234
SWIDTH 557 0
DWIDTH 24 0
BBX 22 34 1 -1
BITMAP
007C00
00FC00
01FE00
03CF00
038780
070380
0E03C0
000000
000000
01FC00
07FF00
0FFFC0
1FFFE0
3FFFF0
3F07F0
7E03F8
7E01F8
FC01F8
FC01F8
FFFFF8
FFFFFC
FFFFFC
FFFFFC
FC0000
FC0000
FC0000
7C01F8
7E01F8
7F03F0
3FFFF0
1FFFE0
0FFFC0
07FF80
01FC00
ENDCHAR
STARTCHAR 00EB
ENCODING 235
SWIDTH 557 0
DWIDTH 24 0
BBX 22 33 1 -1
BITMAP
078780
078780
078780
078780
078780
000000
000000
000000
01FC00
07FF00
0FFFC0
1FFFE0
3FFFF0
3F07F0
7E03F8
7E01F8
FC01F8
FC01F8
FFFFF8
FFFFFC
FFFFFC
FFFFFC
FC0000
FC0000
FC0000
7C01F8
7E01F8
7F03F0
3FFFF0
1FFFE0
0FFFC0
07FF80
01FC00
ENDCHAR
STARTCHAR 00EC
ENCODING 236
SWIDTH 278 0
DWIDTH 12 0
BBX 9 34 0 -1
BITMAP
F800
7C00
3C00
1E00
0E00
0F00
0000
0000
0000
1F80
1F80
1F80
1F80
1F80
1F80
1F80
1F80
1F80
1F80
1F80
1F80
1F80
1F80
1F80
1F80
1F80
1F80
1F80
1F80
1F80
1F80
1F80
1F80
1F80
ENDCHAR
STARTCHAR 00ED
ENCODING 237
SWIDTH 278 0
DWIDTH 12 0
BBX 9 34 3 -1
BITMAP
0F80
1F00
1E00
3C00
3800
7800
0000
0000
0000
FC00
FC00
FC00
FC00
FC00
FC00
FC00
FC00
FC00
FC00
FC00
FC00
FC00
FC00
FC00
FC00
FC00
FC00
FC00
FC00
FC00
FC00
FC00
FC00
FC00
ENDCHAR
STARTCHAR 00EE
ENCODING 238
SWIDTH 278 0
DWIDTH 12 0
BBX 12 34 0 -1
BITMAP
1F80
3FC0
39C0
79E0
F0F0
E070
0000
0000
0000
1F80
1F80
1F80
1F80
1F80
1F80
1F80
1F80
1F80
1F80
1F80
1F80
1F80
1F80
1F80
1F80
1F80
1F80
1F80
1F80
1F80
1F80
1F80
1F80
1F80
ENDCHAR
STARTCHAR 00EF
ENCODING 239
SWIDTH 278 0
DWIDTH 12 0
BBX 12 34 0 -1
BITMAP
F0F0
F0F0
F0F0
F0F0
F0F0
0000
0000
0000
0000
1F80
1F80
1F80
1F80
1F80
1F80
1F80
1F80
1F80
1F80
1F80
1F80
1F80
1F80
1F80
1F80
1F80
1F80
1F80
1F80
1F80
1F80
1F80
1F80
1F80
ENDCHAR
STARTCHAR 00F0
ENCODING 240
SWIDTH 603 0
DWIDTH 26 0
BBX 23 33 2 -1
BITMAP
020200
0F8F80
0FFE00
03F800
01FC00
07FF00
071F80
000FC0
0007E0
01FFE0
07FFF0
1FFFF8
3FFFF8
7FFFF8
7F03FC
FE01FC
FC00FC
FC00FC
FC00FC
FC00FE
FC00FE
FC00FC
FC00FC
FC00FC
FC00FC
FE01FC
7E01F8
7F83F8
3FFFF0
3FFFF0
1FFFE0
07FF80
01FE00
ENDCHAR
STARTCHAR 00F1
ENCODING 241
SWIDTH 603 0
DWIDTH 26 0
BBX 21 34 3 -1
BITMAP
0701C0
1FE380
1FFF80
1FFF80
383F00
000000
000000
000000
000000
FC3F00
FCFFC0
FDFFE0
FFFFF0
FFFFF0
FF8FF0
FE03F0
FC03F8
FC03F8
FC03F8
FC03F8
FC03F8
FC03F8
FC03F8
FC03F8
FC03F8
FC03F8
FC03F8
FC03F8
FC03F8
FC03F8
FC03F8
FC03F8
FC03F8
FC03F8
ENDCHAR
STARTCHAR 00F2
ENCODING 242
SWIDTH 603 0
DWIDTH 26 0
BBX 23 34 2 -1
BITMAP
07E000
03E000
01F000
00F000
007800
003800
003C00
000000
000000
01FE00
07FF80
1FFFE0
3FFFF0
3FFFF0
7F87F8
7E01FC
FE01FC
FC00FC
FC00FC
FC00FC
FC00FE
FC00FE
FC00FE
FC00FC
FC00FC
FC00FC
FE01FC
7E01F8
7F87F8
3FFFF0
3FFFF0
1FFFE0
07FF80
01FE00
ENDCHAR
STARTCHAR 00F3
ENCODING 243
SWIDTH 603 0
DWIDTH 26 0
BBX 23 34 2 -1
BITMAP
001F80
001F00
003E00
003C00
007800
007000
007000
000000
000000
01FE00
07FF80
1FFFE0
3FFFF0
3FFFF0
7F87F8
7E01FC
FE01FC
FC00FC
FC00FC
FC00FC
FC00FE
FC00FE
FC00FE
FC00FC
FC00FC
FC00FC
FE01FC
7E01F8
7F87F8
3FFFF0
3FFFF0
1FFFE0
07FF80
01FE00
ENDCHAR
STARTCHAR 00F4
ENCODING 244
SWIDTH 603 0
DWIDTH 26 0
BBX 23 34 2 -1
BITMAP
00FC00
00FC00
01FE00
03CF00
038700
070380
0E03C0
000000
000000
01FE00
07FF80
1FFFE0
3FFFF0
3FFFF0
7F87F8
7E01FC
FE01FC
FC00FC
FC00FC
FC00FC
FC00FE
FC00FE
FC00FE
FC00FC
FC00FC
FC00FC
FE01FC
7E01F8
7F87F8
3FFFF0
3FFFF0
1FFFE0
07FF80
01FE00
ENDCHAR
STARTCHAR 00F5
ENCODING 245
SWIDTH 603 0
DWIDTH 26 0
BBX 23 34 2 -1
BITMAP
0380E0
07F0E0
0FFFC0
0FFFC0
0C0F80
000000
000000
000000
000000
01FE00
07FF80
1FFFE0
3FFFF0
3FFFF0
7F87F8
7E01FC
FE01FC
FC00FC
FC00FC
FC00FC
FC00FE
FC00FE
FC00FE
FC00FC
FC00FC
FC00FC
FE01FC
7E01F8
7F87F8
3FFFF0
3FFFF0
1FFFE0
07FF80
01FE00
ENDCHAR
STARTCHAR 00F6
ENCODING 246
SWIDTH 603 0
DWIDTH 26 0
BBX 23 33 2 -1
BITMAP
078780
078780
078780
078780
078780
000000
000000
000000
01FE00
07FF80
1FFFE0
3FFFF0
3FFFF0
7F87F8
7E01FC
FE01FC
FC00FC
FC00FC
FC00FC
FC00FE
FC00FE
FC00FE
FC00FC
FC00FC
FC00FC
FE01FC
7E01F8
7F87F8
3FFFF0
3FFFF0
1FFFE0
07FF80
01FE00
ENDCHAR
STARTCHAR 00F7
ENCODING 247
SWIDTH 580 0
DWIDTH 25 0
BBX 21 21 2 -1
BITMAP
00F800
00F800
00F800
00F800
00F800
000000
000000
000000
FFFFF8
FFFFF8
FFFFF8
FFFFF8
FFFFF8
000000
000000
000000
00F800
00F800
00F800
00F800
00F800
ENDCHAR
STARTCHAR 00F8
ENCODING 248
SWIDTH 603 0
DWIDTH 26 0
BBX 24 25 1 -2
BITMAP
00FF02
03FFC7
07FFEF
1FFFFE
1FFFFC
3FC3FC
3F00FE
7F01FE
7E03FE
7E07FE
7E0F7F
7E1E3F
7E1C3F
7E383F
7E703F
7EE07E
7FC07E
7F80FE
3F80FE
3FC1FC
1FFFFC
3FFFF8
7FFFF0
E3FFC0
C0FF00
ENDCHAR
STARTCHAR 00F9
ENCODING 249
SWIDTH 603 0
DWIDTH 26 0
BBX 21 33 2 -1
BITMAP
07C000
03E000
01E000
00F000
00F000
007800
003800
000000
FE01F8
FE01F8
FE01F8
FE01F8
FE01F8
FE01F8
FE01F8
FE01F8
FE01F8
FE01F8
FE01F8
FE01F8
FE01F8
FE01F8
FE01F8
FE01F8
FE01F8
7E01F8
7E03F8
7F87F8
7FFFF8
3FFFF8
3FFDF8
1FF9F8
07E1F8
ENDCHAR
STARTCHAR 00FA
ENCODING 250
SWIDTH 603 0
DWIDTH 26 0
BBX 21 33 2 -1
BITMAP
001F80
001F00
003E00
003C00
003800
007800
007000
000000
FE01F8
FE01F8
FE01F8
FE01F8
FE01F8
FE01F8
FE01F8
FE01F8
FE01F8
FE01F8
FE01F8
FE01F8
FE01F8
FE01F8
FE01F8
FE01F8
FE01F8
7E01F8
7E03F8
7F87F8
7FFFF8
3FFFF8
3FFDF8
1FF9F8
07E1F8
ENDCHAR
STARTCHAR 00FB
ENCODING 251
SWIDTH 603 0
DWIDTH 26 0
BBX 21 33 2 -1
BITMAP
007800
00FC00
01FE00
03CE00
038F00
070780
0F0380
000000
FE01F8
FE01F8
FE01F8
FE01F8
FE01F8
FE01F8
FE01F8
FE01F8
FE01F8
FE01F8
FE01F8
FE01F8
FE01F8
FE01F8
FE01F8
FE01F8
FE01F8
7E01F8
7E03F8
7F87F8
7FFFF8
3FFFF8
3FFDF8
1FF9F8
07E1F8
ENDCHAR
STARTCHAR 00FC
ENCODING 252
SWIDTH 603 0
DWIDTH 26 0
BBX 21 34 2 -1
BITMAP
0F8F80
0F8F80
0F8F80
0F8F80
0F8F80
000000
000000
000000
000000
FE01F8
FE01F8
FE01F8
FE01F8
FE01F8
FE01F8
FE01F8
FE01F8
FE01F8
FE01F8
FE01F8
FE01F8
FE01F8
FE01F8
FE01F8
FE01F8
FE01F8
7E01F8
7E03F8
7F87F8
7FFFF8
3FFFF8
3FFDF8
1FF9F8
07E1F8
ENDCHAR
STARTCHAR 00FD
ENCODING 253
SWIDTH 557 0
DWIDTH 24 0
BBX 22 42 1 -9
BITMAP
001F00
003E00
003C00
003C00
007800
007000
000000
000000
000000
FC00FC
FC00FC
FE01F8
7E01F8
7E01F8
7F03F0
3F03F0
3F03F0
3F83E0
1F87E0
1F87E0
1F87C0
0FCFC0
0FCFC0
0FCF80
07EF80
07FF80
07FF00
03FF00
03FF00
03FE00
01FE00
01FE00
00FC00
00FC00
00FC00
00F800
01F800
03F800
1FF000
1FF000
1FE000
1FC000
ENDCHAR
STARTCHAR 00FE
ENCODING 254
SWIDTH 603 0
DWIDTH 26 0
BBX 23 41 2 -9
BITMAP
FE0000
FE0000
FE0000
FE0000
FE0000
FE0000
FE0000
FE0000
FE3F00
FEFFC0
FFFFE0
FFFFF0
FFFFF8
FFC7F8
FF01FC
FF00FC
FE00FC
FE00FC
FE007E
FE007E
FE007E
FE007E
FE007E
FE00FC
FE00FC
FF00FC
FF01FC
FFC3F8
FFFFF8
FFFFF0
FFFFE0
FEFFC0
FE3F00
FE0000
FE0000
FE0000
FE0000
FE0000
FE0000
FE0000
FE0000
ENDCHAR
STARTCHAR 00FF
ENCODING 255
SWIDTH 557 0
DWIDTH 24 0
BBX 22 42 1 -9
BITMAP
0F8F80
0F8F80
0F8F80
0F8F80
0F8F80
000000
000000
000000
000000
FC00FC
FC00FC
FE01F8
7E01F8
7E01F8
7F03F0
3F03F0
3F03F0
3F83E0
1F87E0
1F87E0
1F87C0
0FCFC0
0FCFC0
0FCF80
07EF80
07FF80
07FF00
03FF00
03FF00
03FE00
01FE00
01FE00
00FC00
00FC00
00FC00
00F800
01F800
03F800
1FF000
1FF000
1FE000
1FC000
ENDCHAR
STARTCHAR 0100
ENCODING 256
SWIDTH 720 0
DWIDTH 31 0
BBX 29 40 1 -1
BITMAP
00FFF800
00FFF800
00FFF800
00000000
00000000
00000000
00000000
001FE000
001FE000
003FE000
003FF000
003FF000
007FF000
007FF800
007FF800
00FFF800
00FDFC00
00FDFC00
01FCFC00
01F8FE00
01F8FE00
03F87E00
03F07F00
03F07F00
07F03F00
07E03F80
07E03F80
0FE01F80
0FFFFF80
0FFFFFC0
1FFFFFC0
1FFFFFC0
1FFFFFE0
3F8007E0
3F0007E0
3F0007F0
7F0003F0
7E0003F0
7E0003F8
FE0003F8
ENDCHAR
STARTCHAR 0101
ENCODING 257
SWIDTH 557 0
DWIDTH 24 0
BBX 22 32 1 -1
BITMAP
0FFF80
0FFF80
0FFF80
000000
000000
000000
000000
01FE00
0FFF80
1FFFE0
3FFFE0
3FFFF0
7F07F0
7E03F0
7E03F0
0003F0
000FF0
01FFF0
0FFFF0
3FFFF0
7FFBF0
7F03F0
7E03F0
FC03F0
FC03F0
FC07F0
FE0FF0
7FFFF0
7FFFF0
3FFBF8
1FF3FC
0FC1FC
ENDCHAR
STARTCHAR 0102
ENCODING 258
SWIDTH 720 0
DWIDTH 31 0
BBX 29 42 1 -1
BITMAP
00603000
00707000
00787000
003FF000
003FE000
001FC000
00000000
00000000
00000000
001FE000
001FE000
003FE000
003FF000
003FF000
007FF000
007FF800
007FF800
00FFF800
00FDFC00
00FDFC00
01FCFC00
01F8FE00
01F8FE00
03F87E00
03F07F00
03F07F00
07F03F00
07E03F80
07E03F80
0FE01F80
0FFFFF80
0FFFFFC0
1FFFFFC0
1FFFFFC0
1FFFFFE0
3F8007E0
3F0007E0
3F0007F0
7F0003F0
7E0003F0
7E0003F8
FE0003F8
ENDCHAR
STARTCHAR 0103
ENCODING 259
SWIDTH 557 0
DWIDTH 24 0
BBX 22 34 1 -1
BITMAP
070380
070300
078700
03FF00
01FE00
00FC00
000000
000000
000000
01FE00
0FFF80
1FFFE0
3FFFE0
3FFFF0
7F07F0
7E03F0
7E03F0
0003F0
000FF0
01FFF0
0FFFF0
3FFFF0
7FF3F0
7F03F0
7E03F0
FC03F0
FC03F0
FE07F0
FE0FF0
7FFFF0
7FFFF0
3FFBF8
1FF3FC
0FC1FC
ENDCHAR
STARTCHAR 0104
ENCODING 260
SWIDTH 720 0
DWIDTH 31 0
BBX 30 43 1 -11
BITMAP
001FE000
001FE000
003FE000
003FF000
003FF000
007FF000
007FF800
007FF800
00FFF800
00FDFC00
00FDFC00
01FCFC00
01F8FE00
01F8FE00
03F87E00
03F07F00
03F07F00
07F03F00
07E03F80
07E03F80
0FE01F80
0FFFFF80
0FFFFFC0
1FFFFFC0
1FFFFFC0
1FFFFFE0
3F8007E0
3F0007E0
3F0007F0
7F0003F0
7E0003F0
7E0003F8
FE0003F8
00000070
000001E0
000003C0
00000780
00000780
00000700
00000780
000007C0
000003FC
000001FC
ENDCHAR
STARTCHAR 0105
ENCODING 261
SWIDTH 557 0
DWIDTH 24 0
BBX 23 34 1 -10
BITMAP
01FE00
0FFF80
1FFFE0
3FFFE0
3FFFF0
7F07F0
7E03F0
7E03F0
0003F0
000FF0
01FFF0
0FFFF0
3FFFF0
7FFBF0
7F03F0
7E03F0
FC03F0
FC03F0
FC07F0
FE0FF0
7FFFF0
7FFFF0
3FFBF8
1FF3FC
0FC1FC
000078
0001E0
0003C0
000780
000780
000780
0007C0
0003FE
0000FE
ENDCHAR
STARTCHAR 0106
ENCODING 262
SWIDTH 720 0
DWIDTH 31 0
BBX 27 41 2 -1
BITMAP
0003E000
0003C000
0007C000
00078000
000F0000
000E0000
00000000
00000000
003FC000
00FFF800
03FFFE00
07FFFF00
0FFFFF80
1FFFFFC0
3FE03FC0
3F800FE0
7F000FE0
7F0007E0
7E0007E0
FE000000
FE000000
FE000000
FC000000
FC000000
FC000000
FC000000
FC000000
FE000000
FE000000
FE0007E0
7E0007E0
7F0007E0
7F000FE0
3F800FE0
3FC03FC0
1FFDFFC0
0FFFFF80
07FFFF00
03FFFE00
01FFF800
003FC000
ENDCHAR
STARTCHAR 0107
ENCODING 263
SWIDTH 557 0
DWIDTH 24 0
BBX 21 34 1 -1
BITMAP
000F80
001F00
001E00
003C00
003C00
007800
007000
000000
000000
00FE00
03FF80
0FFFE0
1FFFF0
3FFFF0
3F83F8
3F01F8
7E01F8
7E00F8
7E0000
7E0000
FE0000
FC0000
FE0000
7E0000
7E0000
7E00F8
7E01F8
7F01F8
3F83F8
3FFFF0
1FFFE0
0FFFC0
07FF80
00FE00
ENDCHAR
STARTCHAR 0108
ENCODING 264
SWIDTH 720 0
DWIDTH 31 0
BBX 27 41 2 -1
BITMAP
001F8000
003FC000
0039C000
0079E000
00F0F000
00E07000
00000000
00000000
003FC000
00FFF800
03FFFE00
07FFFF00
0FFFFF80
1FFFFFC0
3FE03FC0
3F800FE0
7F000FE0
7F0007E0
7E0007E0
FE000000
FE000000
FE000000
FC000000
FC000000
FC000000
FC000000
FC000000
FE000000
FE000000
FE0007E0
7E0007E0
7F0007E0
7F000FE0
3F800FE0
3FC03FC0
1FFDFFC0
0FFFFF80
07FFFF00
03FFFE00
01FFF800
003FC000
ENDCHAR
STARTCHAR 0109
ENCODING 265
SWIDTH 557 0
DWIDTH 24 0
BBX 21 34 1 -1
BITMAP
00FC00
00FC00
01FE00
03CF00
038700
070380
0E03C0
000000
000000
00FE00
03FF80
0FFFE0
1FFFF0
3FFFF0
3F83F8
3F01F8
7E01F8
7E00F8
7E0000
7E0000
FE0000
FC0000
FE0000
7E0000
7E0000
7E00F8
7E01F8
7F01F8
3F83F8
3FFFF0
1FFFE0
0FFFC0
07FF80
00FE00
ENDCHAR
STARTCHAR 010A
ENCODING 266
SWIDTH 720 0
DWIDTH 31 0
BBX 27 41 2 -1
BITMAP
001F0000
001F0000
001F0000
001F0000
001F0000
00000000
00000000
00000000
003FC000
00FFF800
03FFFE00
07FFFF00
0FFFFF80
1FFFFFC0
3FE03FC0
3F800FE0
7F000FE0
7F0007E0
7E0007E0
FE000000
FE000000
FE000000
FC000000
FC000000
FC000000
FC000000
FC000000
FE000000
FE000000
FE0007E0
7E0007E0
7F0007E0
7F000FE0
3F800FE0
3FC03FC0
1FFDFFC0
0FFFFF80
07FFFF00
03FFFE00
01FFF800
003FC000
ENDCHAR
STARTCHAR 010B
ENCODING 267
SWIDTH 557 0
DWIDTH 24 0
BBX 21 33 1 -1
BITMAP
007C00
007C00
007C00
007C00
007C00
000000
000000
000000
00FE00
03FF80
0FFFE0
1FFFF0
3FFFF0
3F83F8
3F01F8
7E01F8
7E00F8
7E0000
7E0000
FE0000
FC0000
FE0000
7E0000
7E0000
7E00F8
7E01F8
7F01F8
3F83F8
3FFFF0
1FFFE0
0FFFC0
07FF80
00FE00
ENDCHAR
STARTCHAR 010C
ENCODING 268
SWIDTH 720 0
DWIDTH 31 0
BBX 27 41 2 -1
BITMAP
00E07800
0070F000
0079E000
003FC000
001FC000
001F8000
00000000
00000000
003FC000
00FFF800
03FFFE00
07FFFF00
0FFFFF80
1FFFFFC0
3FE03FC0
3F800FE0
7F000FE0
7F0007E0
7E0007E0
FE000000
FE000000
FE000000
FC000000
FC000000
FC000000
FC000000
FC000000
FE000000
FE000000
FE0007E0
7E0007E0
7F0007E0
7F000FE0
3F800FE0
3FC03FC0
1FFDFFC0
0FFFFF80
07FFFF00
03FFFE00
01FFF800
003FC000
ENDCHAR
STARTCHAR 010D
ENCODING 269
SWIDTH 557 0
DWIDTH 24 0
BBX 21 34 1 -1
BITMAP
0701C0
038380
03C780
01EF00
00FE00
00FC00
007C00
000000
000000
00FE00
03FF80
0FFFE0
1FFFF0
3FFFF0
3F83F8
3F01F8
7E01F8
7E00F8
7E0000
7E0000
FE0000
FC0000
FE0000
7E0000
7E0000
7E00F8
7E01F8
7F01F8
3F83F8
3FFFF0
1FFFE0
0FFFC0
07FF80
00FE00
ENDCHAR
STARTCHAR 010E
ENCODING 270
SWIDTH 720 0
DWIDTH 31 0
BBX 26 42 3 -1
BITMAP
0701C000
03838000
03C78000
01EF0000
00FE0000
00FE0000
007C0000
00000000
00000000
FFFF8000
FFFFF000
FFFFF800
FFFFFC00
FFFFFE00
FE03FF00
FE00FF00
FE003F80
FE003F80
FE001F80
FE001FC0
FE001FC0
FE000FC0
FE000FC0
FE000FC0
FE000FC0
FE000FC0
FE000FC0
FE000FC0
FE000FC0
FE000FC0
FE001FC0
FE001FC0
FE001F80
FE003F80
FE003F80
FE007F00
FE03FF00
FFFFFE00
FFFFFC00
FFFFF800
FFFFF000
FFFF8000
ENDCHAR
STARTCHAR 010F
ENCODING 271
SWIDTH 743 0
DWIDTH 32 0
BBX 30 33 1 -1
BITMAP
00007E7C
00007E7C
00007E7C
00007E7C
00007E7C
00007E0C
00007E0C
00007E1C
01F87E38
07FE7E70
0FFF7E60
1FFFFE00
1FFFFE00
3FC7FE00
3F01FE00
7F01FE00
7E00FE00
7E00FE00
7E00FE00
FC00FE00
FC00FE00
FC007E00
FE00FE00
7E00FE00
7E00FE00
7F01FE00
7F01FE00
3FC7FE00
3FFFFE00
3FFFFE00
1FFF7E00
07FE7E00
01F87E00
ENDCHAR
STARTCHAR 0110
ENCODING 272
SWIDTH 720 0
DWIDTH 31 0
BBX 29 33 0 -1
BITMAP
1FFFF800
1FFFFE00
1FFFFF00
1FFFFF80
1FFFFFC0
1FC07FE0
1FC00FE0
1FC007F0
1FC007F0
1FC003F0
1FC003F8
1FC001F8
1FC001F8
1FC001F8
FFFF01F8
FFFF01F8
FFFF01F8
1FC001F8
1FC001F8
1FC001F8
1FC001F8
1FC001F8
1FC003F8
1FC003F0
1FC003F0
1FC007F0
1FC00FE0
1FC07FE0
1FFFFFC0
1FFFFF80
1FFFFF00
1FFFFE00
1FFFF000
ENDCHAR
STARTCHAR 0111
ENCODING 273
SWIDTH 603 0
DWIDTH 26 0
BBX 25 33 1 -1
BITMAP
0000FC00
0000FC00
0000FC00
001FFF80
001FFF80
001FFF80
0000FC00
0000FC00
01F8FC00
07FEFC00
0FFFFC00
1FFFFC00
3FFFFC00
3F87FC00
7F03FC00
7E01FC00
7E00FC00
7E00FC00
FC00FC00
FC00FC00
FC00FC00
FC00FC00
FC00FC00
7E00FC00
7E00FC00
7E01FC00
7F01FC00
3FC7FC00
3FFFFC00
1FFFFC00
0FFFFC00
07FEFC00
01F8FC00
ENDCHAR
STARTCHAR 0112
ENCODING 274
SWIDTH 673 0
DWIDTH 29 0
BBX 24 40 3 -1
BITMAP
07FFC0
07FFC0
07FFC0
000000
000000
000000
000000
FFFFFE
FFFFFE
FFFFFE
FFFFFE
FFFFFE
FE0000
FE0000
FE0000
FE0000
FE0000
FE0000
FE0000
FE0000
FFFFFC
FFFFFC
FFFFFC
FFFFFC
FFFFFC
FE0000
FE0000
FE0000
FE0000
FE0000
FE0000
FE0000
FE0000
FE0000
FE0000
FFFFFF
FFFFFF
FFFFFF
FFFFFF
FFFFFF
ENDCHAR
STARTCHAR 0113
ENCODING 275
SWIDTH 557 0
DWIDTH 24 0
BBX 22 32 1 -1
BITMAP
07FFC0
07FFC0
07FFC0
000000
000000
000000
000000
01FC00
07FF00
0FFFC0
1FFFE0
3FFFF0
3F07F0
7E03F8
7E01F8
FC01F8
FC01F8
FFFFF8
FFFFFC
FFFFFC
FFFFFC
FC0000
FC0000
FC0000
7C01F8
7E01F8
7F03F0
3FFFF0
1FFFE0
0FFFC0
07FF80
01FC00
ENDCHAR
STARTCHAR 0114
ENCODING 276
SWIDTH 673 0
DWIDTH 29 0
BBX 24 42 3 -1
BITMAP
038180
038180
03C380
01FF80
00FF00
007E00
000000
000000
000000
FFFFFE
FFFFFE
FFFFFE
FFFFFE
FFFFFE
FE0000
FE0000
FE0000
FE0000
FE0000
FE0000
FE0000
FE0000
FFFFFC
FFFFFC
FFFFFC
FFFFFC
FFFFFC
FE0000
FE0000
FE0000
FE0000
FE0000
FE0000
FE0000
FE0000
FE0000
FE0000
FFFFFF
FFFFFF
FFFFFF
FFFFFF
FFFFFF
ENDCHAR
STARTCHAR 0115
ENCODING 277
SWIDTH 557 0
DWIDTH 24 0
BBX 22 34 1 -1
BITMAP
070380
070380
038700
03FF00
01FE00
00FC00
000000
000000
000000
01FC00
07FF00
0FFFC0
1FFFE0
3FFFF0
3F07F0
7E03F8
7E01F8
FC01F8
FC01F8
FFFFF8
FFFFFC
FFFFFC
FFFFFC
FC0000
FC0000
FC0000
7C01F8
7E01F8
7F03F0
3FFFF0
1FFFE0
0FFFC0
07FF80
01FC00
ENDCHAR
STARTCHAR 0116
ENCODING 278
SWIDTH 673 0
DWIDTH 29 0
BBX 24 41 3 -1
BITMAP
007C00
007C00
007C00
007C00
007C00
000000
000000
000000
FFFFFE
FFFFFE
FFFFFE
FFFFFE
FFFFFE
FE0000
FE0000
FE0000
FE0000
FE0000
FE0000
FE0000
FE0000
FFFFFC
FFFFFC
FFFFFC
FFFFFC
FFFFFC
FE0000
FE0000
FE0000
FE0000
FE0000
FE0000
FE0000
FE0000
FE0000
FE0000
FFFFFF
FFFFFF
FFFFFF
FFFFFF
FFFFFF
ENDCHAR
STARTCHAR 0117
ENCODING 279
SWIDTH 557 0
DWIDTH 24 0
BBX 22 33 1 -1
BITMAP
007800
007800
007800
007800
007800
000000
000000
000000
01FC00
07FF00
0FFFC0
1FFFE0
3FFFF0
3F07F0
7E03F8
7E01F8
FC01F8
FC01F8
FFFFF8
FFFFFC
FFFFFC
FFFFFC
FC0000
FC0000
FC0000
7C01F8
7E01F8
7F03F0
3FFFF0
1FFFE0
0FFFC0
07FF80
01FC00
ENDCHAR
STARTCHAR 0118
ENCODING 280
SWIDTH 673 0
DWIDTH 29 0
BBX 25 43 3 -11
BITMAP
FFFFFE00
FFFFFE00
FFFFFE00
FFFFFE00
FFFFFE00
FE000000
FE000000
FE000000
FE000000
FE000000
FE000000
FE000000
FE000000
FFFFFC00
FFFFFC00
FFFFFC00
FFFFFC00
FFFFFC00
FE000000
FE000000
FE000000
FE000000
FE000000
FE000000
FE000000
FE000000
FE000000
FE000000
FFFFFF00
FFFFFF00
FFFFFF00
FFFFFF00
FFFFFF00
00000E00
00003C00
00007800
0000F000
0000E000
0001E000
0001E000
0000F800
0000FF80
00003F80
ENDCHAR
STARTCHAR 0119
ENCODING 281
SWIDTH 557 0
DWIDTH 24 0
BBX 22 34 1 -10
BITMAP
01FC00
07FF00
0FFFC0
1FFFE0
3FFFF0
7F07F0
7E03F8
7E01F8
FC01F8
FC01F8
FFFFF8
FFFFFC
FFFFFC
FFFFFC
FC0000
FC0000
FC0000
7C01F8
7E01F8
7F03F8
3FFFF0
1FFFE0
1FFFC0
07FF80
01FF00
000700
000E00
001C00
003C00
003C00
003C00
003E00
001FF0
0007F0
ENDCHAR
STARTCHAR 011A
ENCODING 282
SWIDTH 673 0
DWIDTH 29 0
BBX 24 42 3 -1
BITMAP
0781C0
03C3C0
01C780
01E700
00FF00
007E00
007C00
000000
000000
FFFFFE
FFFFFE
FFFFFE
FFFFFE
FFFFFE
FE0000
FE0000
FE0000
FE0000
FE0000
FE0000
FE0000
FE0000
FFFFFC
FFFFFC
FFFFFC
FFFFFC
FFFFFC
FE0000
FE0000
FE0000
FE0000
FE0000
FE0000
FE0000
FE0000
FE0000
FE0000
FFFFFF
FFFFFF
FFFFFF
FFFFFF
FFFFFF
ENDCHAR
STARTCHAR 011B
ENCODING 283
SWIDTH 557 0
DWIDTH 24 0
BBX 22 34 1 -1
BITMAP
0703C0
078780
03C700
01CE00
01FE00
00FC00
007800
000000
000000
01FC00
07FF00
0FFFC0
1FFFE0
3FFFF0
3F07F0
7E03F8
7E01F8
FC01F8
FC01F8
FFFFF8
FFFFFC
FFFFFC
FFFFFC
FC0000
FC0000
FC0000
7C01F8
7E01F8
7F03F0
3FFFF0
1FFFE0
0FFFC0
07FF80
01FC00
ENDCHAR
STARTCHAR 011C
ENCODING 284
SWIDTH 789 0
DWIDTH 34 0
BBX 29 41 2 -1
BITMAP
000FC000
001FE000
003DE000
0038F000
00787800
00F03800
00000000
00000000
001FE000
00FFFC00
03FFFF00
07FFFF80
0FFFFFC0
1FFFFFE0
1FE01FE0
3F8007F0
7F8003F0
7F0003F0
7E0001F8
FE000000
FE000000
FE000000
FC000000
FC00FFF8
FC00FFF8
FC00FFF8
FC00FFF8
FE00FFF8
FE0001F8
FE0001F8
7F0001F8
7F0003F8
7F8003F8
3FC007F8
1FE01FF8
1FFFFFF8
0FFFFFF8
07FFFEF8
03FFFCF8
00FFF078
001FC000
ENDCHAR
STARTCHAR 011D
ENCODING 285
SWIDTH 603 0
DWIDTH 26 0
BBX 21 42 2 -9
BITMAP
01F000
03F800
07F800
0F3C00
0E1E00
1C0E00
3C0700
000000
000000
01F1F8
07F9F8
0FFDF8
1FFFF8
3FFFF8
7F8FF8
7F07F8
7E03F8
FC01F8
FC01F8
FC01F8
FC01F8
FC01F8
FC01F8
FC01F8
FC01F8
FC01F8
FE03F8
7F03F8
7F8FF8
3FFFF8
3FFFF8
1FFDF8
0FF9F8
03F1F8
0001F8
0001F8
FE03F8
7F07F0
7FFFE0
3FFFC0
0FFF80
03FC00
ENDCHAR
STARTCHAR 011E
ENCODING 286
SWIDTH 789 0
DWIDTH 34 0
BBX 29 41 2 -1
BITMAP
00703800
00303800
003C7000
003FF000
001FE000
00078000
00000000
00000000
001FE000
00FFFC00
03FFFF00
07FFFF80
0FFFFFC0
1FFFFFE0
1FE01FE0
3F8007F0
7F8003F0
7F0003F0
7E0001F8
FE000000
FE000000
FE000000
FC000000
FC00FFF8
FC00FFF8
FC00FFF8
FC00FFF8
FE00FFF8
FE0001F8
FE0001F8
7F0001F8
7F0003F8
7F8003F8
3FC007F8
1FE01FF8
1FFFFFF8
0FFFFFF8
07FFFEF8
03FFFCF8
00FFF078
001FC000
ENDCHAR
STARTCHAR 011F
ENCODING 287
SWIDTH 603 0
DWIDTH 26 0
BBX 21 42 2 -9
BITMAP
070380
070380
038700
03FF00
01FE00
00FC00
000000
000000
000000
01F1F8
07F9F8
0FFDF8
1FFFF8
3FFFF8
7F8FF8
7F07F8
7E03F8
FC01F8
FC01F8
FC01F8
FC01F8
FC01F8
FC01F8
FC01F8
FC01F8
FC01F8
FE03F8
7F03F8
7F8FF8
3FFFF8
3FFFF8
1FFDF8
0FF9F8
03F1F8
0001F8
0001F8
FE03F8
7F07F0
7FFFE0
3FFFC0
0FFF80
03FC00
ENDCHAR
STARTCHAR 0120
ENCODING 288
SWIDTH 789 0
DWIDTH 34 0
BBX 29 41 2 -1
BITMAP
000F8000
000F8000
000F8000
000F8000
000F8000
00000000
00000000
00000000
001FE000
00FFFC00
03FFFF00
07FFFF80
0FFFFFC0
1FFFFFE0
1FE01FE0
3F8007F0
7F8003F0
7F0003F0
7E0001F8
FE000000
FE000000
FE000000
FC000000
FC00FFF8
FC00FFF8
FC00FFF8
FC00FFF8
FE00FFF8
FE0001F8
FE0001F8
7F0001F8
7F0003F8
7F8003F8
3FC007F8
1FE01FF8
1FFFFFF8
0FFFFFF8
07FFFEF8
03FFFCF8
00FFF078
001FC000
ENDCHAR
STARTCHAR 0121
ENCODING 289
SWIDTH 603 0
DWIDTH 26 0
BBX 21 41 2 -9
BITMAP
00F800
00F800
00F800
00F800
00F800
000000
000000
000000
01F1F8
07F9F8
0FFDF8
1FFFF8
3FFFF8
7F8FF8
7F07F8
7E03F8
FC01F8
FC01F8
FC01F8
FC01F8
FC01F8
FC01F8
FC01F8
FC01F8
FC01F8
FE03F8
7F03F8
7F8FF8
3FFFF8
3FFFF8
1FFDF8
0FF9F8
03F1F8
0001F8
0001F8
FE03F8
7F07F0
7FFFE0
3FFFC0
0FFF80
03FC00
ENDCHAR
STARTCHAR 0122
ENCODING 290
SWIDTH 789 0
DWIDTH 34 0
BBX 29 46 2 -14
BITMAP
001FE000
00FFFC00
03FFFF00
07FFFF80
0FFFFFC0
1FFFFFE0
1FE01FE0
3F8007F0
7F8003F0
7F0003F0
7E0001F8
FE000000
FE000000
FE000000
FC000000
FC00FFF8
FC00FFF8
FC00FFF8
FC00FFF8
FE00FFF8
FE0001F8
FE0001F8
7F0001F8
7F0003F8
7F8003F8
3FC007F8
1FE01FF8
1FFFFFF8
0FFFFFF8
07FFFEF8
03FFFCF8
00FFF078
001FC000
00000000
00000000
000FC000
000FC000
000FC000
000FC000
000FC000
0001C000
00018000
00038000
00070000
000E0000
00080000
ENDCHAR
STARTCHAR 0123
ENCODING 291
SWIDTH 603 0
DWIDTH 26 0
BBX 21 46 2 -9
BITMAP
000800
003800
007000
006000
00E000
00E000
00F800
00F800
00F800
00F800
00F800
000000
000000
01F1F8
07F9F8
0FFDF8
1FFFF8
3FFFF8
7F8FF8
7F07F8
7E03F8
FC01F8
FC01F8
FC01F8
FC01F8
FC01F8
FC01F8
FC01F8
FC01F8
FC01F8
FE03F8
7F03F8
7F8FF8
3FFFF8
3FFFF8
1FFDF8
0FF9F8
03F1F8
0001F8
0001F8
FE03F8
7F07F0
7FFFE0
3FFFC0
0FFF80
03FC00
ENDCHAR
STARTCHAR 0124
ENCODING 292
SWIDTH 720 0
DWIDTH 31 0
BBX 25 42 3 -1
BITMAP
003E0000
007F0000
00778000
00E38000
01E3C000
03C1E000
0380E000
00000000
00000000
FC001F80
FC001F80
FC001F80
FC001F80
FC001F80
FC001F80
FC001F80
FC001F80
FC001F80
FC001F80
FC001F80
FC001F80
FC001F80
FFFFFF80
FFFFFF80
FFFFFF80
FFFFFF80
FFFFFF80
FC001F80
FC001F80
FC001F80
FC001F80
FC001F80
FC001F80
FC001F80
FC001F80
FC001F80
FC001F80
FC001F80
FC001F80
FC001F80
FC001F80
FC001F80
ENDCHAR
STARTCHAR 0125
ENCODING 293
SWIDTH 603 0
DWIDTH 26 0
BBX 24 42 -1 -1
BITMAP
07C000
0FE000
1FE000
1CF000
387800
783800
F01C00
000000
000000
0FC000
0FC000
0FC000
0FC000
0FC000
0FC000
0FC000
0FC000
0FC3F0
0FCFFC
0FDFFE
0FFFFE
0FFFFF
0FF8FF
0FE07F
0FE03F
0FC03F
0FC03F
0FC03F
0FC03F
0FC03F
0FC03F
0FC03F
0FC03F
0FC03F
0FC03F
0FC03F
0FC03F
0FC03F
0FC03F
0FC03F
0FC03F
0FC03F
ENDCHAR
STARTCHAR 0126
ENCODING 294
SWIDTH 720 0
DWIDTH 31 0
BBX 31 33 0 -1
BITMAP
1F8003F0
1F8003F0
1F8003F0
1F8003F0
1F8003F0
FFFFFFFE
FFFFFFFE
FFFFFFFE
1F8003F0
1F8003F0
1F8003F0
1F8003F0
1F8003F0
1FFFFFF0
1FFFFFF0
1FFFFFF0
1FFFFFF0
1FFFFFF0
1F8003F0
1F8003F0
1F8003F0
1F8003F0
1F8003F0
1F8003F0
1F8003F0
1F8003F0
1F8003F0
1F8003F0
1F8003F0
1F8003F0
1F8003F0
1F8003F0
1F8003F0
ENDCHAR
STARTCHAR 0127
ENCODING 295
SWIDTH 603 0
DWIDTH 26 0
BBX 23 33 0 -1
BITMAP
1F8000
1F8000
1F8000
FFFF80
FFFF80
FFFF80
1F8000
1F8000
1F87E0
1F9FF8
1FBFFC
1FFFFC
1FFFFE
1FF1FE
1FC0FE
1FC07E
1F807E
1F807E
1F807E
1F807E
1F807E
1F807E
1F807E
1F807E
1F807E
1F807E
1F807E
1F807E
1F807E
1F807E
1F807E
1F807E
1F807E
ENDCHAR
STARTCHAR 0128
ENCODING 296
SWIDTH 278 0
DWIDTH 12 0
BBX 16 41 -2 -1
BITMAP
3F07
7FEE
7FFE
71FE
E078
0000
0000
0000
07E0
07E0
07E0
07E0
07E0
07E0
07E0
07E0
07E0
07E0
07E0
07E0
07E0
07E0
07E0
07E0
07E0
07E0
07E0
07E0
07E0
07E0
07E0
07E0
07E0
07E0
07E0
07E0
07E0
07E0
07E0
07E0
07E0
ENDCHAR
STARTCHAR 0129
ENCODING 297
SWIDTH 278 0
DWIDTH 12 0
BBX 15 34 -1 -1
BITMAP
380E
7F1E
FFFC
FFFC
C1F8
0000
0000
0000
0000
0FC0
0FC0
0FC0
0FC0
0FC0
0FC0
0FC0
0FC0
0FC0
0FC0
0FC0
0FC0
0FC0
0FC0
0FC0
0FC0
0FC0
0FC0
0FC0
0FC0
0FC0
0FC0
0FC0
0FC0
0FC0
ENDCHAR
STARTCHAR 012A
ENCODING 298
SWIDTH 278 0
DWIDTH 12 0
BBX 12 40 0 -1
BITMAP
FFF0
FFF0
FFF0
0000
0000
0000
0000
1F80
1F80
1F80
1F80
1F80
1F80
1F80
1F80
1F80
1F80
1F80
1F80
1F80
1F80
1F80
1F80
1F80
1F80
1F80
1F80
1F80
1F80
1F80
1F80
1F80
1F80
1F80
1F80
1F80
1F80
1F80
1F80
1F80
ENDCHAR
STARTCHAR 012B
ENCODING 299
SWIDTH 278 0
DWIDTH 12 0
BBX 11 32 0 -1
BITMAP
FFE0
FFE0
FFE0
0000
0000
0000
0000
1F80
1F80
1F80
1F80
1F80
1F80
1F80
1F80
1F80
1F80
1F80
1F80
1F80
1F80
1F80
1F80
1F80
1F80
1F80
1F80
1F80
1F80
1F80
1F80
1F80
ENDCHAR
STARTCHAR 012C
ENCODING 300
SWIDTH 278 0
DWIDTH 12 0
BBX 12 42 0 -1
BITMAP
E070
E070
70E0
7FE0
3FC0
1F80
0000
0000
0000
1F80
1F80
1F80
1F80
1F80
1F80
1F80
1F80
1F80
1F80
1F80
1F80
1F80
1F80
1F80
1F80
1F80
1F80
1F80
1F80
1F80
1F80
1F80
1F80
1F80
1F80
1F80
1F80
1F80
1F80
1F80
1F80
1F80
ENDCHAR
STARTCHAR 012D
ENCODING 301
SWIDTH 278 0
DWIDTH 12 0
BBX 11 33 0 -1
BITMAP
E060
E060
79E0
7FE0
3FC0
1F00
0000
0000
1F80
1F80
1F80
1F80
1F80
1F80
1F80
1F80
1F80
1F80
1F80
1F80
1F80
1F80
1F80
1F80
1F80
1F80
1F80
1F80
1F80
1F80
1F80
1F80
1F80
ENDCHAR
STARTCHAR 012E
ENCODING 302
SWIDTH 278 0
DWIDTH 12 0
BBX 9 43 1 -11
BITMAP
3F00
3F00
3F00
3F00
3F00
3F00
3F00
3F00
3F00
3F00
3F00
3F00
3F00
3F00
3F00
3F00
3F00
3F00
3F00
3F00
3F00
3F00
3F00
3F00
3F00
3F00
3F00
3F00
3F00
3F00
3F00
3F00
3F00
0700
1C00
3C00
7800
7800
F000
7800
7C00
3F80
1F80
ENDCHAR
STARTCHAR 012F
ENCODING 303
SWIDTH 278 0
DWIDTH 12 0
BBX 9 43 1 -11
BITMAP
3F00
3F00
3F00
3F00
3F00
0000
0000
0000
3F00
3F00
3F00
3F00
3F00
3F00
3F00
3F00
3F00
3F00
3F00
3F00
3F00
3F00
3F00
3F00
3F00
3F00
3F00
3F00
3F00
3F00
3F00
3F00
3F00
0E00
1C00
3800
7800
7000
F000
7800
7C00
3F80
1F80
ENDCHAR
STARTCHAR 0130
ENCODING 304
SWIDTH 278 0
DWIDTH 12 0
BBX 6 41 3 -1
BITMAP
78
78
78
78
78
00
00
00
FC
FC
FC
FC
FC
FC
FC
FC
FC
FC
FC
FC
FC
FC
FC
FC
FC
FC
FC
FC
FC
FC
FC
FC
FC
FC
FC
FC
FC
FC
FC
FC
FC
ENDCHAR
STARTCHAR 0131
ENCODING 305
SWIDTH 278 0
DWIDTH 12 0
BBX 6 25 3 -1
BITMAP
FC
FC
FC
FC
FC
FC
FC
FC
FC
FC
FC
FC
FC
FC
FC
FC
FC
FC
FC
FC
FC
FC
FC
FC
FC
ENDCHAR
STARTCHAR 0132
ENCODING 306
SWIDTH 789 0
DWIDTH 34 0
BBX 28 33 3 -1
BITMAP
FC0003F0
FC0003F0
FC0003F0
FC0003F0
FC0003F0
FC0003F0
FC0003F0
FC0003F0
FC0003F0
FC0003F0
FC0003F0
FC0003F0
FC0003F0
FC0003F0
FC0003F0
FC0003F0
FC0003F0
FC0003F0
FC0003F0
FC0003F0
FCFE03F0
FCFE03F0
FCFE03F0
FCFE03F0
FCFE03F0
FCFE03F0
FC7F07F0
FC7FFFF0
FC7FFFE0
FC3FFFE0
FC1FFFC0
FC0FFF00
FC01FC00
ENDCHAR
STARTCHAR 0133
ENCODING 307
SWIDTH 557 0
DWIDTH 24 0
BBX 17 42 4 -10
BITMAP
FC1F80
FC1F80
FC1F80
FC1F80
FC1F80
000000
000000
000000
FC1F80
FC1F80
FC1F80
FC1F80
FC1F80
FC1F80
FC1F80
FC1F80
FC1F80
FC1F80
FC1F80
FC1F80
FC1F80
FC1F80
FC1F80
FC1F80
FC1F80
FC1F80
FC1F80
FC1F80
FC1F80
FC1F80
FC1F80
FC1F80
FC1F80
001F80
001F80
001F80
003F80
00FF80
00FF80
00FF00
00FF00
00FC00
ENDCHAR
STARTCHAR 0134
ENCODING 308
SWIDTH 557 0
DWIDTH 24 0
BBX 24 42 1 -1
BITMAP
0003E0
0007F0
000778
000F38
001E3C
001C1E
00380F
000000
000000
0007F0
0007F0
0007F0
0007F0
0007F0
0007F0
0007F0
0007F0
0007F0
0007F0
0007F0
0007F0
0007F0
0007F0
0007F0
0007F0
0007F0
0007F0
0007F0
0007F0
FC07F0
FC07F0
FC07F0
FE07F0
FE07F0
FE07F0
FE07F0
7FFFE0
7FFFE0
3FFFC0
1FFF80
0FFF00
03FC00
ENDCHAR
STARTCHAR 0135
ENCODING 309
SWIDTH 278 0
DWIDTH 12 0
BBX 12 42 0 -9
BITMAP
1F80
3FC0
3BC0
79E0
F0F0
E070
0000
0000
0000
1F80
1F80
1F80
1F80
1F80
1F80
1F80
1F80
1F80
1F80
1F80
1F80
1F80
1F80
1F80
1F80
1F80
1F80
1F80
1F80
1F80
1F80
1F80
1F80
1F80
1F80
1F80
1F80
FF80
FF80
FF80
FF00
FE00
ENDCHAR
STARTCHAR 0136
ENCODING 310
SWIDTH 720 0
DWIDTH 31 0
BBX 27 46 3 -14
BITMAP
FE003FC0
FE003F80
FE007F00
FE00FE00
FE01FE00
FE03FC00
FE07F800
FE07F000
FE0FE000
FE1FC000
FE3F8000
FE7F0000
FEFF0000
FFFE0000
FFFC0000
FFFE0000
FFFF0000
FFFF0000
FFFF8000
FF9FC000
FF1FE000
FE0FE000
FE07F000
FE07F800
FE03FC00
FE01FC00
FE00FE00
FE00FF00
FE007F80
FE003F80
FE003FC0
FE001FE0
FE000FE0
00000000
00000000
001F0000
001F0000
001F0000
001F0000
001F0000
00070000
00070000
00060000
000E0000
001C0000
00100000
ENDCHAR
STARTCHAR 0137
ENCODING 311
SWIDTH 557 0
DWIDTH 24 0
BBX 20 46 3 -14
BITMAP
FC0000
FC0000
FC0000
FC0000
FC0000
FC0000
FC0000
FC0000
FC07F0
FC0FE0
FC1FC0
FC3F80
FC3F00
FC7E00
FCFE00
FDFC00
FDF800
FFF000
FFF800
FFF800
FFFC00
FFFC00
FFFE00
FE7E00
FC7F00
FC3F80
FC3F80
FC1FC0
FC1FC0
FC0FE0
FC0FE0
FC07F0
FC07F0
000000
000000
01F000
01F000
01F000
01F000
01F000
003000
003000
007000
00E000
01C000
010000
ENDCHAR
STARTCHAR 0138
ENCODING 312
SWIDTH 557 0
DWIDTH 24 0
BBX 19 22 2 -1
BITMAP
F807C0
F80F80
F81F80
F83F00
F87E00
F87C00
F8F800
F9F000
FBE000
FFC000
FFE000
FFF000
FFF000
FCF800
F87C00
F87E00
F83E00
F81F00
F80F80
F80FC0
F807E0
F803E0
ENDCHAR
STARTCHAR 0139
ENCODING 313
SWIDTH 603 0
DWIDTH 26 0
BBX 22 42 3 -1
BITMAP
0FC000
0F8000
1F0000
1E0000
3C0000
380000
700000
000000
000000
FE0000
FE0000
FE0000
FE0000
FE0000
FE0000
FE0000
FE0000
FE0000
FE0000
FE0000
FE0000
FE0000
FE0000
FE0000
FE0000
FE0000
FE0000
FE0000
FE0000
FE0000
FE0000
FE0000
FE0000
FE0000
FE0000
FE0000
FE0000
FFFFFC
FFFFFC
FFFFFC
FFFFFC
FFFFFC
ENDCHAR
STARTCHAR 013A
ENCODING 314
SWIDTH 278 0
DWIDTH 12 0
BBX 9 42 3 -1
BITMAP
1F80
1F00
3E00
3C00
7800
7000
7000
0000
0000
FC00
FC00
FC00
FC00
FC00
FC00
FC00
FC00
FC00
FC00
FC00
FC00
FC00
FC00
FC00
FC00
FC00
FC00
FC00
FC00
FC00
FC00
FC00
FC00
FC00
FC00
FC00
FC00
FC00
FC00
FC00
FC00
FC00
ENDCHAR
STARTCHAR 013B
ENCODING 315
SWIDTH 603 0
DWIDTH 26 0
BBX 22 46 3 -14
BITMAP
FE0000
FE0000
FE0000
FE0000
FE0000
FE0000
FE0000
FE0000
FE0000
FE0000
FE0000
FE0000
FE0000
FE0000
FE0000
FE0000
FE0000
FE0000
FE0000
FE0000
FE0000
FE0000
FE0000
FE0000
FE0000
FE0000
FE0000
FE0000
FFFFFC
FFFFFC
FFFFFC
FFFFFC
FFFFFC
000000
000000
007C00
007C00
007C00
007C00
007C00
001C00
001C00
001800
003800
007000
004000
ENDCHAR
STARTCHAR 013C
ENCODING 316
SWIDTH 278 0
DWIDTH 12 0
BBX 6 46 3 -14
BITMAP
FC
FC
FC
FC
FC
FC
FC
FC
FC
FC
FC
FC
FC
FC
FC
FC
FC
FC
FC
FC
FC
FC
FC
FC
FC
FC
FC
FC
FC
FC
FC
FC
FC
00
00
FC
FC
FC
FC
FC
1C
18
18
78
F0
C0
ENDCHAR
STARTCHAR 013D
ENCODING 317
SWIDTH 603 0
DWIDTH 26 0
BBX 22 33 3 -1
BITMAP
FE1F00
FE1F00
FE1F00
FE1F00
FE1F00
FE0300
FE0300
FE0300
FE0E00
FE1E00
FE1800
FE0000
FE0000
FE0000
FE0000
FE0000
FE0000
FE0000
FE0000
FE0000
FE0000
FE0000
FE0000
FE0000
FE0000
FE0000
FE0000
FE0000
FFFFFC
FFFFFC
FFFFFC
FFFFFC
FFFFFC
ENDCHAR
STARTCHAR 013E
ENCODING 318
SWIDTH 394 0
DWIDTH 17 0
BBX 13 33 3 -1
BITMAP
FCF8
FCF8
FCF8
FCF8
FCF8
FC18
FC18
FC38
FC70
FCF0
FCC0
FC00
FC00
FC00
FC00
FC00
FC00
FC00
FC00
FC00
FC00
FC00
FC00
FC00
FC00
FC00
FC00
FC00
FC00
FC00
FC00
FC00
FC00
ENDCHAR
STARTCHAR 013F
ENCODING 319
SWIDTH 603 0
DWIDTH 26 0
BBX 22 33 3 -1
BITMAP
FE0000
FE0000
FE0000
FE0000
FE0000
FE0000
FE0000
FE0000
FE0000
FE0000
FE0000
FE0000
FE0000
FE0000
FE07E0
FE07E0
FE07E0
FE07E0
FE07E0
FE0000
FE0000
FE0000
FE0000
FE0000
FE0000
FE0000
FE0000
FE0000
FFFFFC
FFFFFC
FFFFFC
FFFFFC
FFFFFC
ENDCHAR
STARTCHAR 0140
ENCODING 320
SWIDTH 487 0
DWIDTH 21 0
BBX 16 33 3 -1
BITMAP
FC00
FC00
FC00
FC00
FC00
FC00
FC00
FC00
FC00
FC00
FC00
FC00
FC00
FC00
FC1F
FC1F
FC1F
FC1F
FC1F
FC00
FC00
FC00
FC00
FC00
FC00
FC00
FC00
FC00
FC00
FC00
FC00
FC00
FC00
ENDCHAR
STARTCHAR 0141
ENCODING 321
SWIDTH 603 0
DWIDTH 26 0
BBX 26 33 0 -1
BITMAP
1FC00000
1FC00000
1FC00000
1FC00000
1FC00000
1FC00000
1FC00000
1FC00000
1FC00000
1FC08000
1FC18000
1FC78000
1FCF8000
1FDF0000
1FFE0000
1FF80000
1FF00000
1FE00000
3FC00000
7FC00000
FFC00000
FFC00000
DFC00000
9FC00000
1FC00000
1FC00000
1FC00000
1FC00000
1FFFFFC0
1FFFFFC0
1FFFFFC0
1FFFFFC0
1FFFFFC0
ENDCHAR
STARTCHAR 0142
ENCODING 322
SWIDTH 278 0
DWIDTH 12 0
BBX 11 33 0 -1
BITMAP
3F00
3F00
3F00
3F00
3F00
3F00
3F00
3F00
3F00
3F00
3F00
3F20
3F60
3FE0
3FE0
3FC0
3F80
7F00
FF00
FF00
BF00
3F00
3F00
3F00
3F00
3F00
3F00
3F00
3F00
3F00
3F00
3F00
3F00
ENDCHAR
STARTCHAR 0143
ENCODING 323
SWIDTH 720 0
DWIDTH 31 0
BBX 25 42 3 -1
BITMAP
0007C000
000F8000
000F8000
000F0000
001E0000
001C0000
00380000
00000000
00000000
FE001F80
FE001F80
FF001F80
FF001F80
FF801F80
FFC01F80
FFC01F80
FFE01F80
FFE01F80
FFF01F80
FDF01F80
FDF81F80
FCF81F80
FCFC1F80
FC7E1F80
FC7E1F80
FC3F1F80
FC3F1F80
FC1F9F80
FC0F9F80
FC0FDF80
FC07DF80
FC07FF80
FC03FF80
FC03FF80
FC01FF80
FC01FF80
FC00FF80
FC007F80
FC007F80
FC003F80
FC003F80
FC001F80
ENDCHAR
STARTCHAR 0144
ENCODING 324
SWIDTH 603 0
DWIDTH 26 0
BBX 21 34 3 -1
BITMAP
003E00
003C00
007C00
007800
00F000
00E000
000000
000000
000000
FC3F00
FCFFC0
FDFFE0
FFFFF0
FFFFF0
FF8FF0
FE03F0
FC03F8
FC03F8
FC03F8
FC03F8
FC03F8
FC03F8
FC03F8
FC03F8
FC03F8
FC03F8
FC03F8
FC03F8
FC03F8
FC03F8
FC03F8
FC03F8
FC03F8
FC03F8
ENDCHAR
STARTCHAR 0145
ENCODING 325
SWIDTH 720 0
DWIDTH 31 0
BBX 25 46 3 -14
BITMAP
FE001F80
FE001F80
FF001F80
FF001F80
FF801F80
FFC01F80
FFC01F80
FFE01F80
FFE01F80
FFF01F80
FDF01F80
FDF81F80
FCF81F80
FCFC1F80
FC7E1F80
FC7E1F80
FC3F1F80
FC3F1F80
FC1F9F80
FC0F9F80
FC0FDF80
FC07DF80
FC07FF80
FC03FF80
FC03FF80
FC01FF80
FC01FF80
FC00FF80
FC007F80
FC007F80
FC003F80
FC003F80
FC001F80
00000000
00000000
003E0000
003E0000
003E0000
003E0000
003E0000
00060000
00060000
000E0000
001C0000
00380000
00200000
ENDCHAR
STARTCHAR 0146
ENCODING 326
SWIDTH 603 0
DWIDTH 26 0
BBX 21 38 3 -14
BITMAP
FC3F00
FCFFC0
FDFFE0
FFFFF0
FFFFF0
FF8FF0
FE03F0
FC03F8
FC03F8
FC03F8
FC03F8
FC03F8
FC03F8
FC03F8
FC03F8
FC03F8
FC03F8
FC03F8
FC03F8
FC03F8
FC03F8
FC03F8
FC03F8
FC03F8
FC03F8
000000
000000
01F800
01F800
01F800
01F800
01F800
003800
003800
003000
007000
01E000
018000
ENDCHAR
STARTCHAR 0147
ENCODING 327
SWIDTH 720 0
DWIDTH 31 0
BBX 25 42 3 -1
BITMAP
03C0E000
01C1E000
00E3C000
00F78000
007F0000
003F0000
003E0000
00000000
00000000
FE001F80
FE001F80
FF001F80
FF001F80
FF801F80
FFC01F80
FFC01F80
FFE01F80
FFE01F80
FFF01F80
FDF01F80
FDF81F80
FCF81F80
FCFC1F80
FC7E1F80
FC7E1F80
FC3F1F80
FC3F1F80
FC1F9F80
FC0F9F80
FC0FDF80
FC07DF80
FC07FF80
FC03FF80
FC03FF80
FC01FF80
FC01FF80
FC00FF80
FC007F80
FC007F80
FC003F80
FC003F80
FC001F80
ENDCHAR
STARTCHAR 0148
ENCODING 328
SWIDTH 603 0
DWIDTH 26 0
BBX 21 34 3 -1
BITMAP
0E0700
0F0E00
079E00
03FC00
03F800
01F800
000000
000000
000000
FC3F00
FCFFC0
FDFFE0
FFFFF0
FFFFF0
FF8FF0
FE03F0
FC03F8
FC03F8
FC03F8
FC03F8
FC03F8
FC03F8
FC03F8
FC03F8
FC03F8
FC03F8
FC03F8
FC03F8
FC03F8
FC03F8
FC03F8
FC03F8
FC03F8
FC03F8
ENDCHAR
STARTCHAR 0149
ENCODING 329
SWIDTH 696 0
DWIDTH 30 0
BBX 26 33 1 -1
BITMAP
F8000000
F8000000
F8000000
F8000000
F8000000
18000000
38000000
30000000
F7E1FC00
E7E7FE00
07EFFF00
07EFFF80
07FFFFC0
07FC3FC0
07F81FC0
07F00FC0
07F00FC0
07E00FC0
07E00FC0
07E00FC0
07E00FC0
07E00FC0
07E00FC0
07E00FC0
07E00FC0
07E00FC0
07E00FC0
07E00FC0
07E00FC0
07E00FC0
07E00FC0
07E00FC0
07E00FC0
ENDCHAR
STARTCHAR 014A
ENCODING 330
SWIDTH 720 0
DWIDTH 31 0
BBX 25 46 3 -14
BITMAP
FC0FE000
FC3FF800
FCFFFC00
FDFFFE00
FDFFFF00
FFFFFF00
FFF3FF80
FF807F80
FF003F80
FE003F80
FE001F80
FC001F80
FC001F80
FC001F80
FC001F80
FC001F80
FC001F80
FC001F80
FC001F80
FC001F80
FC001F80
FC001F80
FC001F80
FC001F80
FC001F80
FC001F80
FC001F80
FC001F80
FC001F80
FC001F80
FC001F80
FC001F80
FC001F80
00001F80
00001F80
00001F80
00001F80
00001F80
00001F80
00003F80
0003FF80
0003FF80
0003FF80
0003FF00
0003FF00
0003FC00
ENDCHAR
STARTCHAR 014B
ENCODING 331
SWIDTH 603 0
DWIDTH 26 0
BBX 21 34 3 -10
BITMAP
FC3F00
FCFFC0
FDFFE0
FFFFF0
FFFFF0
FF07F0
FE03F0
FC03F8
FC03F8
FC03F8
FC03F8
FC03F8
FC03F8
FC03F8
FC03F8
FC03F8
FC03F8
FC03F8
FC03F8
FC03F8
FC03F8
FC03F8
FC03F8
FC03F8
FC03F8
0003F8
0003F8
0003F8
000FF8
000FF8
000FF0
000FF0
000FF0
000FC0
ENDCHAR
STARTCHAR 014C
ENCODING 332
SWIDTH 789 0
DWIDTH 34 0
BBX 30 40 2 -1
BITMAP
00FFF800
00FFF800
00FFF800
00000000
00000000
00000000
00000000
001FE000
00FFFC00
03FFFE00
07FFFF80
0FFFFFC0
1FFFFFE0
1FE01FE0
3F800FF0
7F8007F0
7F0003F8
7E0003F8
FE0001F8
FE0001FC
FC0001FC
FC0001FC
FC0001FC
FC0001FC
FC0001FC
FC0001FC
FC0001FC
FE0001FC
FE0001F8
7E0003F8
7F0003F8
7F8007F0
3FC00FF0
3FE01FE0
1FFFFFE0
0FFFFFC0
07FFFF80
03FFFE00
00FFFC00
001FE000
ENDCHAR
STARTCHAR 014D
ENCODING 333
SWIDTH 603 0
DWIDTH 26 0
BBX 23 32 2 -1
BITMAP
07FF80
07FF80
07FF80
000000
000000
000000
000000
01FE00
07FF80
1FFFE0
3FFFF0
3FFFF0
7F87F8
7E01FC
FE01FC
FC00FC
FC00FC
FC00FC
FC00FE
FC00FE
FC00FE
FC00FC
FC00FC
FC00FC
FE01FC
7E01F8
7F87F8
3FFFF0
3FFFF0
1FFFE0
07FF80
01FE00
ENDCHAR
STARTCHAR 014E
ENCODING 334
SWIDTH 789 0
DWIDTH 34 0
BBX 30 41 2 -1
BITMAP
00703000
00703000
003CF000
003FF000
001FE000
000F8000
00000000
00000000
001FE000
00FFFC00
03FFFE00
07FFFF80
0FFFFFC0
1FFFFFE0
1FE01FE0
3F800FF0
7F8007F0
7F0003F8
7E0003F8
FE0001F8
FE0001FC
FC0001FC
FC0001FC
FC0001FC
FC0001FC
FC0001FC
FC0001FC
FC0001FC
FE0001FC
FE0001F8
7E0003F8
7F0003F8
7F8007F0
3FC00FF0
3FE01FE0
1FFFFFE0
0FFFFFC0
07FFFF80
03FFFE00
00FFFC00
001FE000
ENDCHAR
STARTCHAR 014F
ENCODING 335
SWIDTH 603 0
DWIDTH 26 0
BBX 23 34 2 -1
BITMAP
070380
070300
078700
03FF00
01FE00
00FC00
000000
000000
000000
01FE00
07FF80
1FFFE0
3FFFF0
3FFFF0
7F87F8
7E01FC
FE01FC
FC00FC
FC00FC
FC00FC
FC00FE
FC00FE
FC00FE
FC00FC
FC00FC
FC00FC
FE01FC
7E01F8
7F87F8
3FFFF0
3FFFF0
1FFFE0
07FF80
01FE00
ENDCHAR
STARTCHAR 0150
ENCODING 336
SWIDTH 789 0
DWIDTH 34 0
BBX 30 41 2 -1
BITMAP
000F8F80
000F0F00
001E1E00
001E1E00
003C3C00
00383800
00000000
00000000
001FE000
00FFFC00
03FFFE00
07FFFF80
0FFFFFC0
1FFFFFE0
1FE01FE0
3F800FF0
7F8007F0
7F0003F8
7E0003F8
FE0001F8
FE0001FC
FC0001FC
FC0001FC
FC0001FC
FC0001FC
FC0001FC
FC0001FC
FC0001FC
FE0001FC
FE0001F8
7E0003F8
7F0003F8
7F8007F0
3FC00FF0
3FE01FE0
1FFFFFE0
0FFFFFC0
07FFFF80
03FFFE00
00FFFC00
001FE000
ENDCHAR
STARTCHAR 0151
ENCODING 337
SWIDTH 603 0
DWIDTH 26 0
BBX 23 34 2 -1
BITMAP
00FCFC
00F8F8
01F1F0
01E1E0
03C1C0
038380
000000
000000
000000
01FE00
07FF80
1FFFE0
3FFFF0
3FFFF0
7F87F8
7E01FC
FE01FC
FC00FC
FC00FC
FC00FC
FC00FE
FC00FE
FC00FE
FC00FC
FC00FC
FC00FC
FE01FC
7E01F8
7F87F8
3FFFF0
3FFFF0
1FFFE0
07FF80
01FE00
ENDCHAR
STARTCHAR 0152
ENCODING 338
SWIDTH 998 0
DWIDTH 43 0
BBX 41 33 1 -1
BITMAP
003F8FFFFF00
01FFEFFFFF00
03FFFFFFFF00
07FFFFFFFF00
0FFFFFFFFF00
1FFFFFC00000
1FE03FC00000
3FC01FC00000
3F801FC00000
7F001FC00000
7F001FC00000
7E001FC00000
7E001FC00000
FE001FFFFE00
FE001FFFFE00
FE001FFFFE00
FE001FFFFE00
FE001FFFFE00
FE001FC00000
FE001FC00000
7E001FC00000
7E001FC00000
7F001FC00000
7F001FC00000
3F801FC00000
3FC01FC00000
1FE03FC00000
1FFFFFC00000
0FFFFFFFFF80
07FFFFFFFF80
03FFEFFFFF80
01FFCFFFFF80
003F0FFFFF80
ENDCHAR
STARTCHAR 0153
ENCODING 339
SWIDTH 952 0
DWIDTH 41 0
BBX 39 25 1 -1
BITMAP
00FE00FE00
07FFC3FF80
0FFFE7FFE0
1FFFFFFFF0
3FFFFFFFF8
3F83FF83F8
7F01FF01FC
7E00FF00FC
FE00FE00FC
FC007E00FC
FC007FFFFE
FC007FFFFE
FC007FFFFE
FC007FFFFE
FC007E0000
FC007E0000
FE00FE0000
7E00FF00FC
7F01FF00FC
3F83FF81FC
3FFFFFFFF8
1FFFFFFFF0
0FFFE7FFE0
07FFC3FF80
00FE00FE00
ENDCHAR
STARTCHAR 0154
ENCODING 340
SWIDTH 720 0
DWIDTH 31 0
BBX 26 42 3 -1
BITMAP
0007C000
000F8000
000F0000
001E0000
001E0000
003C0000
00380000
00000000
00000000
FFFFF800
FFFFFE00
FFFFFF00
FFFFFF00
FFFFFF80
FE00FF80
FE003FC0
FE001FC0
FE001FC0
FE001FC0
FE001FC0
FE001F80
FE001F80
FE003F80
FFFFFF00
FFFFFE00
FFFFF800
FFFFFC00
FFFFFE00
FE01FF00
FE007F00
FE003F80
FE003F80
FE003F80
FE003F80
FE003F80
FE003F80
FE003F80
FE003F80
FE003F80
FE003F80
FE001FC0
FE001FC0
ENDCHAR
STARTCHAR 0155
ENCODING 341
SWIDTH 394 0
DWIDTH 17 0
BBX 13 34 3 -1
BITMAP
03E0
03C0
07C0
0780
0F00
0E00
0000
0000
0000
FC38
FCF8
FDF8
FDF8
FFF8
FFF8
FF00
FE00
FC00
FC00
FC00
FC00
FC00
FC00
FC00
FC00
FC00
FC00
FC00
FC00
FC00
FC00
FC00
FC00
FC00
ENDCHAR
STARTCHAR 0156
ENCODING 342
SWIDTH 720 0
DWIDTH 31 0
BBX 26 46 3 -14
BITMAP
FFFFF800
FFFFFE00
FFFFFF00
FFFFFF00
FFFFFF80
FE00FF80
FE003FC0
FE001FC0
FE001FC0
FE001FC0
FE001FC0
FE001F80
FE001F80
FE003F80
FFFFFF00
FFFFFE00
FFFFF800
FFFFFC00
FFFFFE00
FE01FF00
FE007F00
FE003F80
FE003F80
FE003F80
FE003F80
FE003F80
FE003F80
FE003F80
FE003F80
FE003F80
FE003F80
FE001FC0
FE001FC0
00000000
00000000
001F0000
001F0000
001F0000
001F0000
001F0000
00030000
00070000
00060000
000E0000
001C0000
00100000
ENDCHAR
STARTCHAR 0157
ENCODING 343
SWIDTH 394 0
DWIDTH 17 0
BBX 13 38 3 -14
BITMAP
FC38
FCF8
FDF8
FDF8
FFF8
FFF8
FF00
FE00
FC00
FC00
FC00
FC00
FC00
FC00
FC00
FC00
FC00
FC00
FC00
FC00
FC00
FC00
FC00
FC00
FC00
0000
0000
F800
F800
F800
F800
F800
1800
1800
3800
7000
E000
C000
ENDCHAR
STARTCHAR 0158
ENCODING 344
SWIDTH 720 0
DWIDTH 31 0
BBX 26 42 3 -1
BITMAP
0380E000
01C1C000
01E3C000
00F78000
007F0000
007E0000
003E0000
00000000
00000000
FFFFF800
FFFFFE00
FFFFFF00
FFFFFF00
FFFFFF80
FE00FF80
FE003FC0
FE001FC0
FE001FC0
FE001FC0
FE001FC0
FE001F80
FE001F80
FE003F80
FFFFFF00
FFFFFE00
FFFFF800
FFFFFC00
FFFFFE00
FE01FF00
FE007F00
FE003F80
FE003F80
FE003F80
FE003F80
FE003F80
FE003F80
FE003F80
FE003F80
FE003F80
FE003F80
FE001FC0
FE001FC0
ENDCHAR
STARTCHAR 0159
ENCODING 345
SWIDTH 394 0
DWIDTH 17 0
BBX 13 34 3 -1
BITMAP
E078
70F0
79E0
3FC0
1FC0
1F80
0000
0000
0000
FC38
FCF8
FDF8
FDF8
FFF8
FFF8
FF00
FE00
FC00
FC00
FC00
FC00
FC00
FC00
FC00
FC00
FC00
FC00
FC00
FC00
FC00
FC00
FC00
FC00
FC00
ENDCHAR
STARTCHAR 015A
ENCODING 346
SWIDTH 673 0
DWIDTH 29 0
BBX 26 41 1 -1
BITMAP
0007E000
00078000
000F8000
000F0000
001E0000
001C0000
00000000
00000000
007F8000
03FFF000
0FFFFC00
1FFFFE00
3FFFFF00
3FC1FF00
7F007F80
7E003F80
7E001F80
7E001F80
7E000000
7F000000
7FC00000
3FFE0000
3FFFF000
1FFFFC00
07FFFF00
01FFFF80
000FFF80
0000FFC0
00003FC0
00001FC0
00000FC0
FE000FC0
7E000FC0
7F000FC0
7F801FC0
3FE07F80
3FFFFF80
1FFFFF00
0FFFFE00
03FFF800
007FC000
ENDCHAR
STARTCHAR 015B
ENCODING 347
SWIDTH 557 0
DWIDTH 24 0
BBX 21 34 1 -1
BITMAP
001F80
001F00
003E00
003C00
003800
007000
007000
000000
000000
01FE00
07FF80
1FFFE0
3FFFE0
3FFFF0
7F03F0
7E01F8
7E01F8
7F0000
7FF000
3FFE00
3FFFC0
1FFFF0
03FFF0
007FF8
000FF8
0003F8
FC01F8
FE01F8
7E03F8
7FFFF8
3FFFF0
3FFFE0
0FFFC0
03FE00
ENDCHAR
STARTCHAR 015C
ENCODING 348
SWIDTH 673 0
DWIDTH 29 0
BBX 26 41 1 -1
BITMAP
003F0000
007F0000
00F78000
00E3C000
01C1C000
03C0E000
00000000
00000000
007F8000
03FFF000
0FFFFC00
1FFFFE00
3FFFFF00
3FC1FF00
7F007F80
7E003F80
7E001F80
7E001F80
7E000000
7F000000
7FC00000
3FFE0000
3FFFF000
1FFFFC00
07FFFF00
01FFFF80
000FFF80
0000FFC0
00003FC0
00001FC0
00000FC0
FE000FC0
7E000FC0
7F000FC0
7F801FC0
3FE07F80
3FFFFF80
1FFFFF00
0FFFFE00
03FFF800
007FC000
ENDCHAR
STARTCHAR 015D
ENCODING 349
SWIDTH 557 0
DWIDTH 24 0
BBX 21 34 1 -1
BITMAP
007C00
00FE00
01FE00
03CF00
038780
070380
0F01C0
000000
000000
01FE00
07FF80
1FFFE0
3FFFE0
3FFFF0
7F03F0
7E01F8
7E01F8
7F0000
7FF000
3FFE00
3FFFC0
1FFFF0
03FFF0
007FF8
000FF8
0003F8
FC01F8
FE01F8
7E03F8
7FFFF8
3FFFF0
3FFFE0
0FFFC0
03FE00
ENDCHAR
STARTCHAR 015E
ENCODING 350
SWIDTH 673 0
DWIDTH 29 0
BBX 26 41 1 -9
BITMAP
007F8000
03FFF000
0FFFFC00
1FFFFE00
3FFFFF00
3FC1FF00
7F007F80
7E003F80
7E001F80
7E001F80
7E000000
7F000000
7FC00000
3FFE0000
3FFFF000
1FFFFC00
07FFFF00
01FFFF80
000FFF80
0000FFC0
00003FC0
00000FC0
00000FC0
FE000FC0
7E000FC0
7F000FC0
7F801FC0
3FE0FF80
3FFFFF80
1FFFFF00
0FFFFE00
03FFF800
007F8000
00180000
001B0000
003F8000
0003C000
0003C000
0183C000
01FF8000
00FF0000
ENDCHAR
STARTCHAR 015F
ENCODING 351
SWIDTH 557 0
DWIDTH 24 0
BBX 21 33 1 -9
BITMAP
01FE00
07FF80
1FFFE0
3FFFE0
3FFFF0
7F03F0
7E01F8
7E01F8
7F0000
7FF000
3FFE00
3FFFC0
1FFFF0
03FFF0
007FF8
000FF8
0003F8
FC01F8
FE01F8
7E03F8
7FFFF8
3FFFF0
3FFFE0
0FFFC0
01FE00
006000
00D800
00FE00
001E00
000E00
0E1E00
0FFE00
03F800
ENDCHAR
STARTCHAR 0160
ENCODING 352
SWIDTH 673 0
DWIDTH 29 0
BBX 26 41 1 -1
BITMAP
01C0F000
00E1E000
00F3C000
007F8000
003F8000
003F0000
00000000
00000000
007F8000
03FFF000
0FFFFC00
1FFFFE00
3FFFFF00
3FC1FF00
7F007F80
7E003F80
7E001F80
7E001F80
7E000000
7F000000
7FC00000
3FFE0000
3FFFF000
1FFFFC00
07FFFF00
01FFFF80
000FFF80
0000FFC0
00003FC0
00001FC0
00000FC0
FE000FC0
7E000FC0
7F000FC0
7F801FC0
3FE07F80
3FFFFF80
1FFFFF00
0FFFFE00
03FFF800
007FC000
ENDCHAR
STARTCHAR 0161
ENCODING 353
SWIDTH 557 0
DWIDTH 24 0
BBX 21 34 1 -1
BITMAP
0703C0
078780
03C700
01EE00
01FE00
00FC00
007800
000000
000000
01FE00
07FF80
1FFFE0
3FFFE0
3FFFF0
7F03F0
7E01F8
7E01F8
7F0000
7FF000
3FFE00
3FFFC0
1FFFF0
03FFF0
007FF8
000FF8
0003F8
FC01F8
FE01F8
7E03F8
7FFFF8
3FFFF0
3FFFE0
0FFFC0
03FE00
ENDCHAR
STARTCHAR 0162
ENCODING 354
SWIDTH 603 0
DWIDTH 26 0
BBX 25 46 1 -14
BITMAP
FFFFFF80
FFFFFF80
FFFFFF80
FFFFFF80
FFFFFF80
007F0000
007F0000
007F0000
007F0000
007F0000
007F0000
007F0000
007F0000
007F0000
007F0000
007F0000
007F0000
007F0000
007F0000
007F0000
007F0000
007F0000
007F0000
007F0000
007F0000
007F0000
007F0000
007F0000
007F0000
007F0000
007F0000
007F0000
007F0000
00000000
00000000
003E0000
003E0000
003E0000
003E0000
003E0000
00060000
00060000
000E0000
001C0000
00380000
00200000
ENDCHAR
STARTCHAR 0163
ENCODING 355
SWIDTH 325 0
DWIDTH 14 0
BBX 12 43 1 -14
BITMAP
1F80
1F80
1F80
1F80
1F80
1F80
FFF0
FFF0
FFF0
FFF0
1F80
1F80
1F80
1F80
1F80
1F80
1F80
1F80
1F80
1F80
1F80
1F80
1F80
1F80
1F80
1FF0
1FF0
1FF0
0FF0
07F0
0000
0000
0FC0
0FC0
0FC0
0FC0
0FC0
01C0
0180
0180
0700
0F00
0800
ENDCHAR
STARTCHAR 0164
ENCODING 356
SWIDTH 603 0
DWIDTH 26 0
BBX 25 42 1 -1
BITMAP
0380E000
03C1C000
01E38000
00F78000
007F0000
007E0000
003E0000
00000000
00000000
FFFFFF80
FFFFFF80
FFFFFF80
FFFFFF80
FFFFFF80
007F0000
007F0000
007F0000
007F0000
007F0000
007F0000
007F0000
007F0000
007F0000
007F0000
007F0000
007F0000
007F0000
007F0000
007F0000
007F0000
007F0000
007F0000
007F0000
007F0000
007F0000
007F0000
007F0000
007F0000
007F0000
007F0000
007F0000
007F0000
ENDCHAR
STARTCHAR 0165
ENCODING 357
SWIDTH 394 0
DWIDTH 17 0
BBX 16 37 1 -1
BITMAP
001F
001F
001F
001F
001F
0003
0003
1F87
1F8E
1F9C
1F90
1F80
1F80
FFF0
FFF0
FFF0
FFF0
1F80
1F80
1F80
1F80
1F80
1F80
1F80
1F80
1F80
1F80
1F80
1F80
1F80
1F80
1F80
1FF0
1FF0
1FF0
0FF0
07F0
ENDCHAR
STARTCHAR 0166
ENCODING 358
SWIDTH 603 0
DWIDTH 26 0
BBX 25 33 1 -1
BITMAP
FFFFFF80
FFFFFF80
FFFFFF80
FFFFFF80
FFFFFF80
007F0000
007F0000
007F0000
007F0000
007F0000
007F0000
007F0000
007F0000
1FFFFC00
1FFFFC00
1FFFFC00
007F0000
007F0000
007F0000
007F0000
007F0000
007F0000
007F0000
007F0000
007F0000
007F0000
007F0000
007F0000
007F0000
007F0000
007F0000
007F0000
007F0000
ENDCHAR
STARTCHAR 0167
ENCODING 359
SWIDTH 325 0
DWIDTH 14 0
BBX 12 30 1 -1
BITMAP
1F80
1F80
1F80
1F80
1F80
1F80
FFF0
FFF0
FFF0
FFF0
1F80
1F80
1F80
1F80
FFF0
FFF0
FFF0
1F80
1F80
1F80
1F80
1F80
1F80
1F80
1F80
1FF0
1FF0
1FF0
0FF0
07F0
ENDCHAR
STARTCHAR 0168
ENCODING 360
SWIDTH 720 0
DWIDTH 31 0
BBX 25 41 3 -1
BITMAP
01F07000
03FE7000
07FFF000
071FE000
0703C000
00000000
00000000
00000000
FE001F80
FE001F80
FE001F80
FE001F80
FE001F80
FE001F80
FE001F80
FE001F80
FE001F80
FE001F80
FE001F80
FE001F80
FE001F80
FE001F80
FE001F80
FE001F80
FE001F80
FE001F80
FE001F80
FE001F80
FE001F80
FE001F80
FE001F80
FE001F80
FE003F80
7F003F80
7F807F00
3FFFFF00
3FFFFE00
1FFFFC00
0FFFF800
03FFF000
00FF8000
ENDCHAR
STARTCHAR 0169
ENCODING 361
SWIDTH 603 0
DWIDTH 26 0
BBX 21 34 2 -1
BITMAP
03C0E0
07F0E0
0FFFC0
0FFFC0
0E0F80
000000
000000
000000
000000
FE01F8
FE01F8
FE01F8
FE01F8
FE01F8
FE01F8
FE01F8
FE01F8
FE01F8
FE01F8
FE01F8
FE01F8
FE01F8
FE01F8
FE01F8
FE01F8
FE01F8
7E01F8
7E03F8
7F87F8
7FFFF8
3FFFF8
3FFDF8
1FF9F8
07E1F8
ENDCHAR
STARTCHAR 016A
ENCODING 362
SWIDTH 720 0
DWIDTH 31 0
BBX 25 40 3 -1
BITMAP
03FFE000
03FFE000
03FFE000
00000000
00000000
00000000
00000000
FE001F80
FE001F80
FE001F80
FE001F80
FE001F80
FE001F80
FE001F80
FE001F80
FE001F80
FE001F80
FE001F80
FE001F80
FE001F80
FE001F80
FE001F80
FE001F80
FE001F80
FE001F80
FE001F80
FE001F80
FE001F80
FE001F80
FE001F80
FE001F80
FE003F80
7F003F80
7F807F00
3FFFFF00
3FFFFE00
1FFFFC00
0FFFF800
03FFF000
00FF8000
ENDCHAR
STARTCHAR 016B
ENCODING 363
SWIDTH 603 0
DWIDTH 26 0
BBX 21 32 2 -1
BITMAP
0FFF80
0FFF80
0FFF80
000000
000000
000000
000000
FE01F8
FE01F8
FE01F8
FE01F8
FE01F8
FE01F8
FE01F8
FE01F8
FE01F8
FE01F8
FE01F8
FE01F8
FE01F8
FE01F8
FE01F8
FE01F8
FE01F8
7E01F8
7E03F8
7F87F8
7FFFF8
3FFFF8
3FFDF8
1FF9F8
07E1F8
ENDCHAR
STARTCHAR 016C
ENCODING 364
SWIDTH 720 0
DWIDTH 31 0
BBX 25 42 3 -1
BITMAP
0180C000
01C1C000
01E1C000
00FFC000
00FF8000
007F0000
00000000
00000000
00000000
FE001F80
FE001F80
FE001F80
FE001F80
FE001F80
FE001F80
FE001F80
FE001F80
FE001F80
FE001F80
FE001F80
FE001F80
FE001F80
FE001F80
FE001F80
FE001F80
FE001F80
FE001F80
FE001F80
FE001F80
FE001F80
FE001F80
FE001F80
FE001F80
FE003F80
7F003F80
7F807F00
3FFFFF00
3FFFFE00
1FFFFC00
0FFFF800
03FFF000
00FF8000
ENDCHAR
STARTCHAR 016D
ENCODING 365
SWIDTH 603 0
DWIDTH 26 0
BBX 21 34 2 -1
BITMAP
060300
070700
078F00
07FE00
03FE00
01FC00
000000
000000
000000
FE01F8
FE01F8
FE01F8
FE01F8
FE01F8
FE01F8
FE01F8
FE01F8
FE01F8
FE01F8
FE01F8
FE01F8
FE01F8
FE01F8
FE01F8
FE01F8
FE01F8
7E01F8
7E03F8
7F87F8
7FFFF8
3FFFF8
3FFDF8
1FF9F8
07E1F8
ENDCHAR
STARTCHAR 016E
ENCODING 366
SWIDTH 720 0
DWIDTH 31 0
BBX 25 42 3 -1
BITMAP
001E0000
003F0000
00630000
00618000
00630000
003F0000
001E0000
00000000
00000000
FE001F80
FE001F80
FE001F80
FE001F80
FE001F80
FE001F80
FE001F80
FE001F80
FE001F80
FE001F80
FE001F80
FE001F80
FE001F80
FE001F80
FE001F80
FE001F80
FE001F80
FE001F80
FE001F80
FE001F80
FE001F80
FE001F80
FE001F80
FE001F80
FE003F80
7F003F80
7F807F00
3FFFFF00
3FFFFE00
1FFFFC00
0FFFF800
03FFF000
00FF8000
ENDCHAR
STARTCHAR 016F
ENCODING 367
SWIDTH 603 0
DWIDTH 26 0
BBX 21 35 2 -1
BITMAP
007800
00FC00
01CE00
018600
018600
01CE00
00FC00
007800
000000
000000
FE01F8
FE01F8
FE01F8
FE01F8
FE01F8
FE01F8
FE01F8
FE01F8
FE01F8
FE01F8
FE01F8
FE01F8
FE01F8
FE01F8
FE01F8
FE01F8
FE01F8
7E01F8
7E03F8
7F87F8
7FFFF8
3FFFF8
3FFDF8
1FF9F8
07E1F8
ENDCHAR
STARTCHAR 0170
ENCODING 368
SWIDTH 720 0
DWIDTH 31 0
BBX 25 42 3 -1
BITMAP
003E3E00
003C3E00
007C7C00
00787800
00F0F000
00E0E000
00000000
00000000
00000000
FE001F80
FE001F80
FE001F80
FE001F80
FE001F80
FE001F80
FE001F80
FE001F80
FE001F80
FE001F80
FE001F80
FE001F80
FE001F80
FE001F80
FE001F80
FE001F80
FE001F80
FE001F80
FE001F80
FE001F80
FE001F80
FE001F80
FE001F80
FE001F80
FE003F80
7F003F80
7F807F00
3FFFFF00
3FFFFE00
1FFFFC00
0FFFF800
03FFF000
00FF8000
ENDCHAR
STARTCHAR 0171
ENCODING 369
SWIDTH 603 0
DWIDTH 26 0
BBX 22 33 2 -1
BITMAP
00FC7C
00F8F8
00F0F0
01E1E0
01C1E0
03C3C0
038380
000000
FE01F8
FE01F8
FE01F8
FE01F8
FE01F8
FE01F8
FE01F8
FE01F8
FE01F8
FE01F8
FE01F8
FE01F8
FE01F8
FE01F8
FE01F8
FE01F8
FE01F8
7E01F8
7E03F8
7F87F8
7FFFF8
3FFFF8
3FFDF8
1FF9F8
07E1F8
ENDCHAR
STARTCHAR 0172
ENCODING 370
SWIDTH 720 0
DWIDTH 31 0
BBX 25 42 3 -10
BITMAP
FE001F80
FE001F80
FE001F80
FE001F80
FE001F80
FE001F80
FE001F80
FE001F80
FE001F80
FE001F80
FE001F80
FE001F80
FE001F80
FE001F80
FE001F80
FE001F80
FE001F80
FE001F80
FE001F80
FE001F80
FE001F80
FE001F80
FE001F80
FE001F80
FE003F80
7F003F80
7F807F00
3FFFFF00
3FFFFE00
1FFFFE00
0FFFFC00
03FFF800
00FFF000
0000E000
0001C000
00038000
00078000
00078000
00078000
0007C000
0003FE00
0000FE00
ENDCHAR
STARTCHAR 0173
ENCODING 371
SWIDTH 603 0
DWIDTH 26 0
BBX 22 34 2 -10
BITMAP
FE01F8
FE01F8
FE01F8
FE01F8
FE01F8
FE01F8
FE01F8
FE01F8
FE01F8
FE01F8
FE01F8
FE01F8
FE01F8
FE01F8
FE01F8
FE01F8
FE01F8
7E01F8
7E03F8
7F87F8
7FFFF8
3FFFF8
3FFDF8
1FF9F8
07E1F8
000070
0001E0
0003C0
000780
000780
000780
0007C0
0003FC
0000FC
ENDCHAR
STARTCHAR 0174
ENCODING 372
SWIDTH 952 0
DWIDTH 41 0
BBX 39 42 1 -1
BITMAP
00007C0000
0000FE0000
0001EE0000
0001CF0000
0003878000
0007838000
000701C000
0000000000
0000000000
FE00FE00FE
FE00FE00FE
FE00FE00FC
FE01FE00FC
7E01FE01FC
7F01FF01FC
7F01FF01F8
3F01FF01F8
3F03EF01F8
3F03EF03F8
3F03EF83F0
1F83EF83F0
1F83CF83F0
1F87C783F0
1F87C783E0
0F87C7C7E0
0FC7C7C7E0
0FC787C7E0
07CF83C7C0
07CF83E7C0
07CF83EFC0
07EF83EF80
03EF03EF80
03EF01EF80
03FF01FF80
03FF01FF00
01FF01FF00
01FE01FF00
01FE00FF00
01FE00FE00
00FE00FE00
00FE00FE00
00FC00FE00
ENDCHAR
STARTCHAR 0175
ENCODING 373
SWIDTH 789 0
DWIDTH 34 0
BBX 33 34 0 -1
BITMAP
0003E00000
0003F00000
0007F80000
000F380000
001E3C0000
001C1E0000
00380E0000
0000000000
0000000000
FE03F01F80
7E07F03F80
7E07F03F00
7E07F03F00
7E07F83F00
3F07F83F00
3F0FF87E00
3F0FF87E00
3F0F787E00
1F0F7C7C00
1F8F7C7C00
1F9F7CFC00
1F9F3CFC00
0F9E3CF800
0FDE3EF800
0FDE3EF800
07FE3FF800
07FE1FF000
07FC1FF000
07FC1FF000
03FC1FF000
03FC1FE000
03F80FE000
03F80FE000
01F80FE000
ENDCHAR
STARTCHAR 0176
ENCODING 374
SWIDTH 673 0
DWIDTH 29 0
BBX 27 42 1 -1
BITMAP
001F0000
003F8000
007B8000
0073C000
00E1E000
01E0F000
01C07000
00000000
00000000
FF000FE0
7F001FC0
7F001FC0
3F803F80
3F803F80
1FC07F00
1FC07F00
0FE07E00
0FE0FE00
07F0FC00
07F1FC00
03F1F800
03F9F800
01FBF800
01FFF000
00FFF000
00FFE000
007FE000
007FC000
003FC000
003F8000
001F8000
001F8000
001F8000
001F8000
001F8000
001F8000
001F8000
001F8000
001F8000
001F8000
001F8000
001F8000
ENDCHAR
STARTCHAR 0177
ENCODING 375
SWIDTH 557 0
DWIDTH 24 0
BBX 22 42 1 -9
BITMAP
00FC00
01FE00
01DE00
03CF00
078780
070380
000000
000000
000000
FC00FC
FC00FC
FE01F8
7E01F8
7E01F8
7F03F0
3F03F0
3F03F0
3F83E0
1F87E0
1F87E0
1F87C0
0FCFC0
0FCFC0
0FCF80
07EF80
07FF80
07FF00
03FF00
03FF00
03FE00
01FE00
01FE00
00FC00
00FC00
00FC00
00F800
01F800
03F800
1FF000
1FF000
1FE000
1FC000
ENDCHAR
STARTCHAR 0178
ENCODING 376
SWIDTH 673 0
DWIDTH 29 0
BBX 27 41 1 -1
BITMAP
01F1F000
01F1F000
01F1F000
01F1F000
01F1F000
00000000
00000000
00000000
FF000FE0
7F001FC0
7F001FC0
3F803F80
3F803F80
1FC07F00
1FC07F00
0FE07E00
0FE0FE00
07F0FC00
07F1FC00
03F1F800
03F9F800
01FBF800
01FFF000
00FFF000
00FFE000
007FE000
007FC000
003FC000
003F8000
001F8000
001F8000
001F8000
001F8000
001F8000
001F8000
001F8000
001F8000
001F8000
001F8000
001F8000
001F8000
ENDCHAR
STARTCHAR 0179
ENCODING 377
SWIDTH 603 0
DWIDTH 26 0
BBX 24 42 1 -1
BITMAP
000FC0
000F80
001F00
001E00
001C00
003800
003800
000000
000000
FFFFFF
FFFFFF
FFFFFF
FFFFFF
FFFFFF
0000FF
0000FE
0001FC
0003FC
0007F8
0007F0
000FE0
001FE0
003FC0
003F80
007F80
00FF00
00FE00
01FC00
03FC00
07F800
07F000
0FF000
1FE000
1FC000
3F8000
7F8000
FF0000
FFFFFF
FFFFFF
FFFFFF
FFFFFF
FFFFFF
ENDCHAR
STARTCHAR 017A
ENCODING 378
SWIDTH 510 0
DWIDTH 22 0
BBX 19 34 1 -1
BITMAP
003E00
007C00
007800
00F000
00F000
00E000
000000
000000
000000
7FFFE0
7FFFE0
7FFFE0
7FFFE0
7FFFE0
001FC0
003FC0
007F80
007F00
00FE00
01FE00
03FC00
03F800
07F000
0FF000
1FE000
1FC000
3F8000
7F8000
FF0000
FFFFE0
FFFFE0
FFFFE0
FFFFE0
FFFFE0
ENDCHAR
STARTCHAR 017B
ENCODING 379
SWIDTH 603 0
DWIDTH 26 0
BBX 24 41 1 -1
BITMAP
003E00
003E00
003E00
003E00
003E00
000000
000000
000000
FFFFFF
FFFFFF
FFFFFF
FFFFFF
FFFFFF
0000FF
0000FE
0001FC
0003FC
0007F8
0007F0
000FE0
001FE0
003FC0
003F80
007F80
00FF00
00FE00
01FC00
03FC00
07F800
07F000
0FF000
1FE000
1FC000
3F8000
7F8000
FF0000
FFFFFF
FFFFFF
FFFFFF
FFFFFF
FFFFFF
ENDCHAR
STARTCHAR 017C
ENCODING 380
SWIDTH 510 0
DWIDTH 22 0
BBX 19 34 1 -1
BITMAP
01F000
01F000
01F000
01F000
01F000
000000
000000
000000
000000
7FFFE0
7FFFE0
7FFFE0
7FFFE0
7FFFE0
001FC0
003FC0
007F80
007F00
00FE00
01FE00
03FC00
03F800
07F000
0FF000
1FE000
1FC000
3F8000
7F8000
FF0000
FFFFE0
FFFFE0
FFFFE0
FFFFE0
FFFFE0
ENDCHAR
STARTCHAR 017D
ENCODING 381
SWIDTH 603 0
DWIDTH 26 0
BBX 24 42 1 -1
BITMAP
0381E0
03C1C0
01E380
00F780
00FF00
007E00
003C00
000000
000000
FFFFFF
FFFFFF
FFFFFF
FFFFFF
FFFFFF
0000FF
0000FE
0001FC
0003FC
0007F8
0007F0
000FE0
001FE0
003FC0
003F80
007F80
00FF00
00FE00
01FC00
03FC00
07F800
07F000
0FF000
1FE000
1FC000
3F8000
7F8000
FF0000
FFFFFF
FFFFFF
FFFFFF
FFFFFF
FFFFFF
ENDCHAR
STARTCHAR 017E
ENCODING 382
SWIDTH 510 0
DWIDTH 22 0
BBX 19 34 1 -1
BITMAP
1E0700
0F0E00
079E00
03FC00
03F800
01F000
000000
000000
000000
7FFFE0
7FFFE0
7FFFE0
7FFFE0
7FFFE0
001FC0
003FC0
007F80
007F00
00FE00
01FE00
03FC00
03F800
07F000
0FF000
1FE000
1FC000
3F8000
7F8000
FF0000
FFFFE0
FFFFE0
FFFFE0
FFFFE0
FFFFE0
ENDCHAR
STARTCHAR 017F
ENCODING 383
SWIDTH 278 0
DWIDTH 12 0
BBX 13 33 -1 -1
BITMAP
01F8
07F8
0FF8
0FF8
0FF8
0FC0
0FC0
0FC0
0FC0
FFC0
FFC0
FFC0
FFC0
0FC0
0FC0
0FC0
0FC0
0FC0
0FC0
0FC0
0FC0
0FC0
0FC0
0FC0
0FC0
0FC0
0FC0
0FC0
0FC0
0FC0
0FC0
0FC0
0FC0
ENDCHAR
STARTCHAR 0192
ENCODING 402
SWIDTH 557 0
DWIDTH 24 0
BBX 22 41 1 -9
BITMAP
0001F8
0007FC
000FFC
000FFC
001FF8
001F80
003F00
003F00
003F00
003F00
003E00
1FFFF8
1FFFF8
1FFFF8
1FFFF8
007E00
007C00
00FC00
00FC00
00FC00
00FC00
00FC00
00F800
01F800
01F800
01F800
01F800
01F800
01F800
01F000
03F000
03F000
03F000
03F000
07E000
47E000
7FE000
FFC000
FFC000
FF0000
7E0000
ENDCHAR
STARTCHAR 01FA
ENCODING 506
SWIDTH 720 0
DWIDTH 31 0
BBX 29 47 1 -1
BITMAP
003E0000
003C0000
007C0000
00780000
00F00000
00E78000
001FC000
0018C000
0018C000
0018C000
001FC000
000F8000
00000000
00000000
001FE000
001FE000
003FE000
003FF000
003FF000
007FF000
007FF800
007FF800
00FFF800
00FDFC00
00FDFC00
01FCFC00
01F8FE00
01F8FE00
03F87E00
03F07F00
03F07F00
07F03F00
07E03F80
07E03F80
0FE01F80
0FFFFF80
0FFFFFC0
1FFFFFC0
1FFFFFC0
1FFFFFE0
3F8007E0
3F0007E0
3F0007F0
7F0003F0
7E0003F0
7E0003F8
FE0003F8
ENDCHAR
STARTCHAR 01FB
ENCODING 507
SWIDTH 557 0
DWIDTH 24 0
BBX 22 39 1 -1
BITMAP
03F000
03E000
07C000
078000
0F0000
0EF800
01FC00
018C00
018C00
018C00
01FC00
00F000
000000
000000
01FE00
0FFF80
1FFFE0
3FFFE0
3FFFF0
7F07F0
7E03F0
7E03F0
0003F0
000FF0
01FFF0
0FFFF0
3FFFF0
7FF3F0
7F03F0
7E03F0
FC03F0
FC03F0
FC07F0
FE0FF0
7FFFF0
7FFFF0
3FFBF8
1FF3FC
0FC1FC
ENDCHAR
STARTCHAR 01FC
ENCODING 508
SWIDTH 998 0
DWIDTH 43 0
BBX 42 42 0 -1
BITMAP
000000FC0000
000000F80000
000001F00000
000001E00000
000003C00000
000003800000
000007800000
000000000000
000000000000
001FFFFFFF80
001FFFFFFF80
001FFFFFFF80
003FFFFFFF80
003FFFFFFF80
007F1F800000
007E1F800000
007E1F800000
00FE1F800000
00FC1F800000
00FC1F800000
01FC1F800000
01F81F800000
01F81FFFFF00
03F81FFFFF00
03F01FFFFF00
03F01FFFFF00
07F01FFFFF00
07E01F800000
07E01F800000
0FE01F800000
0FFFFF800000
0FFFFF800000
1FFFFF800000
1FFFFF800000
1FFFFF800000
3F801F800000
3F001F800000
3F001FFFFFC0
7F001FFFFFC0
7E001FFFFFC0
7E001FFFFFC0
FE001FFFFFC0
ENDCHAR
STARTCHAR 01FD
ENCODING 509
SWIDTH 882 0
DWIDTH 38 0
BBX 36 34 1 -1
BITMAP
00007C0000
0000780000
0000F80000
0000F00000
0001E00000
0001C00000
0003800000
0000000000
0000000000
01FE07F000
0FFF9FFE00
1FFFFFFF00
3FFFFFFF80
3FFFFFFFC0
7F07FC0FC0
7E03F807E0
7E03F807E0
0003F807E0
000FF003F0
03FFFFFFF0
0FFFFFFFF0
3FFFFFFFF0
7FF3FFFFF0
7F03F00000
FE03F00000
FC03F00000
FC03F803F0
FC07F807E0
FE0FFC0FE0
7FFFFFFFC0
7FFE7FFF80
3FFC3FFF00
1FF81FFE00
0FE007F000
ENDCHAR
STARTCHAR 01FE
ENCODING 510
SWIDTH 789 0
DWIDTH 34 0
BBX 30 42 2 -2
BITMAP
0007E000
0007C000
00078000
000F0000
000E0000
001C0000
00000000
00000000
001FE018
00FFFC1C
03FFFE3C
07FFFFF8
0FFFFFF0
1FFFFFE0
3FE01FE0
3F800FF0
7F000FF0
7F001FF8
FE001FF8
FE003DF8
FC0079F8
FC00F1FC
FC01E1FC
FC03C1FC
FC0781FC
FC0F01FC
FC1E01FC
FC3C01FC
FC7801F8
FE7801F8
FEF003F8
7FE003F8
7FC007F0
3F800FF0
3FE01FE0
1FFFFFC0
3FFFFFC0
7FFFFF80
F3FFFE00
F0FFFC00
E03FE000
40000000
ENDCHAR
STARTCHAR 01FF
ENCODING 511
SWIDTH 603 0
DWIDTH 26 0
BBX 25 34 1 -2
BITMAP
001F8000
001F0000
003E0000
003C0000
00780000
00700000
00700000
00000000
00000000
00FF0300
03FFC780
07FFFF00
1FFFFE00
1FFFFC00
3FC3FC00
3F00FE00
7F01FE00
7E03FE00
7E07FF00
7E0F7F00
7E1E3F00
7E1C3F00
7E383F00
7E703F00
7EE07E00
7FC07E00
7F80FE00
3F80FE00
3FC1FC00
1FFFFC00
3FFFF800
7FFFF000
E3FFC000
C0FF0000
ENDCHAR
STARTCHAR 0218
ENCODING 536
SWIDTH 673 0
DWIDTH 29 0
BBX 26 46 1 -14
BITMAP
007F8000
03FFF000
0FFFFC00
1FFFFE00
3FFFFF00
3FC1FF00
7F007F80
7E003F80
7E001F80
7E001F80
7E000000
7F000000
7FC00000
3FFE0000
3FFFF000
1FFFFC00
07FFFF00
01FFFF80
000FFF80
0000FFC0
00003FC0
00001FC0
00000FC0
FE000FC0
7E000FC0
7F000FC0
7F801FC0
3FE07F80
3FFFFF80
1FFFFF00
0FFFFE00
03FFF800
007FC000
00000000
00000000
001F0000
001F0000
001F0000
001F0000
001F0000
00030000
00030000
00070000
000E0000
001C0000
00100000
ENDCHAR
STARTCHAR 0219
ENCODING 537
SWIDTH 557 0
DWIDTH 24 0
BBX 21 38 1 -14
BITMAP
01FE00
07FF80
1FFFE0
3FFFE0
3FFFF0
7F03F0
7E01F8
7E01F8
7F0000
7FF000
3FFE00
3FFFC0
1FFFF0
03FFF0
007FF8
000FF8
0003F8
FC01F8
FE01F8
7E03F8
7FFFF8
3FFFF0
3FFFE0
0FFFC0
03FE00
000000
000000
007C00
007C00
007C00
007C00
007C00
000C00
001C00
001800
007800
007000
004000
ENDCHAR
STARTCHAR 021A
ENCODING 538
SWIDTH 603 0
DWIDTH 26 0
BBX 25 46 1 -14
BITMAP
FFFFFF80
FFFFFF80
FFFFFF80
FFFFFF80
FFFFFF80
007F0000
007F0000
007F0000
007F0000
007F0000
007F0000
007F0000
007F0000
007F0000
007F0000
007F0000
007F0000
007F0000
007F0000
007F0000
007F0000
007F0000
007F0000
007F0000
007F0000
007F0000
007F0000
007F0000
007F0000
007F0000
007F0000
007F0000
007F0000
00000000
00000000
003E0000
003E0000
003E0000
003E0000
003E0000
00060000
00060000
000E0000
001C0000
00380000
00200000
ENDCHAR
STARTCHAR 021B
ENCODING 539
SWIDTH 325 0
DWIDTH 14 0
BBX 12 43 1 -14
BITMAP
1F80
1F80
1F80
1F80
1F80
1F80
FFF0
FFF0
FFF0
FFF0
1F80
1F80
1F80
1F80
1F80
1F80
1F80
1F80
1F80
1F80
1F80
1F80
1F80
1F80
1F80
1FF0
1FF0
1FF0
0FF0
07F0
0000
0000
0FC0
0FC0
0FC0
0FC0
0FC0
01C0
0180
0180
0700
0F00
0800
ENDCHAR
STARTCHAR 02C6
ENCODING 710
SWIDTH 325 0
DWIDTH 14 0
BBX 13 7 1 26
BITMAP
0F80
1F80
3FC0
39E0
78E0
F070
E078
ENDCHAR
STARTCHAR 02C7
ENCODING 711
SWIDTH 325 0
DWIDTH 14 0
BBX 14 7 0 26
BITMAP
F01C
7838
3C78
3CF0
1FE0
0FC0
07C0
ENDCHAR
STARTCHAR 02C9
ENCODING 713
SWIDTH 325 0
DWIDTH 14 0
BBX 13 3 1 28
BITMAP
FFF8
FFF8
FFF8
ENDCHAR
STARTCHAR 02D8
ENCODING 728
SWIDTH 325 0
DWIDTH 14 0
BBX 11 6 2 26
BITMAP
C0E0
C0E0
F1E0
FFC0
7F80
1F00
ENDCHAR
STARTCHAR 02D9
ENCODING 729
SWIDTH 325 0
DWIDTH 14 0
BBX 5 5 5 27
BITMAP
F8
F8
F8
F8
F8
ENDCHAR
STARTCHAR 02DA
ENCODING 730
SWIDTH 325 0
DWIDTH 14 0
BBX 8 8 3 25
BITMAP
3C
7E
67
C3
C3
67
7E
3C
ENDCHAR
STARTCHAR 02DB
ENCODING 731
SWIDTH 325 0
DWIDTH 14 0
BBX 10 10 2 -11
BITMAP
0F00
1C00
7800
7000
F000
F000
F000
F800
7FC0
1FC0
ENDCHAR
STARTCHAR 02DC
ENCODING 732
SWIDTH 325 0
DWIDTH 14 0
BBX 15 5 0 28
BITMAP
3C0E
7F0E
FFFC
FFFC
E0F8
ENDCHAR
STARTCHAR 02DD
ENCODING 733
SWIDTH 325 0
DWIDTH 14 0
BBX 17 7 -2 26
BITMAP
1F1F80
1F1F00
3E3E00
3C3C00
787800
707000
E0E000
ENDCHAR
STARTCHAR 0384
ENCODING 900
SWIDTH 325 0
DWIDTH 14 0
BBX 4 9 5 25
BITMAP
F0
F0
F0
F0
F0
F0
70
60
60
ENDCHAR
STARTCHAR 0385
ENCODING 901
SWIDTH 464 0
DWIDTH 20 0
BBX 12 11 4 27
BITMAP
0F00
0F00
0F00
0F00
0F00
0F00
F6F0
F6F0
F0F0
F0F0
F0F0
ENDCHAR
STARTCHAR 0386
ENCODING 902
SWIDTH 720 0
DWIDTH 31 0
BBX 29 33 1 -1
BITMAP
3C1FE000
3C1FE000
3C3FE000
3C3FF000
3C3FF000
3C7FF000
387FF800
387FF800
18FFF800
00FDFC00
00FDFC00
01FCFC00
01F8FE00
01F8FE00
03F87E00
03F07F00
03F07F00
07F03F00
07E03F80
07E03F80
0FE01F80
0FFFFF80
0FFFFFC0
1FFFFFC0
1FFFFFC0
1FFFFFE0
3F8007E0
3F0007E0
3F0007F0
7F0003F0
7E0003F0
7E0003F8
FE0003F8
ENDCHAR
STARTCHAR 0387
ENCODING 903
SWIDTH 278 0
DWIDTH 12 0
BBX 5 5 3 7
BITMAP
F8
F8
F8
F8
F8
ENDCHAR
STARTCHAR 0388
ENCODING 904
SWIDTH 859 0
DWIDTH 37 0
BBX 31 33 2 -1
BITMAP
F9FFFFFC
F9FFFFFC
F9FFFFFC
F9FFFFFC
F9FFFFFC
71FC0000
71FC0000
71FC0000
61FC0000
01FC0000
01FC0000
01FC0000
01FC0000
01FFFFF8
01FFFFF8
01FFFFF8
01FFFFF8
01FFFFF8
01FC0000
01FC0000
01FC0000
01FC0000
01FC0000
01FC0000
01FC0000
01FC0000
01FC0000
01FC0000
01FFFFFE
01FFFFFE
01FFFFFE
01FFFFFE
01FFFFFE
ENDCHAR
STARTCHAR 0389
ENCODING 905
SWIDTH 905 0
DWIDTH 39 0
BBX 32 33 2 -1
BITMAP
F1F8003F
F1F8003F
F1F8003F
F1F8003F
F1F8003F
F1F8003F
F1F8003F
61F8003F
61F8003F
01F8003F
01F8003F
01F8003F
01F8003F
01FFFFFF
01FFFFFF
01FFFFFF
01FFFFFF
01FFFFFF
01F8003F
01F8003F
01F8003F
01F8003F
01F8003F
01F8003F
01F8003F
01F8003F
01F8003F
01F8003F
01F8003F
01F8003F
01F8003F
01F8003F
01F8003F
ENDCHAR
STARTCHAR 038A
ENCODING 906
SWIDTH 464 0
DWIDTH 20 0
BBX 14 33 2 -1
BITMAP
F9FC
F9FC
F9FC
F9FC
F9FC
F1FC
71FC
71FC
61FC
01FC
01FC
01FC
01FC
01FC
01FC
01FC
01FC
01FC
01FC
01FC
01FC
01FC
01FC
01FC
01FC
01FC
01FC
01FC
01FC
01FC
01FC
01FC
01FC
ENDCHAR
STARTCHAR 038C
ENCODING 908
SWIDTH 836 0
DWIDTH 36 0
BBX 34 33 0 -1
BITMAP
F801FE0000
F80FFFC000
F83FFFE000
F87FFFF800
F0FFFFFC00
F1FFFFFC00
73FE01FE00
63F800FF00
67F0007F00
07F0003F80
07E0003F80
0FE0001F80
0FE0001F80
0FC0001FC0
0FC0001FC0
0FC0001FC0
0FC0001FC0
0FC0001FC0
0FC0001FC0
0FC0001FC0
0FE0001F80
0FE0001F80
07E0003F80
07F0003F80
07F0007F00
03F800FF00
03FE01FE00
01FFFFFC00
00FFFFFC00
007FFFF800
003FFFE000
000FFFC000
0003FE0000
ENDCHAR
STARTCHAR 038E
ENCODING 910
SWIDTH 929 0
DWIDTH 40 0
BBX 33 33 3 -1
BITMAP
FBF8007F80
F9FC007F00
F9FC007F00
F8FE00FE00
F8FE00FE00
707F01FC00
707F01FC00
703F81F800
703F83F800
001F83F000
001FC7F000
000FC7E000
000FEFE000
0007EFC000
0007FFC000
0003FF8000
0003FF8000
0001FF0000
0001FF0000
0000FF0000
0000FE0000
0000FE0000
0000FE0000
0000FE0000
0000FE0000
0000FE0000
0000FE0000
0000FE0000
0000FE0000
0000FE0000
0000FE0000
0000FE0000
0000FE0000
ENDCHAR
STARTCHAR 038F
ENCODING 911
SWIDTH 836 0
DWIDTH 36 0
BBX 35 33 0 -1
BITMAP
F801FE0000
F80FFFC000
F83FFFF000
F87FFFF800
F8FFFFFC00
79FF03FE00
73FC00FF00
73F8007F00
77F0003F80
07F0003F80
07E0001F80
0FE0001FC0
0FE0001FC0
0FE0001FC0
0FC0001FC0
0FC0001FC0
0FC0001FC0
0FE0001FC0
0FE0001FC0
0FE0001FC0
07E0001F80
07E0001F80
07F0003F00
03F0003F00
01F8007E00
00FC00FC00
007E01F800
003F87F000
1FFF87FFE0
1FFF87FFE0
1FFF87FFE0
1FFF87FFE0
1FFF87FFE0
ENDCHAR
STARTCHAR 0390
ENCODING 912
SWIDTH 278 0
DWIDTH 12 0
BBX 12 40 0 -1
BITMAP
0F00
0F00
0F00
0F00
0F00
0F00
F6F0
F6F0
F0F0
F0F0
F0F0
0000
0000
0000
0000
1F80
1F80
1F80
1F80
1F80
1F80
1F80
1F80
1F80
1F80
1F80
1F80
1F80
1F80
1F80
1F80
1F80
1F80
1F80
1F80
1F80
1F80
1F80
1F80
1F80
ENDCHAR
STARTCHAR 0391
ENCODING 913
SWIDTH 720 0
DWIDTH 31 0
BBX 29 33 1 -1
BITMAP
001FE000
001FE000
003FE000
003FF000
003FF000
007FF000
007FF800
007FF800
00FFF800
00FDFC00
00FDFC00
01FCFC00
01F8FE00
01F8FE00
03F87E00
03F07F00
03F07F00
07F03F00
07E03F80
07E03F80
0FE01F80
0FFFFF80
0FFFFFC0
1FFFFFC0
1FFFFFC0
1FFFFFE0
3F8007E0
3F0007E0
3F0007F0
7F0003F0
7E0003F0
7E0003F8
FE0003F8
ENDCHAR
STARTCHAR 0392
ENCODING 914
SWIDTH 720 0
DWIDTH 31 0
BBX 25 33 4 -1
BITMAP
FFFFC000
FFFFF000
FFFFF800
FFFFFC00
FFFFFE00
FC03FE00
FC007F00
FC007F00
FC003F00
FC003F00
FC007F00
FC007E00
FC00FE00
FFFFFC00
FFFFF800
FFFFF000
FFFFF800
FFFFFC00
FC03FE00
FC007F00
FC003F00
FC003F80
FC003F80
FC003F80
FC003F80
FC003F00
FC007F00
FC01FF00
FFFFFE00
FFFFFE00
FFFFFC00
FFFFF000
FFFFC000
ENDCHAR
STARTCHAR 0393
ENCODING 915
SWIDTH 603 0
DWIDTH 26 0
BBX 22 33 3 -1
BITMAP
FFFFFC
FFFFFC
FFFFFC
FFFFFC
FFFFFC
FE0000
FE0000
FE0000
FE0000
FE0000
FE0000
FE0000
FE0000
FE0000
FE0000
FE0000
FE0000
FE0000
FE0000
FE0000
FE0000
FE0000
FE0000
FE0000
FE0000
FE0000
FE0000
FE0000
FE0000
FE0000
FE0000
FE0000
FE0000
ENDCHAR
STARTCHAR 0394
ENCODING 916
SWIDTH 720 0
DWIDTH 31 0
BBX 31 33 0 -1
BITMAP
001FF000
001FF000
003FF000
003FF800
003FF800
007FFC00
007FFC00
007EFC00
00FEFE00
00FEFE00
00FC7E00
01FC7F00
01FC7F00
01F83F00
03F83F80
03F83F80
03F01F80
07F01FC0
07F01FC0
07E00FC0
0FE00FE0
0FE00FE0
0FC007E0
1FC007F0
1FC007F0
1F8003F0
3F8003F8
3F8003F8
3FFFFFF8
7FFFFFFC
7FFFFFFC
7FFFFFFC
FFFFFFFE
ENDCHAR
STARTCHAR 0395
ENCODING 917
SWIDTH 673 0
DWIDTH 29 0
BBX 24 33 3 -1
BITMAP
FFFFFE
FFFFFE
FFFFFE
FFFFFE
FFFFFE
FE0000
FE0000
FE0000
FE0000
FE0000
FE0000
FE0000
FE0000
FFFFFC
FFFFFC
FFFFFC
FFFFFC
FFFFFC
FE0000
FE0000
FE0000
FE0000
FE0000
FE0000
FE0000
FE0000
FE0000
FE0000
FFFFFF
FFFFFF
FFFFFF
FFFFFF
FFFFFF
ENDCHAR
STARTCHAR 0396
ENCODING 918
SWIDTH 603 0
DWIDTH 26 0
BBX 24 33 1 -1
BITMAP
FFFFFF
FFFFFF
FFFFFF
FFFFFF
FFFFFF
0000FF
0000FE
0001FC
0003FC
0007F8
0007F0
000FE0
001FE0
003FC0
003F80
007F80
00FF00
00FE00
01FC00
03FC00
07F800
07F000
0FF000
1FE000
1FC000
3F8000
7F8000
FF0000
FFFFFF
FFFFFF
FFFFFF
FFFFFF
FFFFFF
ENDCHAR
STARTCHAR 0397
ENCODING 919
SWIDTH 720 0
DWIDTH 31 0
BBX 25 33 3 -1
BITMAP
FC001F80
FC001F80
FC001F80
FC001F80
FC001F80
FC001F80
FC001F80
FC001F80
FC001F80
FC001F80
FC001F80
FC001F80
FC001F80
FFFFFF80
FFFFFF80
FFFFFF80
FFFFFF80
FFFFFF80
FC001F80
FC001F80
FC001F80
FC001F80
FC001F80
FC001F80
FC001F80
FC001F80
FC001F80
FC001F80
FC001F80
FC001F80
FC001F80
FC001F80
FC001F80
ENDCHAR
STARTCHAR 0398
ENCODING 920
SWIDTH 789 0
DWIDTH 34 0
BBX 30 33 2 -1
BITMAP
001FE000
00FFFC00
03FFFE00
07FFFF80
0FFFFFC0
1FFFFFE0
1FE01FE0
3FC00FF0
7F8007F0
7F0003F8
7E0003F8
FE0001F8
FE0001FC
FC0001FC
FC0001FC
FC7FF9FC
FC7FF9FC
FC7FF9FC
FC7FF9FC
FC0001FC
FE0001FC
FE0001F8
7E0003F8
7F0003F8
7F0007F0
3F800FF0
3FE01FE0
1FFFFFE0
0FFFFFC0
07FFFF80
03FFFE00
00FFFC00
001FE000
ENDCHAR
STARTCHAR 0399
ENCODING 921
SWIDTH 278 0
DWIDTH 12 0
BBX 6 33 3 -1
BITMAP
FC
FC
FC
FC
FC
FC
FC
FC
FC
FC
FC
FC
FC
FC
FC
FC
FC
FC
FC
FC
FC
FC
FC
FC
FC
FC
FC
FC
FC
FC
FC
FC
FC
ENDCHAR
STARTCHAR 039A
ENCODING 922
SWIDTH 720 0
DWIDTH 31 0
BBX 27 33 3 -1
BITMAP
FE003FC0
FE003F80
FE007F00
FE00FE00
FE01FE00
FE03FC00
FE07F800
FE07F000
FE0FE000
FE1FC000
FE3F8000
FE7F0000
FEFF0000
FFFE0000
FFFC0000
FFFE0000
FFFF0000
FFFF0000
FFFF8000
FF9FC000
FF1FE000
FE0FE000
FE07F000
FE07F800
FE03FC00
FE01FC00
FE00FE00
FE00FF00
FE007F80
FE003F80
FE003FC0
FE001FE0
FE000FE0
ENDCHAR
STARTCHAR 039B
ENCODING 923
SWIDTH 673 0
DWIDTH 29 0
BBX 29 33 0 -1
BITMAP
001FC000
003FC000
003FE000
003FE000
007FE000
007FF000
007FF000
00FFF000
00FDF800
00FDF800
01FDF800
01F8FC00
01F8FC00
03F8FC00
03F0FE00
03F07E00
07F07E00
07E07F00
07E03F00
0FE03F00
0FC03F80
0FC01F80
1FC01F80
1F801FC0
1F800FC0
3F800FC0
3F000FE0
3F0007E0
7F0007E0
7E0007F0
7E0003F0
FE0003F0
FE0003F8
ENDCHAR
STARTCHAR 039C
ENCODING 924
SWIDTH 836 0
DWIDTH 36 0
BBX 30 33 3 -1
BITMAP
FFC007FC
FFC00FFC
FFC00FFC
FFC00FFC
FFC00FFC
FFE00FFC
FFE01FFC
FFE01FFC
FDE01FFC
FDF01EFC
FDF03EFC
FDF03EFC
FDF03EFC
FCF03EFC
FCF83CFC
FCF87CFC
FCF87CFC
FC787CFC
FC787CFC
FC7C78FC
FC7CF8FC
FC7CF8FC
FC3CF8FC
FC3EF0FC
FC3EF0FC
FC3FF0FC
FC3FF0FC
FC1FF0FC
FC1FE0FC
FC1FE0FC
FC1FE0FC
FC0FE0FC
FC0FE0FC
ENDCHAR
STARTCHAR 039D
ENCODING 925
SWIDTH 720 0
DWIDTH 31 0
BBX 25 33 3 -1
BITMAP
FE001F80
FE001F80
FF001F80
FF001F80
FF801F80
FFC01F80
FFC01F80
FFE01F80
FFE01F80
FFF01F80
FDF01F80
FDF81F80
FCF81F80
FCFC1F80
FC7E1F80
FC7E1F80
FC3F1F80
FC3F1F80
FC1F9F80
FC0F9F80
FC0FDF80
FC07DF80
FC07FF80
FC03FF80
FC03FF80
FC01FF80
FC01FF80
FC00FF80
FC007F80
FC007F80
FC003F80
FC003F80
FC001F80
ENDCHAR
STARTCHAR 039E
ENCODING 926
SWIDTH 650 0
DWIDTH 28 0
BBX 26 33 1 -1
BITMAP
FFFFFF80
FFFFFF80
FFFFFF80
FFFFFF80
FFFFFF80
00000000
00000000
00000000
00000000
00000000
00000000
00000000
00000000
3FFFFF00
3FFFFF00
3FFFFF00
3FFFFF00
3FFFFF00
00000000
00000000
00000000
00000000
00000000
00000000
00000000
00000000
00000000
00000000
FFFFFFC0
FFFFFFC0
FFFFFFC0
FFFFFFC0
FFFFFFC0
ENDCHAR
STARTCHAR 039F
ENCODING 927
SWIDTH 789 0
DWIDTH 34 0
BBX 30 33 2 -1
BITMAP
001FE000
00FFFC00
03FFFE00
07FFFF80
0FFFFFC0
1FFFFFE0
1FE01FE0
3F800FF0
7F8007F0
7F0003F8
7E0003F8
FE0001F8
FE0001FC
FC0001FC
FC0001FC
FC0001FC
FC0001FC
FC0001FC
FC0001FC
FC0001FC
FE0001FC
FE0001F8
7E0003F8
7F0003F8
7F8007F0
3FC00FF0
3FE01FE0
1FFFFFE0
0FFFFFC0
07FFFF80
03FFFE00
00FFFC00
001FE000
ENDCHAR
STARTCHAR 03A0
ENCODING 928
SWIDTH 720 0
DWIDTH 31 0
BBX 25 33 3 -1
BITMAP
FFFFFF80
FFFFFF80
FFFFFF80
FFFFFF80
FFFFFF80
FC001F80
FC001F80
FC001F80
FC001F80
FC001F80
FC001F80
FC001F80
FC001F80
FC001F80
FC001F80
FC001F80
FC001F80
FC001F80
FC001F80
FC001F80
FC001F80
FC001F80
FC001F80
FC001F80
FC001F80
FC001F80
FC001F80
FC001F80
FC001F80
FC001F80
FC001F80
FC001F80
FC001F80
ENDCHAR
STARTCHAR 03A1
ENCODING 929
SWIDTH 673 0
DWIDTH 29 0
BBX 24 33 3 -1
BITMAP
FFFFC0
FFFFF0
FFFFFC
FFFFFE
FFFFFE
FE07FF
FE00FF
FE007F
FE003F
FE003F
FE003F
FE003F
FE003F
FE007F
FE00FF
FE03FE
FFFFFE
FFFFFC
FFFFF8
FFFFF0
FFFFC0
FE0000
FE0000
FE0000
FE0000
FE0000
FE0000
FE0000
FE0000
FE0000
FE0000
FE0000
FE0000
ENDCHAR
STARTCHAR 03A3
ENCODING 931
SWIDTH 603 0
DWIDTH 26 0
BBX 24 33 1 -1
BITMAP
FFFFFE
FFFFFE
FFFFFE
FFFFFE
FFFFFE
FF0000
7F8000
3FC000
1FE000
0FF000
07F800
03FC00
01FE00
00FF00
007F80
003F80
003FC0
007F80
00FF00
00FE00
01FE00
03FC00
07F800
0FF000
1FE000
3FC000
7F8000
FF0000
FFFFFF
FFFFFF
FFFFFF
FFFFFF
FFFFFF
ENDCHAR
STARTCHAR 03A4
ENCODING 932
SWIDTH 603 0
DWIDTH 26 0
BBX 25 33 1 -1
BITMAP
FFFFFF80
FFFFFF80
FFFFFF80
FFFFFF80
FFFFFF80
007F0000
007F0000
007F0000
007F0000
007F0000
007F0000
007F0000
007F0000
007F0000
007F0000
007F0000
007F0000
007F0000
007F0000
007F0000
007F0000
007F0000
007F0000
007F0000
007F0000
007F0000
007F0000
007F0000
007F0000
007F0000
007F0000
007F0000
007F0000
ENDCHAR
STARTCHAR 03A5
ENCODING 933
SWIDTH 673 0
DWIDTH 29 0
BBX 27 33 1 -1
BITMAP
FF000FE0
7F001FC0
7F001FC0
3F803F80
3F803F80
1FC07F00
1FC07F00
0FE07E00
0FE0FE00
07F0FC00
07F1FC00
03F1F800
03F9F800
01FBF800
01FFF000
00FFF000
00FFE000
007FE000
007FC000
003FC000
003F8000
001F8000
001F8000
001F8000
001F8000
001F8000
001F8000
001F8000
001F8000
001F8000
001F8000
001F8000
001F8000
ENDCHAR
STARTCHAR 03A6
ENCODING 934
SWIDTH 812 0
DWIDTH 35 0
BBX 30 33 3 -1
BITMAP
000F8000
000F8000
000F8000
000F8000
007FF800
03FFFF00
0FFFFF80
1FFFFFC0
3FFFFFE0
3FEF9FF0
7F0F87F8
7E0F83F8
FE0F81F8
FC0F81FC
FC0F81FC
FC0F80FC
FC0F80FC
FC0F80FC
FC0F80FC
FC0F81FC
FE0F81F8
FE0F83F8
7F0F87F8
3FCF9FF0
3FFFFFE0
1FFFFFC0
0FFFFF80
03FFFF00
00FFF800
000F8000
000F8000
000F8000
000F8000
ENDCHAR
STARTCHAR 03A7
ENCODING 935
SWIDTH 673 0
DWIDTH 29 0
BBX 27 33 1 -1
BITMAP
7F001FC0
7F803FC0
3F803F80
3FC07F80
1FC07F00
1FE0FE00
0FE0FE00
07F1FC00
07F1FC00
03FBF800
03FBF000
01FFF000
00FFE000
00FFE000
007FC000
007F8000
003F8000
007FC000
007FC000
00FFE000
01FFF000
01FFF000
03FBF800
03F3F800
07F1FC00
0FE1FE00
0FE0FE00
1FC07F00
1FC07F00
3F803F80
7F803FC0
7F001FC0
FF001FE0
ENDCHAR
STARTCHAR 03A8
ENCODING 936
SWIDTH 812 0
DWIDTH 35 0
BBX 31 33 2 -1
BITMAP
FE0FE0FE
FE0FE0FE
FE0FE0FE
FE0FE0FE
FE0FE0FE
FE0FE0FE
FE0FE0FE
FE0FE0FE
FE0FE0FE
FE0FE0FE
FE0FE0FE
FE0FE0FE
FE0FE0FE
FE0FE0FE
FE0FE0FE
7E0FE0FC
7E0FE0FC
7E0FE0FC
7F0FE1FC
7F0FE1FC
3F8FE3F8
3FFFFFF8
1FFFFFF0
1FFFFFF0
0FFFFFE0
03FFFF80
00FFFE00
000FE000
000FE000
000FE000
000FE000
000FE000
000FE000
ENDCHAR
STARTCHAR 03A9
ENCODING 937
SWIDTH 812 0
DWIDTH 35 0
BBX 31 33 2 -1
BITMAP
001FE000
00FFFC00
01FFFF00
07FFFF80
0FFFFFC0
1FF03FE0
1FC00FF0
3F8007F0
3F8003F8
7F0001F8
7F0001FC
7E0001FC
FE0001FC
FE0000FC
FE0000FC
FE0000FC
FE0000FC
FE0000FC
FE0000FC
7E0001FC
7E0001FC
7F0001F8
3F0003F8
3F8003F0
1F8007E0
0FC00FE0
07E01F80
03F83F00
FFF87FFE
FFF87FFE
FFF87FFE
FFF87FFE
FFF87FFE
ENDCHAR
STARTCHAR 03AA
ENCODING 938
SWIDTH 278 0
DWIDTH 12 0
BBX 12 41 0 -1
BITMAP
F0F0
F0F0
F0F0
F0F0
F0F0
0000
0000
0000
1F80
1F80
1F80
1F80
1F80
1F80
1F80
1F80
1F80
1F80
1F80
1F80
1F80
1F80
1F80
1F80
1F80
1F80
1F80
1F80
1F80
1F80
1F80
1F80
1F80
1F80
1F80
1F80
1F80
1F80
1F80
1F80
1F80
ENDCHAR
STARTCHAR 03AB
ENCODING 939
SWIDTH 673 0
DWIDTH 29 0
BBX 27 41 1 -1
BITMAP
01F1F000
01F1F000
01F1F000
01F1F000
01F1F000
00000000
00000000
00000000
FF000FE0
7F001FC0
7F001FC0
3F803F80
3F803F80
1FC07F00
1FC07F00
0FE07E00
0FE0FE00
07F0FC00
07F1FC00
03F1F800
03F9F800
01FBF800
01FFF000
00FFF000
00FFE000
007FE000
007FC000
003FC000
003F8000
001F8000
001F8000
001F8000
001F8000
001F8000
001F8000
001F8000
001F8000
001F8000
001F8000
001F8000
001F8000
ENDCHAR
STARTCHAR 03AC
ENCODING 940
SWIDTH 603 0
DWIDTH 26 0
BBX 26 35 1 -1
BITMAP
00F80000
00F80000
00F80000
00F80000
00F80000
00700000
00700000
00700000
00000000
00000000
01F01FC0
07FC1F80
0FFF1F80
1FFFBF00
3FFFBF00
3F0FFF00
7E07FE00
7E03FE00
7C03FC00
FC01FC00
FC01FC00
FC01F800
FC00FC00
FC01FC00
FC01FC00
FC01FE00
FC03FE00
7E03FF00
7E07FF00
7F0FBF00
3FFF9F80
1FFF1F80
0FFE1FC0
07FC0FC0
01F00FC0
ENDCHAR
STARTCHAR 03AD
ENCODING 941
SWIDTH 441 0
DWIDTH 19 0
BBX 21 35 0 -1
BITMAP
01F000
01F000
01F000
01F000
00F000
00E000
00E000
006000
000000
000000
03FC00
0FFF80
1FFFC0
3FFFE0
3FFFF0
7F07F0
7E03F0
7E03F0
3E0000
3F0000
1FF800
1FF800
1FF800
3FF800
7FE000
7E0000
7E0000
FC01F8
FE03F0
7E07F0
7FDFE0
3FFFE0
3FFFC0
0FFF00
03FC00
ENDCHAR
STARTCHAR 03AE
ENCODING 942
SWIDTH 603 0
DWIDTH 26 0
BBX 21 44 3 -9
BITMAP
003C00
003C00
003C00
003C00
003C00
003C00
003800
001800
001800
000000
000000
FC3F00
FCFFC0
FDFFE0
FFFFF0
FFFFF0
FF87F0
FE03F8
FC03F8
FC01F8
FC01F8
FC01F8
FC01F8
FC01F8
FC01F8
FC01F8
FC01F8
FC01F8
FC01F8
FC01F8
FC01F8
FC01F8
FC01F8
FC01F8
FC01F8
0001F8
0001F8
0001F8
0001F8
0001F8
0001F8
0001F8
0001F8
0001F8
ENDCHAR
STARTCHAR 03AF
ENCODING 943
SWIDTH 278 0
DWIDTH 12 0
BBX 6 36 3 -1
BITMAP
78
78
78
78
78
78
78
30
30
00
00
FC
FC
FC
FC
FC
FC
FC
FC
FC
FC
FC
FC
FC
FC
FC
FC
FC
FC
FC
FC
FC
FC
FC
FC
FC
ENDCHAR
STARTCHAR 03B0
ENCODING 944
SWIDTH 580 0
DWIDTH 25 0
BBX 21 40 2 -1
BITMAP
00F800
00F800
00F800
00F800
007800
007000
0F7780
0F7780
0F0780
0F0780
0F0780
000000
000000
000000
000000
FC01F8
FC01F8
FC01F8
FC01F8
FC01F8
FC01F8
FC01F8
FC01F8
FC01F8
FC01F8
FC01F8
FC01F8
FC01F8
FC01F8
FC01F8
FC01F8
FC01F8
FE01F8
FE03F8
7F07F0
7FFFF0
3FFFF0
3FFFE0
0FFF80
03FE00
ENDCHAR
STARTCHAR 03B1
ENCODING 945
SWIDTH 603 0
DWIDTH 26 0
BBX 26 25 1 -1
BITMAP
03F01F80
07FC1F80
1FFE3F00
1FFF3F00
3FFFBF00
7F0FFE00
7E07FE00
7E07FC00
FC03FC00
FC03FC00
FC01F800
FC01F800
FC01F800
FC01FC00
FC03FC00
FC03FC00
FC03FE00
7E07FE00
7E0FBF00
7F1FBF00
3FFF3F00
3FFE3F80
1FFE1F80
0FF81FC0
03F01FC0
ENDCHAR
STARTCHAR 03B2
ENCODING 946
SWIDTH 603 0
DWIDTH 26 0
BBX 22 41 3 -9
BITMAP
03FC00
0FFF00
1FFF80
3FFFC0
7F0FE0
7E07E0
FC03F0
FC03F0
FC03F0
FC03F0
FC03E0
FC07E0
FC1FC0
FC7F80
FC7F00
FC7FC0
FC3FE0
FC07F0
FC03F8
FC01F8
FC01F8
FC00FC
FC00FC
FC00FC
FC01FC
FC01F8
FC01F8
FE03F8
FFDFF0
FFFFF0
FFFFE0
FDFF80
FC7E00
FC0000
FC0000
FC0000
FC0000
FC0000
FC0000
FC0000
FC0000
ENDCHAR
STARTCHAR 03B3
ENCODING 947
SWIDTH 557 0
DWIDTH 24 0
BBX 22 33 1 -9
BITMAP
FC00FC
FE01FC
7E01F8
7E01F8
7E01F8
3F03F0
3F03F0
3F03F0
1F87E0
1F87E0
0F87C0
0F87C0
0FCFC0
07CF80
07CF80
07FF80
03FF00
03FF00
03FE00
01FE00
01FE00
00FC00
00FC00
00FC00
00FC00
00FC00
00FC00
00FC00
00FC00
00FC00
00FC00
00FC00
00FC00
ENDCHAR
STARTCHAR 03B4
ENCODING 948
SWIDTH 603 0
DWIDTH 26 0
BBX 23 33 2 -1
BITMAP
1FFFF0
1FFFF0
1FFFF0
1FFFF0
1FFFF0
0FF000
03F800
01FC00
00FF00
00FF80
07FFC0
1FFFE0
3FFFF0
3FCFF8
7F03F8
FE01FC
FC00FC
FC00FC
FC00FC
FC00FE
FC007E
FC007E
FC00FC
FC00FC
FC00FC
FE01FC
7E01FC
7F83F8
3FFFF0
3FFFF0
1FFFE0
07FF80
01FE00
ENDCHAR
STARTCHAR 03B5
ENCODING 949
SWIDTH 464 0
DWIDTH 20 0
BBX 20 25 1 -1
BITMAP
03FC00
1FFF00
3FFF80
7FFFC0
7FFFE0
7E07E0
FE03F0
7C03F0
7E0000
7E0000
3FF000
1FF000
3FF000
7FF000
FFC000
FC0000
FC0000
FC03F0
FC03F0
FE07E0
FFBFE0
7FFFC0
3FFF80
1FFF00
07F800
ENDCHAR
STARTCHAR 03B6
ENCODING 950
SWIDTH 464 0
DWIDTH 20 0
BBX 19 41 1 -9
BITMAP
3FFFC0
3FFFC0
3FFFC0
3FFFC0
3FFFC0
003F80
00FE00
01FC00
03F800
07F000
0FE000
0FC000
1F8000
3F8000
3F0000
7F0000
7E0000
7E0000
FE0000
FC0000
FC0000
FC0000
FC0000
FC0000
FE0000
7F0000
7FE000
7FFF80
3FFFC0
1FFFE0
07FFE0
001FE0
0003E0
0003E0
0003E0
0003E0
0003E0
0003C0
0007C0
0007C0
000F80
ENDCHAR
STARTCHAR 03B7
ENCODING 951
SWIDTH 603 0
DWIDTH 26 0
BBX 21 33 3 -9
BITMAP
FC3F00
FCFFC0
FDFFE0
FFFFF0
FFFFF0
FF87F0
FE03F8
FC03F8
FC01F8
FC01F8
FC01F8
FC01F8
FC01F8
FC01F8
FC01F8
FC01F8
FC01F8
FC01F8
FC01F8
FC01F8
FC01F8
FC01F8
FC01F8
FC01F8
0001F8
0001F8
0001F8
0001F8
0001F8
0001F8
0001F8
0001F8
0001F8
ENDCHAR
STARTCHAR 03B8
ENCODING 952
SWIDTH 534 0
DWIDTH 23 0
BBX 22 33 1 -1
BITMAP
01FC00
07FF00
0FFF80
1FFFC0
3FFFE0
3F07F0
7E03F0
7E01F0
7C01F8
FC01F8
FC01F8
FC01F8
FC01F8
FC00F8
FFFFFC
FFFFFC
FFFFFC
FFFFFC
FC00FC
FC00FC
FC00F8
FC01F8
FC01F8
FC01F8
7C01F8
7E01F0
7E03F0
3F07F0
3FFFE0
1FFFC0
0FFF80
07FF00
01FC00
ENDCHAR
STARTCHAR 03B9
ENCODING 953
SWIDTH 278 0
DWIDTH 12 0
BBX 6 25 3 -1
BITMAP
FC
FC
FC
FC
FC
FC
FC
FC
FC
FC
FC
FC
FC
FC
FC
FC
FC
FC
FC
FC
FC
FC
FC
FC
FC
ENDCHAR
STARTCHAR 03BA
ENCODING 954
SWIDTH 557 0
DWIDTH 24 0
BBX 20 25 3 -1
BITMAP
FC07F0
FC0FE0
FC1FC0
FC3F80
FC3F00
FC7E00
FCFE00
FDFC00
FDF800
FFF000
FFF800
FFF800
FFFC00
FFFC00
FFFE00
FE7E00
FC7F00
FC3F80
FC3F80
FC1FC0
FC1FC0
FC0FE0
FC0FE0
FC07F0
FC07F0
ENDCHAR
STARTCHAR 03BB
ENCODING 955
SWIDTH 557 0
DWIDTH 24 0
BBX 22 33 1 -1
BITMAP
0FC000
0FE000
07E000
07E000
03F000
03F000
03F000
01F800
01F800
01FC00
00FC00
00FC00
01FE00
01FE00
01FE00
03FF00
03FF00
07FF80
07DF80
07CF80
0FCFC0
0FCFC0
0F87C0
1F87E0
1F87E0
3F03F0
3F03F0
3F03F0
7E03F8
7E01F8
7E01FC
FC01FC
FC00FC
ENDCHAR
STARTCHAR 03BC
ENCODING 956
SWIDTH 603 0
DWIDTH 26 0
BBX 21 33 3 -9
BITMAP
FC01F8
FC01F8
FC01F8
FC01F8
FC01F8
FC01F8
FC01F8
FC01F8
FC01F8
FC01F8
FC01F8
FC01F8
FC01F8
FC01F8
FC01F8
FC01F8
FC03F8
FC03F8
FE03F8
FF07F8
FFFFF8
FFFDF8
FFFDF8
FFF9F8
FDF000
FC0000
FC0000
FC0000
FC0000
FC0000
FC0000
FC0000
FC0000
ENDCHAR
STARTCHAR 03BD
ENCODING 957
SWIDTH 557 0
DWIDTH 24 0
BBX 22 25 1 -1
BITMAP
FC00FC
FE01FC
7E01F8
7E01F8
7E01F8
7F03F0
3F03F0
3F03F0
3F03E0
1F87E0
1F87E0
1F87E0
0FC7C0
0FCFC0
0FCFC0
07CF80
07EF80
07FF80
03FF00
03FF00
03FF00
01FE00
01FE00
01FE00
00FC00
ENDCHAR
STARTCHAR 03BE
ENCODING 958
SWIDTH 441 0
DWIDTH 19 0
BBX 19 41 1 -9
BITMAP
FFFFC0
FFFFC0
FFFFC0
FFFFC0
FFFFC0
1FC000
1F0000
3F0000
3E0000
3F0000
3F0000
3F8000
3FC000
1FFF00
07FF00
07FF00
1FFF00
3FFF00
7F8000
FE0000
FC0000
FC0000
FC0000
FC0000
FC0000
FE0000
FF0000
7FFE00
7FFF80
3FFFC0
0FFFE0
01FFE0
0007E0
0003E0
0003E0
0003E0
0003E0
0007C0
0007C0
0007C0
000F80
ENDCHAR
STARTCHAR 03BF
ENCODING 959
SWIDTH 603 0
DWIDTH 26 0
BBX 23 25 2 -1
BITMAP
00FE00
07FF80
0FFFE0
1FFFF0
3FFFF8
7F83F8
7F01FC
FE01FC
FC00FC
FC00FC
FC00FE
FC007E
FC007E
FC007E
FC007E
FC00FC
FC00FC
FE00FC
7F01FC
7F83F8
3FFFF8
1FFFF0
0FFFE0
07FF80
01FE00
ENDCHAR
STARTCHAR 03C0
ENCODING 960
SWIDTH 766 0
DWIDTH 33 0
BBX 27 25 3 -1
BITMAP
FFFFFFE0
FFFFFFE0
FFFFFFE0
FFFFFFE0
FFFFFFE0
1F803F00
1F803F00
1F803F00
1F803F00
1F803F00
1F803F00
1F803F00
1F803F00
1F803F00
1F803F00
1F803F00
1F803F00
1F803F00
1F803F00
1F803F00
1F803F00
1F803F00
1F803F00
1F803F00
1F803F00
ENDCHAR
STARTCHAR 03C1
ENCODING 961
SWIDTH 627 0
DWIDTH 27 0
BBX 22 33 3 -9
BITMAP
01FE00
07FF80
0FFFC0
1FFFE0
3FFFF0
7F87F8
7E03F8
FE01F8
FC01FC
FC00FC
FC00FC
FC00FC
FC00FC
FC00FC
FC00FC
FC00FC
FC01FC
FE01F8
FE03F8
FF87F8
FFFFF0
FFFFE0
FDFFC0
FCFF80
FC7E00
FC0000
FC0000
FC0000
FC0000
FC0000
FC0000
FC0000
FC0000
ENDCHAR
STARTCHAR 03C2
ENCODING 962
SWIDTH 510 0
DWIDTH 22 0
BBX 22 33 0 -9
BITMAP
00FF00
03FFC0
0FFFE0
1FFFF0
1FFFF8
3F83F8
7F01FC
7E00FC
7E00FC
7E0000
FC0000
FC0000
FC0000
FE0000
7E0000
7F0000
7F0000
3FC000
3FF000
1FFC00
0FFF80
07FFE0
01FFF0
003FF8
0003F8
0000F8
0000F8
0000F8
0000F8
0000F8
0001F0
0001F0
0003E0
ENDCHAR
STARTCHAR 03C3
ENCODING 963
SWIDTH 673 0
DWIDTH 29 0
BBX 24 25 3 -1
BITMAP
00FFFF
03FFFF
0FFFFF
1FFFFF
3FFFFF
3F83F0
7F01F8
7E00FC
FE00FC
FC007C
FC007E
FC007E
FC007E
FC007E
FC007E
FC007E
FE00FE
7E00FC
7F01FC
3F83F8
3FFFF8
1FFFF0
0FFFE0
07FF80
00FE00
ENDCHAR
STARTCHAR 03C4
ENCODING 964
SWIDTH 441 0
DWIDTH 19 0
BBX 19 25 0 -1
BITMAP
FFFFE0
FFFFE0
FFFFE0
FFFFE0
FFFFE0
01F800
01F800
01F800
01F800
01F800
01F800
01F800
01F800
01F800
01F800
01F800
01F800
01F800
01F800
01F800
01F800
01F800
01F800
01F800
01F800
ENDCHAR
STARTCHAR 03C5
ENCODING 965
SWIDTH 580 0
DWIDTH 25 0
BBX 21 25 2 -1
BITMAP
FC01F8
FC01F8
FC01F8
FC01F8
FC01F8
FC01F8
FC01F8
FC01F8
FC01F8
FC01F8
FC01F8
FC01F8
FC01F8
FC01F8
FC01F8
FC01F8
FC01F8
FE01F8
FE03F8
7F07F0
7FFFF0
3FFFF0
3FFFE0
0FFF80
03FE00
ENDCHAR
STARTCHAR 03C6
ENCODING 966
SWIDTH 720 0
DWIDTH 31 0
BBX 28 33 1 -9
BITMAP
000FE000
018FFC00
078FFF00
0F8FFF80
1F8FFFC0
3F0F8FE0
3E0F87E0
7E0F83F0
7C0F83F0
7C0F81F0
FC0F81F0
FC0F81F0
FC0F81F0
FC0F81F0
FC0F81F0
7C0F83F0
7E0F83F0
7E0F87F0
3F0F87E0
3FCF9FE0
1FFFFFC0
0FFFFF80
07FFFE00
01FFF800
000F8000
000F8000
000F8000
000F8000
000F8000
000F8000
000F8000
000F8000
000F8000
ENDCHAR
STARTCHAR 03C7
ENCODING 967
SWIDTH 580 0
DWIDTH 25 0
BBX 23 33 1 -9
BITMAP
FE00FC
7E00FC
7F01F8
3F01F8
3F83F0
1F83F0
1FC7E0
0FC7E0
07EFC0
07EFC0
03FF80
03FF80
01FF00
01FF00
00FE00
00FE00
00FE00
01FE00
01FF00
03FF80
03FF80
07EFC0
07EFC0
0FC7E0
0FC7E0
1F87F0
1F83F0
3F03F8
3F01F8
7E01FC
7E00FC
FC00FE
FC007E
ENDCHAR
STARTCHAR 03C8
ENCODING 968
SWIDTH 743 0
DWIDTH 32 0
BBX 28 33 2 -9
BITMAP
FC1F83F0
FC1F83F0
FC1F83F0
FC1F83F0
FC1F83F0
FC1F83F0
FC1F83F0
FC1F83F0
FC1F83F0
FC1F83F0
FC1F83F0
FC1F83F0
FC1F83F0
FE1F83F0
FE1F83F0
7E1F83F0
7E1F87F0
7F1F87F0
7F9F8FE0
3FFFFFE0
1FFFFFC0
0FFFFF80
07FFFE00
00FFF000
001F8000
001F8000
001F8000
001F8000
001F8000
001F8000
001F8000
001F8000
001F8000
ENDCHAR
STARTCHAR 03C9
ENCODING 969
SWIDTH 836 0
DWIDTH 36 0
BBX 30 25 3 -1
BITMAP
0FE00FC0
0FC00FE0
1F8007F0
3F8003F0
3F0003F8
7F0001F8
7E0FC1F8
7E0FC1FC
7E0FC0FC
FC0FC0FC
FC0FC0FC
FC0FC0FC
FC0FC0FC
FC0FC0FC
FC0FC0FC
FC0FC0FC
FE0FC0FC
7E0FC0FC
7E0FE1FC
7F1FE3F8
3FFFFFF8
3FFEFFF0
1FFCFFE0
0FF87FC0
03E01F00
ENDCHAR
STARTCHAR 03CA
ENCODING 970
SWIDTH 278 0
DWIDTH 12 0
BBX 12 34 0 -1
BITMAP
F0F0
F0F0
F0F0
F0F0
F0F0
0000
0000
0000
0000
1F80
1F80
1F80
1F80
1F80
1F80
1F80
1F80
1F80
1F80
1F80
1F80
1F80
1F80
1F80
1F80
1F80
1F80
1F80
1F80
1F80
1F80
1F80
1F80
1F80
ENDCHAR
STARTCHAR 03CB
ENCODING 971
SWIDTH 580 0
DWIDTH 25 0
BBX 21 34 2 -1
BITMAP
0F8F80
0F8F80
0F8F80
0F8F80
0F8F80
000000
000000
000000
000000
FC01F8
FC01F8
FC01F8
FC01F8
FC01F8
FC01F8
FC01F8
FC01F8
FC01F8
FC01F8
FC01F8
FC01F8
FC01F8
FC01F8
FC01F8
FC01F8
FC01F8
FE01F8
FE03F8
7F07F0
7FFFF0
3FFFF0
3FFFE0
0FFF80
03FE00
ENDCHAR
STARTCHAR 03CC
ENCODING 972
SWIDTH 603 0
DWIDTH 26 0
BBX 23 35 2 -1
BITMAP
007800
007800
007800
007800
007800
007800
003800
003000
000000
000000
00FE00
07FF80
0FFFE0
1FFFF0
3FFFF8
7F83F8
7F01FC
FE01FC
FC00FC
FC00FC
FC00FE
FC007E
FC007E
FC007E
FC007E
FC00FC
FC00FC
FE00FC
7F01FC
7F83F8
3FFFF8
1FFFF0
0FFFE0
07FF80
01FE00
ENDCHAR
STARTCHAR 03CD
ENCODING 973
SWIDTH 580 0
DWIDTH 25 0
BBX 21 36 2 -1
BITMAP
00F800
00F800
00F800
00F800
00F800
007000
007000
007000
003000
000000
000000
FC01F8
FC01F8
FC01F8
FC01F8
FC01F8
FC01F8
FC01F8
FC01F8
FC01F8
FC01F8
FC01F8
FC01F8
FC01F8
FC01F8
FC01F8
FC01F8
FC01F8
FE01F8
FE03F8
7F07F0
7FFFF0
3FFFF0
3FFFE0
0FFF80
03FE00
ENDCHAR
STARTCHAR 03CE
ENCODING 974
SWIDTH 836 0
DWIDTH 36 0
BBX 30 36 3 -1
BITMAP
00078000
00078000
00078000
00078000
00078000
00078000
00038000
00030000
00030000
00000000
00000000
0FE00FC0
0FC00FE0
1F8007F0
3F8003F0
3F0003F8
7F0001F8
7E0FC1F8
7E0FC1FC
7E0FC0FC
FC0FC0FC
FC0FC0FC
FC0FC0FC
FC0FC0FC
FC0FC0FC
FC0FC0FC
FC0FC0FC
FE0FC0FC
7E0FC0FC
7E0FE1FC
7F1FE3F8
3FFFFFF8
3FFEFFF0
1FFCFFE0
0FF87FC0
03E01F00
ENDCHAR
STARTCHAR 03D1
ENCODING 977
SWIDTH 580 0
DWIDTH 25 0
BBX 24 33 0 -1
BITMAP
007E00
03FF80
07FFC0
0FFFE0
0FFFF0
1F83F8
1F01F8
1F00FC
1F00FC
1F00FC
1F80FC
0FC07C
0FF07E
07FFFF
03FFFF
00FFFF
003FFF
00007E
00007E
FE007E
FE007C
FE007C
FF007C
3F00FC
3F00FC
1F00FC
1F81F8
1FC3F8
0FFFF0
0FFFF0
07FFE0
03FF80
00FE00
ENDCHAR
STARTCHAR 03D5
ENCODING 981
SWIDTH 743 0
DWIDTH 32 0
BBX 28 38 2 -9
BITMAP
001F8000
001F8000
001F8000
001F8000
001F8000
001F8000
01FFF800
07FFFE00
0FFFFF00
1FFFFF80
3F9F9FC0
3F1F8FE0
7E1F87E0
7C1F83F0
FC1F83F0
FC1F83F0
FC1F81F0
FC1F81F0
FC1F81F0
FC1F83F0
FC1F83F0
7C1F83F0
7E1F87E0
7F1F87E0
3F9F8FE0
3FFFFFC0
1FFFFF80
07FFFF00
03FFFC00
001FC000
001F8000
001F8000
001F8000
001F8000
001F8000
001F8000
001F8000
001F8000
ENDCHAR
STARTCHAR 03D6
ENCODING 982
SWIDTH 836 0
DWIDTH 36 0
BBX 29 25 3 -1
BITMAP
FFFFC000
FFFFFC00
FFFFFF00
FFFFFF80
FFFFFFC0
1F801FE0
3F000FE0
3F0007F0
7E0003F0
7E0001F8
7E0FC1F8
7E0FC1F8
7C0FC1F8
7C0FC1F8
7C0FC1F8
7E0FC1F8
7E0FC1F8
7E0FC1F8
7E1FC1F0
3F1FE3F0
3FFFFFE0
1FFFFFE0
0FFFFFC0
07FCFF80
01F03E00
ENDCHAR
STARTCHAR 0400
ENCODING 1024
SWIDTH 673 0
DWIDTH 29 0
BBX 24 42 3 -1
BITMAP
03E000
01F000
00F000
00F800
007800
003C00
001C00
000000
000000
FFFFFE
FFFFFE
FFFFFE
FFFFFE
FFFFFE
FE0000
FE0000
FE0000
FE0000
FE0000
FE0000
FE0000
FE0000
FFFFFC
FFFFFC
FFFFFC
FFFFFC
FFFFFC
FE0000
FE0000
FE0000
FE0000
FE0000
FE0000
FE0000
FE0000
FE0000
FE0000
FFFFFF
FFFFFF
FFFFFF
FFFFFF
FFFFFF
ENDCHAR
STARTCHAR 0401
ENCODING 1025
SWIDTH 673 0
DWIDTH 29 0
BBX 24 41 3 -1
BITMAP
03C3C0
03C3C0
03C3C0
03C3C0
03C3C0
000000
000000
000000
FFFFFE
FFFFFE
FFFFFE
FFFFFE
FFFFFE
FE0000
FE0000
FE0000
FE0000
FE0000
FE0000
FE0000
FE0000
FFFFFC
FFFFFC
FFFFFC
FFFFFC
FFFFFC
FE0000
FE0000
FE0000
FE0000
FE0000
FE0000
FE0000
FE0000
FE0000
FE0000
FFFFFF
FFFFFF
FFFFFF
FFFFFF
FFFFFF
ENDCHAR
STARTCHAR 0402
ENCODING 1026
SWIDTH 882 0
DWIDTH 38 0
BBX 32 33 2 -1
BITMAP
FFFFFF00
FFFFFF00
FFFFFF00
FFFFFF00
FFFFFF00
007E0000
007E0000
007E0000
007E0000
007E0000
007E0000
007E0FE0
007E7FF8
007EFFFC
007FFFFE
007FFFFF
007FFFFF
007FC07F
007F007F
007F003F
007E003F
007E003F
007E003F
007E003F
007E003F
007E003F
007E007F
007E00FF
007E0FFF
007E0FFE
007E0FFE
007E0FFC
007E0FF0
ENDCHAR
STARTCHAR 0403
ENCODING 1027
SWIDTH 557 0
DWIDTH 24 0
BBX 17 41 5 -1
BITMAP
00F800
01F800
01F000
03E000
03E000
000000
000000
000000
FFFF80
FFFF80
FFFF80
FFFF80
FFFF80
FE0000
FE0000
FE0000
FE0000
FE0000
FE0000
FE0000
FE0000
FE0000
FE0000
FE0000
FE0000
FE0000
FE0000
FE0000
FE0000
FE0000
FE0000
FE0000
FE0000
FE0000
FE0000
FE0000
FE0000
FE0000
FE0000
FE0000
FE0000
ENDCHAR
STARTCHAR 0404
ENCODING 1028
SWIDTH 720 0
DWIDTH 31 0
BBX 29 33 1 -1
BITMAP
001FE000
00FFFC00
03FFFE00
07FFFF00
0FFFFF80
0FFFFFC0
1FE01FE0
3FC00FF0
3F8007E0
3F000380
7F000200
7E000000
7E000000
7FFFF000
FFFFF000
FFFFF000
FFFFF000
FFFFF000
FE000000
FE000000
7E000000
7F0003C0
7F0003F8
3F0003F0
3F8007F0
3FC00FF0
1FE01FE0
0FFFFFC0
0FFFFF80
07FFFF00
03FFFE00
00FFF800
001FE000
ENDCHAR
STARTCHAR 0405
ENCODING 1029
SWIDTH 673 0
DWIDTH 29 0
BBX 26 33 1 -1
BITMAP
007F8000
03FFF000
0FFFFC00
1FFFFE00
3FFFFF00
3FC1FF00
7F007F80
7E003F80
7E001F80
7E001F80
7E000000
7F000000
7FC00000
3FFE0000
3FFFF000
1FFFFC00
07FFFF00
01FFFF80
001FFF80
0000FFC0
00003FC0
00001FC0
00000FC0
FE000FC0
7E000FC0
7F000FC0
7F801FC0
3FE07F80
3FFFFF80
1FFFFF00
0FFFFE00
03FFF800
007FC000
ENDCHAR
STARTCHAR 0406
ENCODING 1030
SWIDTH 278 0
DWIDTH 12 0
BBX 6 33 3 -1
BITMAP
FC
FC
FC
FC
FC
FC
FC
FC
FC
FC
FC
FC
FC
FC
FC
FC
FC
FC
FC
FC
FC
FC
FC
FC
FC
FC
FC
FC
FC
FC
FC
FC
FC
ENDCHAR
STARTCHAR 0407
ENCODING 1031
SWIDTH 278 0
DWIDTH 12 0
BBX 12 41 0 -1
BITMAP
F0F0
F0F0
F0F0
F0F0
F0F0
0000
0000
0000
1F80
1F80
1F80
1F80
1F80
1F80
1F80
1F80
1F80
1F80
1F80
1F80
1F80
1F80
1F80
1F80
1F80
1F80
1F80
1F80
1F80
1F80
1F80
1F80
1F80
1F80
1F80
1F80
1F80
1F80
1F80
1F80
1F80
ENDCHAR
STARTCHAR 0408
ENCODING 1032
SWIDTH 557 0
DWIDTH 24 0
BBX 20 33 1 -1
BITMAP
0003F0
0003F0
0003F0
0003F0
0003F0
0003F0
0003F0
0003F0
0003F0
0003F0
0003F0
0003F0
0003F0
0003F0
0003F0
0003F0
0003F0
0003F0
0003F0
0003F0
FE03F0
FE03F0
FE03F0
FE03F0
FE03F0
FE07F0
FE07F0
7FFFE0
7FFFE0
3FFFC0
1FFF80
0FFF00
03FC00
ENDCHAR
STARTCHAR 0409
ENCODING 1033
SWIDTH 1091 0
DWIDTH 47 0
BBX 44 33 1 -1
BITMAP
0FFFFFC00000
0FFFFFC00000
0FFFFFC00000
0FFFFFC00000
0FFFFFC00000
0FC00FC00000
0FC00FC00000
0FC00FC00000
0FC00FC00000
0FC00FC00000
0FC00FC00000
0FC00FC00000
0FC00FC00000
0FC00FFFFC00
0FC00FFFFF00
0FC00FFFFF80
0FC00FFFFFC0
0FC00FFFFFC0
0FC00FC01FE0
0FC00FC00FE0
0FC00FC007E0
0FC00FC007F0
0FC00FC007F0
0FC00FC007F0
0FC00FC007E0
0FC00FC007E0
1FC00FC00FE0
3FC00FC03FE0
FFC00FFFFFC0
FF800FFFFF80
FF800FFFFF00
FF000FFFFE00
FC000FFFF800
ENDCHAR
STARTCHAR 040A
ENCODING 1034
SWIDTH 1068 0
DWIDTH 46 0
BBX 43 33 2 -1
BITMAP
FE001FC00000
FE001FC00000
FE001FC00000
FE001FC00000
FE001FC00000
FE001FC00000
FE001FC00000
FE001FC00000
FE001FC00000
FE001FC00000
FE001FC00000
FE001FC00000
FE001FC00000
FFFFFFFFF800
FFFFFFFFFE00
FFFFFFFFFF00
FFFFFFFFFF80
FFFFFFFFFFC0
FE001FC03FC0
FE001FC01FC0
FE001FC00FE0
FE001FC00FE0
FE001FC00FE0
FE001FC00FE0
FE001FC00FE0
FE001FC00FE0
FE001FC01FC0
FE001FC07FC0
FE001FFFFF80
FE001FFFFF80
FE001FFFFF00
FE001FFFFC00
FE001FFFF000
ENDCHAR
STARTCHAR 040B
ENCODING 1035
SWIDTH 882 0
DWIDTH 38 0
BBX 31 33 3 -1
BITMAP
FFFFFE00
FFFFFE00
FFFFFE00
FFFFFE00
FFFFFE00
00FC0000
00FC0000
00FC0000
00FC0000
00FC0000
00FC0000
00FC3FE0
00FCFFF8
00FDFFFC
00FFFFFC
00FFFFFE
00FFFFFE
00FF00FE
00FE007E
00FC007E
00FC007E
00FC007E
00FC007E
00FC007E
00FC007E
00FC007E
00FC007E
00FC007E
00FC007E
00FC007E
00FC007E
00FC007E
00FC007E
ENDCHAR
STARTCHAR 040C
ENCODING 1036
SWIDTH 603 0
DWIDTH 26 0
BBX 23 41 1 -1
BITMAP
000FC0
000F80
001F00
001F00
003E00
000000
000000
000000
FE01F8
FE03F8
FE03F0
FE03F0
FE07F0
FE07F0
FE07E0
FE0FE0
FE0FE0
FE0FC0
FE1FC0
FE1FC0
FE1F80
FFFF80
FFFF80
FFFF00
FFFF80
FFFF80
FE1FC0
FE1FC0
FE0FC0
FE0FE0
FE0FE0
FE07F0
FE07F0
FE07F0
FE03F8
FE03F8
FE01F8
FE01FC
FE01FC
FE00FE
FE00FE
ENDCHAR
STARTCHAR 040D
ENCODING 1037
SWIDTH 720 0
DWIDTH 31 0
BBX 25 42 3 -1
BITMAP
01F00000
00F80000
00F80000
00780000
003C0000
001C0000
000E0000
00000000
00000000
FC001F80
FC001F80
FC001F80
FC001F80
FC003F80
FC003F80
FC007F80
FC00FF80
FC01FF80
FC01FF80
FC03FF80
FC07FF80
FC0FFF80
FC0FDF80
FC1F9F80
FC3F9F80
FC7F1F80
FCFE1F80
FCFC1F80
FDFC1F80
FFF81F80
FFF01F80
FFE01F80
FFC01F80
FFC01F80
FF801F80
FF001F80
FE001F80
FE001F80
FC001F80
FC001F80
FC001F80
FC001F80
ENDCHAR
STARTCHAR 040E
ENCODING 1038
SWIDTH 627 0
DWIDTH 27 0
BBX 27 42 0 -1
BITMAP
03C07000
03C0F000
03E0F000
01FFF000
01FFE000
00FFC000
003F0000
00000000
00000000
FE000FE0
7F000FC0
7F001FC0
3F001F80
3F803F80
1F803F80
1FC03F00
1FC07F00
0FC07E00
0FE0FE00
07E0FC00
07E0FC00
07F1FC00
03F1F800
03F9F800
01FBF000
01FBF000
00FFF000
00FFE000
00FFE000
007FC000
007FC000
003F8000
003F8000
003F8000
003F0000
007F0000
00FE0000
3FFE0000
3FFC0000
3FFC0000
3FF80000
3FE00000
ENDCHAR
STARTCHAR 040F
ENCODING 1039
SWIDTH 720 0
DWIDTH 31 0
BBX 25 40 3 -8
BITMAP
FE003F80
FE003F80
FE003F80
FE003F80
FE003F80
FE003F80
FE003F80
FE003F80
FE003F80
FE003F80
FE003F80
FE003F80
FE003F80
FE003F80
FE003F80
FE003F80
FE003F80
FE003F80
FE003F80
FE003F80
FE003F80
FE003F80
FE003F80
FE003F80
FE003F80
FE003F80
FE003F80
FE003F80
FFFFFF80
FFFFFF80
FFFFFF80
FFFFFF80
FFFFFF80
007F0000
007F0000
007F0000
007F0000
007F0000
007F0000
007F0000
ENDCHAR
STARTCHAR 0410
ENCODING 1040
SWIDTH 720 0
DWIDTH 31 0
BBX 29 33 1 -1
BITMAP
001FE000
001FE000
003FE000
003FF000
003FF000
007FF000
007FF800
007FF800
00FDF800
00FDFC00
00FDFC00
01F8FC00
01F8FE00
01F8FE00
03F87E00
03F07F00
03F07F00
07F03F00
07E03F80
07E03F80
0FE03F80
0FFFFFC0
0FFFFFC0
1FFFFFC0
1FFFFFC0
1FFFFFE0
3F800FE0
3F0007E0
3F0007F0
7F0007F0
7E0003F0
FE0003F8
FE0003F8
ENDCHAR
STARTCHAR 0411
ENCODING 1041
SWIDTH 720 0
DWIDTH 31 0
BBX 26 33 3 -1
BITMAP
FFFFFE00
FFFFFE00
FFFFFE00
FFFFFE00
FFFFFE00
FE000000
FE000000
FE000000
FE000000
FE000000
FE000000
FE000000
FE000000
FFFFE000
FFFFF800
FFFFFC00
FFFFFE00
FFFFFF00
FE00FF80
FE003F80
FE001FC0
FE001FC0
FE001FC0
FE001FC0
FE001FC0
FE001FC0
FE003F80
FE00FF80
FFFFFF00
FFFFFF00
FFFFFC00
FFFFF800
FFFFE000
ENDCHAR
STARTCHAR 0412
ENCODING 1042
SWIDTH 720 0
DWIDTH 31 0
BBX 26 33 3 -1
BITMAP
FFFFE000
FFFFF800
FFFFFC00
FFFFFE00
FFFFFF00
FE01FF00
FE007F00
FE003F80
FE003F80
FE003F80
FE003F00
FE003F00
FE007E00
FFFFFE00
FFFFF800
FFFFF800
FFFFFC00
FFFFFE00
FE01FF00
FE003F80
FE001F80
FE001F80
FE001FC0
FE001FC0
FE001FC0
FE001F80
FE003F80
FE01FF80
FFFFFF00
FFFFFF00
FFFFFE00
FFFFF800
FFFFE000
ENDCHAR
STARTCHAR 0413
ENCODING 1043
SWIDTH 557 0
DWIDTH 24 0
BBX 17 33 5 -1
BITMAP
FFFF80
FFFF80
FFFF80
FFFF80
FFFF80
FE0000
FE0000
FE0000
FE0000
FE0000
FE0000
FE0000
FE0000
FE0000
FE0000
FE0000
FE0000
FE0000
FE0000
FE0000
FE0000
FE0000
FE0000
FE0000
FE0000
FE0000
FE0000
FE0000
FE0000
FE0000
FE0000
FE0000
FE0000
ENDCHAR
STARTCHAR 0414
ENCODING 1044
SWIDTH 720 0
DWIDTH 31 0
BBX 32 39 -1 -7
BITMAP
00FFFFF8
00FFFFF8
00FFFFF8
00FFFFF8
00FFFFF8
00FE03F8
00FE03F8
00FE03F8
00FE03F8
00FE03F8
00FE03F8
00FE03F8
00FE03F8
00FE03F8
00FE03F8
00FE03F8
00FE03F8
00FE03F8
00FE03F8
00FE03F8
00FE03F8
00FE03F8
00FC03F8
00FC03F8
01FC03F8
03F803F8
07F003F8
1FE003F8
FFFFFFFF
FFFFFFFF
FFFFFFFF
FFFFFFFF
FFFFFFFF
FE00007F
FE00007F
FE00007F
FE00007F
FE00007F
FE00007F
ENDCHAR
STARTCHAR 0415
ENCODING 1045
SWIDTH 673 0
DWIDTH 29 0
BBX 24 33 3 -1
BITMAP
FFFFFE
FFFFFE
FFFFFE
FFFFFE
FFFFFE
FE0000
FE0000
FE0000
FE0000
FE0000
FE0000
FE0000
FE0000
FFFFFC
FFFFFC
FFFFFC
FFFFFC
FFFFFC
FE0000
FE0000
FE0000
FE0000
FE0000
FE0000
FE0000
FE0000
FE0000
FE0000
FFFFFF
FFFFFF
FFFFFF
FFFFFF
FFFFFF
ENDCHAR
STARTCHAR 0416
ENCODING 1046
SWIDTH 905 0
DWIDTH 39 0
BBX 39 33 0 -1
BITMAP
7F00FE03F8
3F00FE03F8
3F80FE03F0
3F80FE03F0
1F80FE07F0
1FC0FE07E0
1FC0FE07E0
0FC0FE0FE0
0FE0FE0FC0
0FE0FE0FC0
07E0FE1FC0
07E0FE1F80
07F0FE1F80
03FFFFFF80
03FFFFFF00
03FFFFFF00
03FFFFFF80
07FFFFFF80
07F0FE1F80
07E0FE1FC0
0FE0FE1FC0
0FE0FE0FE0
0FC0FE0FE0
1FC0FE07E0
1FC0FE07F0
3F80FE07F0
3F80FE03F8
3F00FE03F8
7F00FE03F8
7F00FE01FC
FE00FE01FC
FE00FE00FC
FC00FE00FE
ENDCHAR
STARTCHAR 0417
ENCODING 1047
SWIDTH 627 0
DWIDTH 27 0
BBX 22 33 3 -1
BITMAP
01FC00
0FFF80
1FFFC0
3FFFE0
7FFFF0
FFFFF0
FE07F8
FE03F8
FC03F8
FC03F8
0003F8
0003F0
000FF0
00FFE0
00FFC0
00FF80
00FFE0
00FFF0
001FF8
0003F8
0003F8
0001FC
FC01FC
FC01FC
FC01F8
FE03F8
FF03F8
7FFFF0
7FFFF0
3FFFE0
1FFFC0
0FFF00
01FC00
ENDCHAR
STARTCHAR 0418
ENCODING 1048
SWIDTH 720 0
DWIDTH 31 0
BBX 25 33 3 -1
BITMAP
FC001F80
FC001F80
FC001F80
FC001F80
FC003F80
FC003F80
FC007F80
FC00FF80
FC01FF80
FC01FF80
FC03FF80
FC07FF80
FC0FFF80
FC0FDF80
FC1F9F80
FC3F9F80
FC7F1F80
FCFE1F80
FCFC1F80
FDFC1F80
FFF81F80
FFF01F80
FFE01F80
FFC01F80
FFC01F80
FF801F80
FF001F80
FE001F80
FE001F80
FC001F80
FC001F80
FC001F80
FC001F80
ENDCHAR
STARTCHAR 0419
ENCODING 1049
SWIDTH 720 0
DWIDTH 31 0
BBX 25 42 3 -1
BITMAP
0780F000
07C0F000
03C1E000
03FFE000
01FFC000
00FF8000
007F0000
00000000
00000000
FC001F80
FC001F80
FC001F80
FC001F80
FC003F80
FC003F80
FC007F80
FC00FF80
FC01FF80
FC01FF80
FC03FF80
FC07FF80
FC0FFF80
FC0FDF80
FC1F9F80
FC3F9F80
FC7F1F80
FCFE1F80
FCFC1F80
FDFC1F80
FFF81F80
FFF01F80
FFE01F80
FFC01F80
FFC01F80
FF801F80
FF001F80
FE001F80
FE001F80
FC001F80
FC001F80
FC001F80
FC001F80
ENDCHAR
STARTCHAR 041A
ENCODING 1050
SWIDTH 603 0
DWIDTH 26 0
BBX 23 33 2 -1
BITMAP
FE01F8
FE03F8
FE03F8
FE03F0
FE07F0
FE07F0
FE07E0
FE0FE0
FE0FE0
FE0FC0
FE1FC0
FE1FC0
FE1FC0
FFFF80
FFFF80
FFFF80
FFFF80
FFFF80
FE1FC0
FE1FC0
FE0FE0
FE0FE0
FE07E0
FE07F0
FE07F0
FE03F8
FE03F8
FE03F8
FE01FC
FE01FC
FE00FC
FE00FE
FE00FE
ENDCHAR
STARTCHAR 041B
ENCODING 1051
SWIDTH 696 0
DWIDTH 30 0
BBX 27 33 0 -1
BITMAP
0FFFFFE0
0FFFFFE0
0FFFFFE0
0FFFFFE0
0FFFFFE0
0FE00FE0
0FE00FE0
0FE00FE0
0FE00FE0
0FE00FE0
0FE00FE0
0FE00FE0
0FE00FE0
0FE00FE0
0FE00FE0
0FE00FE0
0FE00FE0
0FE00FE0
0FE00FE0
0FE00FE0
0FE00FE0
0FE00FE0
0FE00FE0
0FE00FE0
0FE00FE0
0FE00FE0
0FE00FE0
1FC00FE0
FFC00FE0
FFC00FE0
FF800FE0
FF000FE0
FC000FE0
ENDCHAR
STARTCHAR 041C
ENCODING 1052
SWIDTH 836 0
DWIDTH 36 0
BBX 30 33 3 -1
BITMAP
FF800FFC
FFC00FFC
FFC00FFC
FFC00FFC
FFC00FFC
FFE01FFC
FFE01FFC
FFE01FFC
FFE01FFC
FDE01EFC
FDF03EFC
FDF03EFC
FDF03EFC
FDF03CFC
FCF07CFC
FCF87CFC
FCF87CFC
FCF87CFC
FC7878FC
FC7CF8FC
FC7CF8FC
FC7CF8FC
FC7CF0FC
FC3CF0FC
FC3FF0FC
FC3FF0FC
FC3FF0FC
FC1FE0FC
FC1FE0FC
FC1FE0FC
FC1FE0FC
FC1FE0FC
FC0FC0FC
ENDCHAR
STARTCHAR 041D
ENCODING 1053
SWIDTH 720 0
DWIDTH 31 0
BBX 25 33 3 -1
BITMAP
FC001F80
FC001F80
FC001F80
FC001F80
FC001F80
FC001F80
FC001F80
FC001F80
FC001F80
FC001F80
FC001F80
FC001F80
FC001F80
FFFFFF80
FFFFFF80
FFFFFF80
FFFFFF80
FFFFFF80
FC001F80
FC001F80
FC001F80
FC001F80
FC001F80
FC001F80
FC001F80
FC001F80
FC001F80
FC001F80
FC001F80
FC001F80
FC001F80
FC001F80
FC001F80
ENDCHAR
STARTCHAR 041E
ENCODING 1054
SWIDTH 789 0
DWIDTH 34 0
BBX 30 33 2 -1
BITMAP
001FE000
00FFFC00
03FFFE00
07FFFF80
0FFFFFC0
1FFFFFC0
3FE01FE0
3F800FF0
7F0007F0
7F0003F8
7E0003F8
FE0001F8
FE0001FC
FC0001FC
FC0001FC
FC0001FC
FC0001FC
FC0001FC
FC0001FC
FC0001FC
FE0001F8
FE0001F8
7E0003F8
7F0003F8
7F0007F0
3F800FF0
3FE01FE0
1FFFFFC0
0FFFFFC0
07FFFF80
03FFFE00
00FFFC00
003FE000
ENDCHAR
STARTCHAR 041F
ENCODING 1055
SWIDTH 720 0
DWIDTH 31 0
BBX 25 33 3 -1
BITMAP
FFFFFF80
FFFFFF80
FFFFFF80
FFFFFF80
FFFFFF80
FE003F80
FE003F80
FE003F80
FE003F80
FE003F80
FE003F80
FE003F80
FE003F80
FE003F80
FE003F80
FE003F80
FE003F80
FE003F80
FE003F80
FE003F80
FE003F80
FE003F80
FE003F80
FE003F80
FE003F80
FE003F80
FE003F80
FE003F80
FE003F80
FE003F80
FE003F80
FE003F80
FE003F80
ENDCHAR
STARTCHAR 0420
ENCODING 1056
SWIDTH 673 0
DWIDTH 29 0
BBX 24 33 3 -1
BITMAP
FFFFC0
FFFFF0
FFFFF8
FFFFFC
FFFFFE
FC07FE
FC00FF
FC007F
FC007F
FC007F
FC007F
FC007F
FC007F
FC007F
FC00FE
FC07FE
FFFFFE
FFFFFC
FFFFF8
FFFFF0
FFFFC0
FC0000
FC0000
FC0000
FC0000
FC0000
FC0000
FC0000
FC0000
FC0000
FC0000
FC0000
FC0000
ENDCHAR
STARTCHAR 0421
ENCODING 1057
SWIDTH 720 0
DWIDTH 31 0
BBX 27 33 2 -1
BITMAP
003FC000
00FFF800
03FFFE00
07FFFF00
0FFFFF80
1FFFFFC0
3FE03FC0
3F801FE0
7F000FE0
7F0007E0
7E0007E0
FE000000
FE000000
FE000000
FC000000
FC000000
FC000000
FC000000
FC000000
FC000000
FE000000
FE0007E0
7E0007E0
7F0007E0
7F000FE0
3F801FC0
3FC03FC0
1FFDFF80
0FFFFF80
0FFFFF00
03FFFE00
01FFF800
003FC000
ENDCHAR
STARTCHAR 0422
ENCODING 1058
SWIDTH 603 0
DWIDTH 26 0
BBX 25 33 1 -1
BITMAP
FFFFFF80
FFFFFF80
FFFFFF80
FFFFFF80
FFFFFF80
007F0000
007F0000
007F0000
007F0000
007F0000
007F0000
007F0000
007F0000
007F0000
007F0000
007F0000
007F0000
007F0000
007F0000
007F0000
007F0000
007F0000
007F0000
007F0000
007F0000
007F0000
007F0000
007F0000
007F0000
007F0000
007F0000
007F0000
007F0000
ENDCHAR
STARTCHAR 0423
ENCODING 1059
SWIDTH 627 0
DWIDTH 27 0
BBX 27 33 0 -1
BITMAP
FE000FE0
7F000FC0
7F001FC0
3F001F80
3F803F80
1F803F80
1FC03F00
1FC07F00
0FC07E00
0FE0FE00
07E0FC00
07E0FC00
07F1FC00
03F1F800
03F9F800
01FBF000
01FBF000
00FFF000
00FFE000
00FFE000
007FC000
007FC000
003F8000
003F8000
003F8000
003F0000
007F0000
00FE0000
3FFE0000
3FFC0000
3FFC0000
3FF80000
3FE00000
ENDCHAR
STARTCHAR 0424
ENCODING 1060
SWIDTH 859 0
DWIDTH 37 0
BBX 33 33 2 -1
BITMAP
0007F00000
0007F00000
0007F00000
0007F00000
0007F00000
03FFFFC000
0FFFFFF000
1FFFFFF800
3FFFFFFC00
3FFFFFFE00
7FC7F3FF00
7F07F0FF00
FE07F07F00
FE07F03F80
FC07F03F80
FC07F03F80
FC07F03F80
FC07F03F80
FC07F03F80
FE07F03F80
FE07F07F00
FF07F0FF00
7FC7F3FF00
3FFFFFFE00
3FFFFFFC00
1FFFFFF800
0FFFFFF000
03FFFFC000
0007F00000
0007F00000
0007F00000
0007F00000
0007F00000
ENDCHAR
STARTCHAR 0425
ENCODING 1061
SWIDTH 673 0
DWIDTH 29 0
BBX 26 33 1 -1
BITMAP
FF001FC0
7F803FC0
7F803F80
3FC07F80
1FC07F00
1FE0FE00
0FE0FE00
0FF1FC00
07F1FC00
03FBF800
03FFF000
01FFF000
01FFE000
00FFE000
007FC000
007F8000
003F8000
007FC000
00FFC000
00FFE000
01FFE000
01FFF000
03FBF800
07F3F800
07F1FC00
0FE1FC00
0FE0FE00
1FC0FE00
1FC07F00
3F807F80
7F803F80
7F003FC0
FF001FC0
ENDCHAR
STARTCHAR 0426
ENCODING 1062
SWIDTH 720 0
DWIDTH 31 0
BBX 27 40 3 -8
BITMAP
FC003F00
FC003F00
FC003F00
FC003F00
FC003F00
FC003F00
FC003F00
FC003F00
FC003F00
FC003F00
FC003F00
FC003F00
FC003F00
FC003F00
FC003F00
FC003F00
FC003F00
FC003F00
FC003F00
FC003F00
FC003F00
FC003F00
FC003F00
FC003F00
FC003F00
FC003F00
FC003F00
FC003F00
FFFFFFE0
FFFFFFE0
FFFFFFE0
FFFFFFE0
FFFFFFE0
000007E0
000007E0
000007E0
000007E0
000007E0
000007E0
000007E0
ENDCHAR
STARTCHAR 0427
ENCODING 1063
SWIDTH 696 0
DWIDTH 30 0
BBX 27 33 1 -1
BITMAP
FE000FE0
FE000FE0
FE000FE0
FE000FE0
FE000FE0
FE000FE0
FE000FE0
FE000FE0
FE000FE0
FE000FE0
FE000FE0
FE000FE0
FE000FE0
FE000FE0
FE000FE0
7F000FE0
7F801FE0
7FFFFFE0
3FFFFFE0
1FFFFFE0
0FFFFFE0
07FFFFE0
00FF8FE0
00000FE0
00000FE0
00000FE0
00000FE0
00000FE0
00000FE0
00000FE0
00000FE0
00000FE0
00000FE0
ENDCHAR
STARTCHAR 0428
ENCODING 1064
SWIDTH 998 0
DWIDTH 43 0
BBX 39 33 2 -1
BITMAP
FE00FE007E
FE00FE007E
FE00FE007E
FE00FE007E
FE00FE007E
FE00FE007E
FE00FE007E
FE00FE007E
FE00FE007E
FE00FE007E
FE00FE007E
FE00FE007E
FE00FE007E
FE00FE007E
FE00FE007E
FE00FE007E
FE00FE007E
FE00FE007E
FE00FE007E
FE00FE007E
FE00FE007E
FE00FE007E
FE00FE007E
FE00FE007E
FE00FE007E
FE00FE007E
FE00FE007E
FE00FE007E
FFFFFFFFFE
FFFFFFFFFE
FFFFFFFFFE
FFFFFFFFFE
FFFFFFFFFE
ENDCHAR
STARTCHAR 0429
ENCODING 1065
SWIDTH 1021 0
DWIDTH 44 0
BBX 41 40 2 -8
BITMAP
FE00FE00FE00
FE00FE00FE00
FE00FE00FE00
FE00FE00FE00
FE00FE00FE00
FE00FE00FE00
FE00FE00FE00
FE00FE00FE00
FE00FE00FE00
FE00FE00FE00
FE00FE00FE00
FE00FE00FE00
FE00FE00FE00
FE00FE00FE00
FE00FE00FE00
FE00FE00FE00
FE00FE00FE00
FE00FE00FE00
FE00FE00FE00
FE00FE00FE00
FE00FE00FE00
FE00FE00FE00
FE00FE00FE00
FE00FE00FE00
FE00FE00FE00
FE00FE00FE00
FE00FE00FE00
FE00FE00FE00
FFFFFFFFFF80
FFFFFFFFFF80
FFFFFFFFFF80
FFFFFFFFFF80
FFFFFFFFFF80
000000001F80
000000001F80
000000001F80
000000001F80
000000001F80
000000001F80
000000001F80
ENDCHAR
STARTCHAR 042A
ENCODING 1066
SWIDTH 859 0
DWIDTH 37 0
BBX 34 33 1 -1
BITMAP
FFFF800000
FFFF800000
FFFF800000
FFFF800000
FFFF800000
003F800000
003F800000
003F800000
003F800000
003F800000
003F800000
003F800000
003F800000
003FFFF000
003FFFFC00
003FFFFE00
003FFFFF00
003FFFFF80
003F807F80
003F801F80
003F801FC0
003F801FC0
003F801FC0
003F801FC0
003F801FC0
003F801FC0
003F803F80
003F80FF80
003FFFFF00
003FFFFF00
003FFFFE00
003FFFF800
003FFFE000
ENDCHAR
STARTCHAR 042B
ENCODING 1067
SWIDTH 975 0
DWIDTH 42 0
BBX 33 33 5 -1
BITMAP
FC00003F80
FC00003F80
FC00003F80
FC00003F80
FC00003F80
FC00003F80
FC00003F80
FC00003F80
FC00003F80
FC00003F80
FC00003F80
FC00003F80
FC00003F80
FFFFC03F80
FFFFE03F80
FFFFF03F80
FFFFF83F80
FFFFFC3F80
FC01FC3F80
FC00FE3F80
FC00FE3F80
FC007E3F80
FC007E3F80
FC007E3F80
FC007E3F80
FC00FE3F80
FC00FE3F80
FC03FC3F80
FFFFFC3F80
FFFFF83F80
FFFFF03F80
FFFFE03F80
FFFF003F80
ENDCHAR
STARTCHAR 042C
ENCODING 1068
SWIDTH 720 0
DWIDTH 31 0
BBX 24 33 4 -1
BITMAP
FE0000
FE0000
FE0000
FE0000
FE0000
FE0000
FE0000
FE0000
FE0000
FE0000
FE0000
FE0000
FE0000
FFFFC0
FFFFF0
FFFFF8
FFFFFC
FFFFFE
FE00FE
FE007F
FE007F
FE007F
FE007F
FE007F
FE007F
FE007F
FE00FE
FE03FE
FFFFFC
FFFFFC
FFFFF8
FFFFE0
FFFF80
ENDCHAR
STARTCHAR 042D
ENCODING 1069
SWIDTH 720 0
DWIDTH 31 0
BBX 28 33 1 -1
BITMAP
003FC000
01FFF800
03FFFC00
0FFFFE00
1FFFFF00
3FFFFF80
3FC03FC0
7F801FC0
7F000FE0
1E000FE0
020007E0
000007F0
000007F0
007FFFF0
007FFFF0
007FFFF0
007FFFF0
007FFFF0
000003F0
000003F0
000007F0
1C0007F0
FE0007E0
FE000FE0
7F000FE0
7F801FC0
3FC03FC0
3FFFFF80
1FFFFF00
0FFFFE00
07FFFC00
01FFF800
003FC000
ENDCHAR
STARTCHAR 042E
ENCODING 1070
SWIDTH 1021 0
DWIDTH 44 0
BBX 41 33 2 -1
BITMAP
FE0003FC0000
FE001FFF8000
FE003FFFC000
FE00FFFFF000
FE01FFFFF000
FE01FFFFF800
FE03FC03FC00
FE07F801FC00
FE07F000FE00
FE07E000FE00
FE0FE0007F00
FE0FE0007F00
FE0FC0003F00
FFFFC0003F00
FFFFC0003F00
FFFFC0003F80
FFFFC0003F80
FFFFC0003F80
FE1FC0003F80
FE1FC0003F00
FE0FC0003F00
FE0FC0007F00
FE0FE0007F00
FE0FE0007E00
FE07F000FE00
FE07F801FE00
FE03FC03FC00
FE03FFFFF800
FE01FFFFF000
FE00FFFFE000
FE007FFFC000
FE001FFF8000
FE0003FC0000
ENDCHAR
STARTCHAR 042F
ENCODING 1071
SWIDTH 720 0
DWIDTH 31 0
BBX 25 33 3 -1
BITMAP
01FFFF80
07FFFF80
1FFFFF80
3FFFFF80
3FFFFF80
7FC03F80
7F003F80
FE003F80
FE003F80
FE003F80
FE003F80
FE003F80
FE003F80
7F003F80
7F803F80
3FFFFF80
3FFFFF80
0FFFFF80
1FFFFF80
3FFFFF80
3F803F80
7F003F80
7F003F80
7F003F80
7F003F80
7F003F80
7F003F80
7F003F80
7F003F80
7F003F80
7E003F80
7E003F80
FC003F80
ENDCHAR
STARTCHAR 0430
ENCODING 1072
SWIDTH 557 0
DWIDTH 24 0
BBX 22 25 1 -1
BITMAP
01FE00
0FFF80
1FFFE0
3FFFE0
3FFFF0
7F07F0
7E03F0
7E03F0
0003F0
000FF0
01FFF0
0FFFF0
3FFFF0
7FFBF0
7F03F0
7E03F0
FC03F0
FC03F0
FC07F0
FE0FF0
7FFFF0
7FFFF0
3FFBF8
1FF3FC
0FC1FC
ENDCHAR
STARTCHAR 0431
ENCODING 1073
SWIDTH 627 0
DWIDTH 27 0
BBX 23 38 2 -1
BITMAP
0003F0
0003F0
0003F0
0007F0
000FF0
003FF0
01FFE0
03FFC0
07FF80
0FFE00
1FE000
3F0000
3E0000
7C7E00
7DFFC0
7FFFE0
FFFFF0
FFFFF8
FF83F8
FF01FC
FE00FC
FC00FC
FC00FE
FC007E
FC007E
FC007E
FC007E
FC007E
FC00FE
FE00FC
7E00FC
7F01FC
7F83F8
3FFFF8
1FFFF0
0FFFE0
07FF80
00FE00
ENDCHAR
STARTCHAR 0432
ENCODING 1074
SWIDTH 603 0
DWIDTH 26 0
BBX 20 25 4 -1
BITMAP
FFFF00
FFFF80
FFFFC0
FFFFE0
FFFFE0
FC07E0
FC07E0
FC07E0
FC07E0
FC07E0
FFFFC0
FFFF80
FFFF80
FFFFC0
FC07E0
FC03F0
FC03F0
FC03F0
FC03F0
FC07F0
FFFFF0
FFFFE0
FFFFE0
FFFFC0
FFFF00
ENDCHAR
STARTCHAR 0433
ENCODING 1075
SWIDTH 418 0
DWIDTH 18 0
BBX 14 25 3 -1
BITMAP
FFFC
FFFC
FFFC
FFFC
FFFC
FC00
FC00
FC00
FC00
FC00
FC00
FC00
FC00
FC00
FC00
FC00
FC00
FC00
FC00
FC00
FC00
FC00
FC00
FC00
FC00
ENDCHAR
STARTCHAR 0434
ENCODING 1076
SWIDTH 627 0
DWIDTH 27 0
BBX 27 30 0 -6
BITMAP
03FFFF00
03FFFF00
03FFFF00
03FFFF00
03FFFF00
03F03F00
03F03F00
03F03F00
03F03F00
03F03F00
03F03F00
03F03F00
03F03F00
03F03F00
03F03F00
03F03F00
03F03F00
03E03F00
07E03F00
0FC03F00
FFFFFFE0
FFFFFFE0
FFFFFFE0
FFFFFFE0
FFFFFFE0
FC000FE0
FC000FE0
FC000FE0
FC000FE0
FC000FE0
ENDCHAR
STARTCHAR 0435
ENCODING 1077
SWIDTH 557 0
DWIDTH 24 0
BBX 22 25 1 -1
BITMAP
00FC00
07FF80
0FFFC0
1FFFE0
3FFFF0
3F07F0
7E01F8
7E01F8
7E01F8
7C00FC
FFFFFC
FFFFFC
FFFFFC
FFFFFC
FC0000
FC0000
7E0000
7E00FC
7E01F8
3F03F8
3FFFF0
1FFFF0
0FFFC0
07FF80
01FE00
ENDCHAR
STARTCHAR 0436
ENCODING 1078
SWIDTH 720 0
DWIDTH 31 0
BBX 30 25 0 -1
BITMAP
7E0FC1F8
7E0FC1F8
7F0FC1F8
3F0FC3F0
3F0FC3F0
1F8FC3F0
1F8FC7E0
1F8FC7E0
0FCFC7E0
0FFFFFC0
0FFFFFC0
0FFFFFC0
0FFFFFC0
0FFFFFE0
1F8FC7E0
1F8FC7E0
1F8FC7F0
3F0FC3F0
3F0FC3F0
3F0FC3F8
7E0FC1F8
7E0FC1F8
7E0FC1FC
FC0FC0FC
FC0FC0FC
ENDCHAR
STARTCHAR 0437
ENCODING 1079
SWIDTH 487 0
DWIDTH 21 0
BBX 19 25 1 -1
BITMAP
03F800
0FFF00
1FFF80
3FFFC0
7FFFC0
7F1FC0
7E0FC0
7E0FC0
000FC0
001F80
00FF80
00FE00
00FF00
00FF80
001FC0
000FC0
FE07E0
7E07E0
7E0FE0
7F0FC0
7FFFC0
3FFF80
1FFF00
0FFE00
03F800
ENDCHAR
STARTCHAR 0438
ENCODING 1080
SWIDTH 603 0
DWIDTH 26 0
BBX 20 25 3 -1
BITMAP
FC03F0
FC03F0
FC03F0
FC03F0
FC03F0
FC07F0
FC0FF0
FC1FF0
FC1FF0
FC3FF0
FC7FF0
FC7BF0
FCFBF0
FDF3F0
FFE3F0
FFC3F0
FFC3F0
FF83F0
FF03F0
FF03F0
FE03F0
FC03F0
FC03F0
FC03F0
FC03F0
ENDCHAR
STARTCHAR 0439
ENCODING 1081
SWIDTH 603 0
DWIDTH 26 0
BBX 20 34 3 -1
BITMAP
0E0700
0F0700
078F00
07FE00
03FE00
00F800
000000
000000
000000
FC03F0
FC03F0
FC03F0
FC03F0
FC03F0
FC07F0
FC0FF0
FC1FF0
FC1FF0
FC3FF0
FC7FF0
FC7BF0
FCFBF0
FDF3F0
FFE3F0
FFC3F0
FFC3F0
FF83F0
FF03F0
FF03F0
FE03F0
FC03F0
FC03F0
FC03F0
FC03F0
ENDCHAR
STARTCHAR 043A
ENCODING 1082
SWIDTH 510 0
DWIDTH 22 0
BBX 18 25 2 -1
BITMAP
FC1F80
FC1F80
FC1F80
FC3F00
FC3F00
FC7F00
FC7E00
FC7E00
FCFE00
FFFC00
FFFC00
FFFC00
FFFC00
FFFC00
FC7E00
FC7E00
FC7E00
FC3F00
FC3F00
FC3F00
FC1F80
FC1F80
FC1FC0
FC0FC0
FC0FC0
ENDCHAR
STARTCHAR 043B
ENCODING 1083
SWIDTH 627 0
DWIDTH 27 0
BBX 22 25 2 -1
BITMAP
1FFFFC
1FFFFC
1FFFFC
1FFFFC
1FFFFC
1F80FC
1F80FC
1F80FC
1F80FC
1F80FC
1F80FC
1F80FC
1F80FC
1F80FC
1F80FC
1F80FC
1F80FC
1F80FC
1F80FC
1F80FC
FF80FC
FF80FC
FF00FC
FF00FC
FC00FC
ENDCHAR
STARTCHAR 043C
ENCODING 1084
SWIDTH 743 0
DWIDTH 32 0
BBX 25 25 3 -1
BITMAP
FF807F80
FF807F80
FF807F80
FF80FF80
FFC0FF80
FFC0FF80
FFC0EF80
FFC1EF80
FDE1EF80
FDE1EF80
FDE1EF80
FDE1CF80
FCE3CF80
FCF3CF80
FCF3CF80
FCF38F80
FCF78F80
FC7F8F80
FC7F8F80
FC7F0F80
FC7F0F80
FC3F0F80
FC3F0F80
FC3F0F80
FC3E0F80
ENDCHAR
STARTCHAR 043D
ENCODING 1085
SWIDTH 603 0
DWIDTH 26 0
BBX 20 25 3 -1
BITMAP
FC03F0
FC03F0
FC03F0
FC03F0
FC03F0
FC03F0
FC03F0
FC03F0
FC03F0
FFFFF0
FFFFF0
FFFFF0
FFFFF0
FFFFF0
FC03F0
FC03F0
FC03F0
FC03F0
FC03F0
FC03F0
FC03F0
FC03F0
FC03F0
FC03F0
FC03F0
ENDCHAR
STARTCHAR 043E
ENCODING 1086
SWIDTH 603 0
DWIDTH 26 0
BBX 23 25 2 -1
BITMAP
00FE00
07FF80
0FFFE0
1FFFF0
3FFFF8
7F83F8
7F01FC
FE01FC
FC00FC
FC00FC
FC00FE
FC007E
FC007E
FC007E
FC007E
FC00FC
FC00FC
FE00FC
7F01FC
7F83F8
3FFFF8
1FFFF0
0FFFE0
07FF80
01FE00
ENDCHAR
STARTCHAR 043F
ENCODING 1087
SWIDTH 603 0
DWIDTH 26 0
BBX 20 25 3 -1
BITMAP
FFFFF0
FFFFF0
FFFFF0
FFFFF0
FFFFF0
FC03F0
FC03F0
FC03F0
FC03F0
FC03F0
FC03F0
FC03F0
FC03F0
FC03F0
FC03F0
FC03F0
FC03F0
FC03F0
FC03F0
FC03F0
FC03F0
FC03F0
FC03F0
FC03F0
FC03F0
ENDCHAR
STARTCHAR 0440
ENCODING 1088
SWIDTH 603 0
DWIDTH 26 0
BBX 22 33 3 -9
BITMAP
FC7E00
FCFF80
FDFFC0
FFFFE0
FFFFF0
FF87F0
FE03F8
FE01F8
FC01F8
FC01FC
FC00FC
FC00FC
FC00FC
FC00FC
FC00FC
FC01FC
FC01F8
FE01F8
FF03F8
FF87F0
FFFFF0
FFFFE0
FFFFC0
FDFF80
FC7E00
FC0000
FC0000
FC0000
FC0000
FC0000
FC0000
FC0000
FC0000
ENDCHAR
STARTCHAR 0441
ENCODING 1089
SWIDTH 557 0
DWIDTH 24 0
BBX 21 25 2 -1
BITMAP
01FC00
07FF00
1FFFC0
3FFFE0
3FFFE0
7F07F0
7E03F0
FC03F0
FC01F8
FC0000
FC0000
FC0000
FC0000
FC0000
FC0000
FC0000
FC01F0
FE03F0
FE03F0
7F07F0
7FFFE0
3FFFC0
1FFF80
0FFF00
01FC00
ENDCHAR
STARTCHAR 0442
ENCODING 1090
SWIDTH 487 0
DWIDTH 21 0
BBX 19 25 1 -1
BITMAP
FFFFE0
FFFFE0
FFFFE0
FFFFE0
FFFFE0
01F800
01F800
01F800
01F800
01F800
01F800
01F800
01F800
01F800
01F800
01F800
01F800
01F800
01F800
01F800
01F800
01F800
01F800
01F800
01F800
ENDCHAR
STARTCHAR 0443
ENCODING 1091
SWIDTH 557 0
DWIDTH 24 0
BBX 22 33 1 -9
BITMAP
FE00FC
FE00FC
7E00FC
7E01F8
7F01F8
3F01F8
3F03F0
3F83F0
1F83F0
1F83E0
1FC7E0
0FC7E0
0FC7C0
07EFC0
07EFC0
07EF80
03EF80
03FF00
03FF00
01FF00
01FE00
01FE00
00FE00
00FC00
00FC00
00FC00
00F800
03F800
1FF800
1FF000
1FF000
1FC000
180000
ENDCHAR
STARTCHAR 0444
ENCODING 1092
SWIDTH 882 0
DWIDTH 38 0
BBX 34 41 2 -9
BITMAP
0003F00000
0003F00000
0003F00000
0003F00000
0003F00000
0003F00000
0003F00000
0003F00000
0003F00000
00FFFFC000
03FFFFF000
0FFFFFF800
1FFFFFFE00
3FFBFFFE00
3F83F0FF00
7F03F03F80
7E03F03F80
FE03F01F80
FC03F01F80
FC03F00FC0
FC03F00FC0
FC03F00FC0
FE03F01F80
7E03F01F80
7F03F03F80
7F83F07F00
3FE3F1FF00
1FFFFFFE00
0FFFFFFC00
07FFFFF800
01FFFFE000
007FFF0000
0003F00000
0003F00000
0003F00000
0003F00000
0003F00000
0003F00000
0003F00000
0003F00000
0003F00000
ENDCHAR
STARTCHAR 0445
ENCODING 1093
SWIDTH 557 0
DWIDTH 24 0
BBX 22 25 1 -1
BITMAP
FE03FC
7F03F8
3F03F0
3F87F0
1F87E0
1FCFE0
0FCFC0
07FF80
07FF80
03FF00
03FF00
01FE00
00FC00
01FE00
03FF00
03FF00
07FF80
0FFFC0
0FCFC0
1FCFE0
1F87E0
3F87F0
7F03F8
7F03F8
FE01FC
ENDCHAR
STARTCHAR 0446
ENCODING 1094
SWIDTH 603 0
DWIDTH 26 0
BBX 22 32 3 -8
BITMAP
FC03F0
FC03F0
FC03F0
FC03F0
FC03F0
FC03F0
FC03F0
FC03F0
FC03F0
FC03F0
FC03F0
FC03F0
FC03F0
FC03F0
FC03F0
FC03F0
FC03F0
FC03F0
FC03F0
FC03F0
FFFFFC
FFFFFC
FFFFFC
FFFFFC
FFFFFC
0000FC
0000FC
0000FC
0000FC
0000FC
0000FC
0000FC
ENDCHAR
STARTCHAR 0447
ENCODING 1095
SWIDTH 580 0
DWIDTH 25 0
BBX 21 25 2 -1
BITMAP
FC01F8
FC01F8
FC01F8
FC01F8
FC01F8
FC01F8
FC01F8
FC01F8
FC01F8
FC01F8
FC01F8
FC01F8
FE07F8
FFFFF8
FFFFF8
7FFFF8
3FFFF8
0FE3F8
0003F8
0003F8
0003F8
0003F8
0003F8
0003F8
0003F8
ENDCHAR
STARTCHAR 0448
ENCODING 1096
SWIDTH 836 0
DWIDTH 36 0
BBX 30 25 3 -1
BITMAP
FC0FC0FC
FC0FC0FC
FC0FC0FC
FC0FC0FC
FC0FC0FC
FC0FC0FC
FC0FC0FC
FC0FC0FC
FC0FC0FC
FC0FC0FC
FC0FC0FC
FC0FC0FC
FC0FC0FC
FC0FC0FC
FC0FC0FC
FC0FC0FC
FC0FC0FC
FC0FC0FC
FC0FC0FC
FC0FC0FC
FFFFFFFC
FFFFFFFC
FFFFFFFC
FFFFFFFC
FFFFFFFC
ENDCHAR
STARTCHAR 0449
ENCODING 1097
SWIDTH 836 0
DWIDTH 36 0
BBX 34 32 2 -8
BITMAP
FC07E03F00
FC07E03F00
FC07E03F00
FC07E03F00
FC07E03F00
FC07E03F00
FC07E03F00
FC07E03F00
FC07E03F00
FC07E03F00
FC07E03F00
FC07E03F00
FC07E03F00
FC07E03F00
FC07E03F00
FC07E03F00
FC07E03F00
FC07E03F00
FC07E03F00
FC07E03F00
FFFFFFFFC0
FFFFFFFFC0
FFFFFFFFC0
FFFFFFFFC0
FFFFFFFFC0
0000000FC0
0000000FC0
0000000FC0
0000000FC0
0000000FC0
0000000FC0
0000000FC0
ENDCHAR
STARTCHAR 044A
ENCODING 1098
SWIDTH 720 0
DWIDTH 31 0
BBX 28 25 1 -1
BITMAP
FFFC0000
FFFC0000
FFFC0000
FFFC0000
FFFC0000
00FC0000
00FC0000
00FC0000
00FC0000
00FFFE00
00FFFF80
00FFFFC0
00FFFFE0
00FFFFE0
00FC07F0
00FC03F0
00FC03F0
00FC03F0
00FC03F0
00FC07F0
00FFFFE0
00FFFFE0
00FFFFC0
00FFFF80
00FFFE00
ENDCHAR
STARTCHAR 044B
ENCODING 1099
SWIDTH 859 0
DWIDTH 37 0
BBX 28 25 4 -1
BITMAP
FC0003F0
FC0003F0
FC0003F0
FC0003F0
FC0003F0
FC0003F0
FC0003F0
FC0003F0
FC0003F0
FC0003F0
FFFF03F0
FFFFC3F0
FFFFE3F0
FFFFF3F0
FFFFF3F0
FC03F3F0
FC03F3F0
FC03F3F0
FC03F3F0
FC03F3F0
FFFFF3F0
FFFFE3F0
FFFFE3F0
FFFF83F0
FFFE03F0
ENDCHAR
STARTCHAR 044C
ENCODING 1100
SWIDTH 603 0
DWIDTH 26 0
BBX 20 25 4 -1
BITMAP
FC0000
FC0000
FC0000
FC0000
FC0000
FC0000
FC0000
FC0000
FC0000
FC0000
FFFE00
FFFF80
FFFFC0
FFFFE0
FFFFF0
FC07F0
FC03F0
FC03F0
FC03F0
FC07F0
FFFFE0
FFFFE0
FFFFC0
FFFF80
FFFE00
ENDCHAR
STARTCHAR 044D
ENCODING 1101
SWIDTH 557 0
DWIDTH 24 0
BBX 22 25 1 -1
BITMAP
01FC00
0FFF80
1FFFC0
3FFFE0
7FFFF0
FF07F0
3E03F8
0C01F8
0001F8
0001FC
03FFFC
03FFFC
03FFFC
03FFFC
0000FC
0001FC
7C01F8
FC01F8
FE03F8
FF07F0
7FFFF0
3FFFE0
1FFFC0
0FFF00
03FC00
ENDCHAR
STARTCHAR 044E
ENCODING 1102
SWIDTH 859 0
DWIDTH 37 0
BBX 33 25 2 -1
BITMAP
FC003FC000
FC00FFF000
FC03FFFC00
FC07FFFC00
FC0FFFFE00
FC0FE0FF00
FC1FC07F00
FC1FC03F80
FC1F801F80
FFFF801F80
FFFF801F80
FFFF001F80
FFFF001F80
FFFF001F80
FC3F801F80
FC1F801F80
FC1F801F80
FC1FC03F80
FC1FC07F00
FC0FF0FF00
FC0FFFFE00
FC07FFFC00
FC03FFF800
FC00FFF000
FC003FC000
ENDCHAR
STARTCHAR 044F
ENCODING 1103
SWIDTH 580 0
DWIDTH 25 0
BBX 20 25 2 -1
BITMAP
0FFFF0
1FFFF0
3FFFF0
7FFFF0
7FFFF0
FE03F0
FC03F0
FC03F0
FC03F0
FE03F0
7FFFF0
7FFFF0
3FFFF0
1FFFF0
3FFFF0
3F03F0
3E03F0
3E03F0
7E03F0
7E03F0
7E03F0
7E03F0
7E03F0
7E03F0
FE03F0
ENDCHAR
STARTCHAR 0450
ENCODING 1104
SWIDTH 557 0
DWIDTH 24 0
BBX 22 34 1 -1
BITMAP
07C000
03E000
01E000
00F000
00F000
007800
003800
000000
000000
01FC00
07FF00
0FFFC0
1FFFE0
3FFFF0
3F07F0
7E03F8
7E01F8
FC01F8
FC01F8
FFFFF8
FFFFFC
FFFFFC
FFFFFC
FC0000
FC0000
FC0000
7C01F8
7E01F8
7F03F0
3FFFF0
1FFFE0
0FFFC0
07FF80
01FC00
ENDCHAR
STARTCHAR 0451
ENCODING 1105
SWIDTH 557 0
DWIDTH 24 0
BBX 22 33 1 -1
BITMAP
078780
078780
078780
078780
078780
000000
000000
000000
00FC00
07FF80
0FFFC0
1FFFE0
3FFFF0
3F03F0
7E01F8
7E01F8
7E01F8
7C00FC
FFFFFC
FFFFFC
FFFFFC
FFFFFC
FC0000
FC0000
7E0000
7E00FC
7E01F8
3F03F8
3FFFF0
1FFFF0
0FFFC0
07FF80
01FE00
ENDCHAR
STARTCHAR 0452
ENCODING 1106
SWIDTH 603 0
DWIDTH 26 0
BBX 22 39 2 -7
BITMAP
0FC000
0FC000
0FC000
0FC000
0FC000
FFFF00
FFFF00
FFFF00
FFFF00
0FC000
0FC000
0FC000
0FC000
0FC000
0FC000
0FC000
0FC000
0FCFE0
0FFFF0
0FFFF8
0FFFF8
0FF1FC
0FE0FC
0FC0FC
0FC0FC
0FC0FC
0FC0FC
0FC0FC
0FC0FC
0FC0FC
0FC0FC
0FC0FC
0FC0FC
0000FC
0001F8
007FF8
007FF0
007FE0
007F80
ENDCHAR
STARTCHAR 0453
ENCODING 1107
SWIDTH 418 0
DWIDTH 18 0
BBX 14 34 3 -1
BITMAP
01F8
01F0
03E0
07C0
0780
0F00
0F00
0000
0000
FFFC
FFFC
FFFC
FFFC
FFFC
FC00
FC00
FC00
FC00
FC00
FC00
FC00
FC00
FC00
FC00
FC00
FC00
FC00
FC00
FC00
FC00
FC00
FC00
FC00
FC00
ENDCHAR
STARTCHAR 0454
ENCODING 1108
SWIDTH 557 0
DWIDTH 24 0
BBX 22 25 1 -1
BITMAP
00FE00
07FFC0
0FFFE0
1FFFF0
3FFFF8
3F83F8
7F01F0
7E00C0
FE0000
FC0000
FFFE00
FFFE00
FFFE00
FFFE00
FC0000
FC0000
FE00F0
7E00FC
7F01FC
7F83F8
3FFFF8
1FFFF0
0FFFE0
07FFC0
00FE00
ENDCHAR
STARTCHAR 0455
ENCODING 1109
SWIDTH 557 0
DWIDTH 24 0
BBX 21 25 1 -1
BITMAP
01FE00
07FF80
1FFFE0
3FFFE0
3FFFF0
7F03F0
7E01F8
7E01F8
7F0000
7FF000
3FFE00
3FFFC0
1FFFF0
03FFF0
007FF8
000FF8
0003F8
FC01F8
FE01F8
7E03F8
7FFFF8
3FFFF0
3FFFE0
0FFFC0
03FE00
ENDCHAR
STARTCHAR 0456
ENCODING 1110
SWIDTH 278 0
DWIDTH 12 0
BBX 6 33 3 -1
BITMAP
FC
FC
FC
FC
FC
00
00
00
FC
FC
FC
FC
FC
FC
FC
FC
FC
FC
FC
FC
FC
FC
FC
FC
FC
FC
FC
FC
FC
FC
FC
FC
FC
ENDCHAR
STARTCHAR 0457
ENCODING 1111
SWIDTH 278 0
DWIDTH 12 0
BBX 12 34 0 -1
BITMAP
F0F0
F0F0
F0F0
F0F0
F0F0
0000
0000
0000
0000
1F80
1F80
1F80
1F80
1F80
1F80
1F80
1F80
1F80
1F80
1F80
1F80
1F80
1F80
1F80
1F80
1F80
1F80
1F80
1F80
1F80
1F80
1F80
1F80
1F80
ENDCHAR
STARTCHAR 0458
ENCODING 1112
SWIDTH 278 0
DWIDTH 12 0
BBX 9 41 0 -9
BITMAP
1F80
1F80
1F80
1F80
1F80
0000
0000
0000
1F80
1F80
1F80
1F80
1F80
1F80
1F80
1F80
1F80
1F80
1F80
1F80
1F80
1F80
1F80
1F80
1F80
1F80
1F80
1F80
1F80
1F80
1F80
1F80
1F80
1F80
1F80
3F80
FF80
FF80
FF00
FF00
F800
ENDCHAR
STARTCHAR 0459
ENCODING 1113
SWIDTH 975 0
DWIDTH 42 0
BBX 39 25 1 -1
BITMAP
0FFFFF0000
0FFFFF0000
0FFFFF0000
0FFFFF0000
0FFFFF0000
0FC03F0000
0FC03F0000
0FC03F0000
0FC03F0000
0FC03FFF80
0FC03FFFF0
0FC03FFFF8
0FC03FFFFC
0FC03FFFFC
0FC03F00FC
0FC03F00FE
0FC03F007E
0FC03F007E
0FC03F007E
0FC03F00FC
FFC03FFFFC
FFC03FFFFC
FF803FFFF8
FF003FFFF0
FE003FFFC0
ENDCHAR
STARTCHAR 045A
ENCODING 1114
SWIDTH 905 0
DWIDTH 39 0
BBX 35 25 3 -1
BITMAP
FC03F00000
FC03F00000
FC03F00000
FC03F00000
FC03F00000
FC03F00000
FC03F00000
FC03F00000
FC03F00000
FC03F00000
FFFFFFFC00
FFFFFFFF00
FFFFFFFF80
FFFFFFFFC0
FFFFFFFFC0
FC03F00FC0
FC03F00FE0
FC03F007E0
FC03F00FC0
FC03F00FC0
FC03FFFFC0
FC03FFFF80
FC03FFFF80
FC03FFFF00
FC03FFFC00
ENDCHAR
STARTCHAR 045B
ENCODING 1115
SWIDTH 603 0
DWIDTH 26 0
BBX 25 33 -1 -1
BITMAP
0FC00000
0FC00000
0FC00000
0FC00000
0FC00000
FFFF0000
FFFF0000
FFFF0000
FFFF0000
0FC00000
0FC00000
0FC1F000
0FC7FC00
0FDFFE00
0FFFFF00
0FFFFF00
0FF87F80
0FF03F80
0FE01F80
0FE01F80
0FC01F80
0FC01F80
0FC01F80
0FC01F80
0FC01F80
0FC01F80
0FC01F80
0FC01F80
0FC01F80
0FC01F80
0FC01F80
0FC01F80
0FC01F80
ENDCHAR
STARTCHAR 045C
ENCODING 1116
SWIDTH 510 0
DWIDTH 22 0
BBX 18 34 2 -1
BITMAP
003E00
007C00
007800
00F800
01F000
01E000
03C000
000000
000000
FC1F80
FC1F80
FC3F80
FC3F00
FC3F00
FC7E00
FC7E00
FC7E00
FCFC00
FFFC00
FFFC00
FFFC00
FFFC00
FFFC00
FCFE00
FC7E00
FC7E00
FC7F00
FC3F00
FC3F00
FC3F80
FC1F80
FC1F80
FC0FC0
FC0FC0
ENDCHAR
STARTCHAR 045D
ENCODING 1117
SWIDTH 603 0
DWIDTH 26 0
BBX 20 34 3 -1
BITMAP
0FC000
07C000
03E000
01E000
00F000
007000
000000
000000
000000
FC03F0
FC03F0
FC03F0
FC03F0
FC03F0
FC07F0
FC0FF0
FC1FF0
FC1FF0
FC3FF0
FC7FF0
FC7BF0
FCFBF0
FDF3F0
FFE3F0
FFC3F0
FFC3F0
FF83F0
FF03F0
FF03F0
FE03F0
FC03F0
FC03F0
FC03F0
FC03F0
ENDCHAR
STARTCHAR 045E
ENCODING 1118
SWIDTH 557 0
DWIDTH 24 0
BBX 22 42 1 -9
BITMAP
0381C0
0383C0
03C780
03FF80
01FF00
007C00
000000
000000
000000
FE00FC
FE00FC
7E00FC
7E01F8
7F01F8
3F01F8
3F03F0
3F83F0
1F83F0
1F83E0
1FC7E0
0FC7E0
0FC7C0
07EFC0
07EFC0
07EF80
03EF80
03FF00
03FF00
01FF00
01FE00
01FE00
00FE00
00FC00
00FC00
00FC00
00F800
03F800
1FF800
1FF000
1FF000
1FC000
180000
ENDCHAR
STARTCHAR 045F
ENCODING 1119
SWIDTH 603 0
DWIDTH 26 0
BBX 20 32 3 -8
BITMAP
FC03F0
FC03F0
FC03F0
FC03F0
FC03F0
FC03F0
FC03F0
FC03F0
FC03F0
FC03F0
FC03F0
FC03F0
FC03F0
FC03F0
FC03F0
FC03F0
FC03F0
FC03F0
FC03F0
FC03F0
FFFFF0
FFFFF0
FFFFF0
FFFFF0
FFFFF0
01F800
01F800
01F800
01F800
01F800
01F800
01F800
ENDCHAR
STARTCHAR 0462
ENCODING 1122
SWIDTH 859 0
DWIDTH 37 0
BBX 33 33 1 -1
BITMAP
03F0000000
03F0000000
03F0000000
03F0000000
FFFFF80000
FFFFF80000
FFFFF80000
FFFFF80000
FFFFF80000
FFFFF80000
03F0000000
03F0000000
03F0000000
03F0000000
03FFFFE000
03FFFFF800
03FFFFFC00
03FFFFFE00
03FFFFFF00
03F0007F00
03F0003F80
03F0003F80
03F0003F80
03F0001F80
03F0003F80
03F0003F80
03F0003F80
03F000FF00
03FFFFFF00
03FFFFFE00
03FFFFFC00
03FFFFF000
03FFFFC000
ENDCHAR
STARTCHAR 0463
ENCODING 1123
SWIDTH 696 0
DWIDTH 30 0
BBX 26 31 2 -1
BITMAP
0FC00000
0FC00000
0FC00000
0FC00000
0FC00000
0FC00000
FFFC0000
FFFC0000
FFFC0000
FFFC0000
FFFC0000
0FC00000
0FC00000
0FC00000
0FC00000
0FC00000
0FFFF800
0FFFFE00
0FFFFF00
0FFFFF80
0FFFFF80
0FC00FC0
0FC00FC0
0FC00FC0
0FC00FC0
0FC00FC0
0FFFFFC0
0FFFFF80
0FFFFF00
0FFFFE00
0FFFF800
ENDCHAR
STARTCHAR 0472
ENCODING 1138
SWIDTH 789 0
DWIDTH 34 0
BBX 30 33 2 -1
BITMAP
001FE000
00FFFC00
03FFFE00
07FFFF80
0FFFFFC0
1FFFFFE0
1FE01FE0
3F800FF0
7F8007F0
7F0003F8
7E0003F8
FE0001F8
FE0001FC
FFFC01FC
FFFF01FC
FFFF83FC
FFFFFFFC
FFFFFFFC
FC0FFFFC
FC03FFFC
FE01FDFC
FE0001F8
7E0003F8
7F0003F8
7F8007F0
3FC00FF0
3FE01FE0
1FFFFFE0
0FFFFFC0
07FFFF80
03FFFF00
00FFFC00
003FE000
ENDCHAR
STARTCHAR 0473
ENCODING 1139
SWIDTH 603 0
DWIDTH 26 0
BBX 23 24 2 -1
BITMAP
01FE00
07FF80
1FFFE0
3FFFF0
3FFFF8
7F83F8
7E01FC
FE01FC
FC00FC
FC00FC
FFF0FC
FFF9FE
FFFFFE
FC3FFC
FC1EFC
FC00FC
FE00FC
7E01FC
7F83F8
3FFFF0
3FFFF0
1FFFE0
07FF80
01FE00
ENDCHAR
STARTCHAR 0474
ENCODING 1140
SWIDTH 812 0
DWIDTH 35 0
BBX 29 33 3 -1
BITMAP
FE0001F8
7E0003F8
7E0007F8
7F000FF8
3F000FF8
3F001FF8
3F801F80
1F801F80
1F803F00
1FC03F00
0FC03F00
0FC03E00
0FC07E00
07E07E00
07E07C00
07E0FC00
03F0FC00
03F0F800
03F1F800
01F1F800
01F9F000
01F9F000
01FBF000
00FFE000
00FFE000
00FFE000
007FC000
007FC000
007FC000
003F8000
003F8000
003F8000
001F8000
ENDCHAR
STARTCHAR 0475
ENCODING 1141
SWIDTH 650 0
DWIDTH 28 0
BBX 22 25 3 -1
BITMAP
FC007C
FC01FC
FE01FC
7E03FC
7E03FC
3F07E0
3F07E0
3F07C0
1F87C0
1F8FC0
1F8FC0
0FCF80
0FCF80
0FDF80
07FF00
07FF00
07FF00
03FF00
03FE00
03FE00
01FE00
01FE00
01FC00
00FC00
00FC00
ENDCHAR
STARTCHAR 0490
ENCODING 1168
SWIDTH 487 0
DWIDTH 21 0
BBX 21 38 3 -1
BITMAP
0001F8
0001F0
0003E0
0003E0
0007C0
FFFFC0
FFFFC0
FFFFC0
FFFFC0
FFFFC0
FE0000
FE0000
FE0000
FE0000
FE0000
FE0000
FE0000
FE0000
FE0000
FE0000
FE0000
FE0000
FE0000
FE0000
FE0000
FE0000
FE0000
FE0000
FE0000
FE0000
FE0000
FE0000
FE0000
FE0000
FE0000
FE0000
FE0000
FE0000
ENDCHAR
STARTCHAR 0491
ENCODING 1169
SWIDTH 441 0
DWIDTH 19 0
BBX 20 32 4 -1
BITMAP
0003F0
0007E0
0007C0
000F80
000F00
001E00
003C00
FFFC00
FFFC00
FFFC00
FFFC00
FFFC00
FC0000
FC0000
FC0000
FC0000
FC0000
FC0000
FC0000
FC0000
FC0000
FC0000
FC0000
FC0000
FC0000
FC0000
FC0000
FC0000
FC0000
FC0000
FC0000
FC0000
ENDCHAR
STARTCHAR 0492
ENCODING 1170
SWIDTH 487 0
DWIDTH 21 0
BBX 19 33 1 -1
BITMAP
3FFFE0
3FFFE0
3FFFE0
3FFFE0
3FFFE0
3F8000
3F8000
3F8000
3F8000
3F8000
3F8000
3F8000
3F8000
FFFF80
FFFF80
FFFF80
FFFF80
FFFF80
3F8000
3F8000
3F8000
3F8000
3F8000
3F8000
3F8000
3F8000
3F8000
3F8000
3F8000
3F8000
3F8000
3F8000
3F8000
ENDCHAR
STARTCHAR 0493
ENCODING 1171
SWIDTH 394 0
DWIDTH 17 0
BBX 16 25 1 -1
BITMAP
3FFF
3FFF
3FFF
3FFF
3FFF
3F00
3F00
3F00
3F00
3F00
FFFE
FFFE
FFFE
FFFE
3F00
3F00
3F00
3F00
3F00
3F00
3F00
3F00
3F00
3F00
3F00
ENDCHAR
STARTCHAR 0496
ENCODING 1174
SWIDTH 1114 0
DWIDTH 48 0
BBX 42 40 3 -8
BITMAP
3F007E00FC00
3F807E01FC00
3F807E01FC00
1F807E01F800
1FC07E03F800
1FC07E03F800
0FC07E03F000
0FE07E03F000
0FE07E07F000
07E07E07E000
07F07E07E000
07F07E0FE000
03F07E0FC000
03FFFFFFC000
03FFFFFFC000
01FFFFFFC000
03FFFFFFC000
03FFFFFFC000
07F07E0FE000
07F07E0FE000
07E07E07E000
0FE07E07F000
0FE07E07F000
0FC07E03F800
1FC07E03F800
1FC07E01F800
3F807E01FC00
3F807E01FFC0
3F007E00FFC0
7F007E00FFC0
7F007E00FFC0
FE007E007FC0
FE007E007FC0
000000000FC0
000000000FC0
000000000FC0
000000000FC0
000000000FC0
000000000FC0
000000000FC0
ENDCHAR
STARTCHAR 0497
ENCODING 1175
SWIDTH 905 0
DWIDTH 39 0
BBX 34 32 2 -8
BITMAP
7E07E07E00
3F07E07E00
3F07E0FC00
3F07E0FC00
1F87E0FC00
1F87E1F800
1F87E1F800
0FC7E1F800
0FC7E3F000
0FFFFFF000
07FFFFF000
07FFFFE000
07FFFFF000
0FFFFFF000
0FC7E3F800
0FC7E1F800
1F87E1F800
1F87E1FC00
3F87E0FC00
3F07E0FC00
3F07E0FFC0
7F07E07FC0
7E07E07FC0
7E07E07FC0
FE07E03FC0
0000000FC0
0000000FC0
0000000FC0
0000000FC0
0000000FC0
0000000FC0
0000000FC0
ENDCHAR
STARTCHAR 049A
ENCODING 1178
SWIDTH 720 0
DWIDTH 31 0
BBX 25 40 3 -8
BITMAP
FC03F800
FC03F000
FC07F000
FC07F000
FC07E000
FC0FE000
FC0FE000
FC0FC000
FC1FC000
FC1FC000
FC1F8000
FC3F8000
FC3F8000
FFFF0000
FFFF0000
FFFF0000
FFFF0000
FFFF8000
FC3F8000
FC1F8000
FC1FC000
FC1FC000
FC0FC000
FC0FE000
FC0FE000
FC07F000
FC07F000
FC03FF80
FC03FF80
FC03FF80
FC01FF80
FC01FF80
FC00FF80
00003F80
00003F80
00003F80
00003F80
00003F80
00003F80
00003F80
ENDCHAR
STARTCHAR 049B
ENCODING 1179
SWIDTH 603 0
DWIDTH 26 0
BBX 21 32 3 -8
BITMAP
FC1F80
FC3F80
FC3F00
FC3F00
FC7F00
FC7E00
FC7E00
FCFC00
FCFC00
FFFC00
FFF800
FFF800
FFFC00
FFFC00
FCFC00
FCFE00
FC7E00
FC7E00
FC3F00
FC3F00
FC3FF8
FC1FF8
FC1FF8
FC1FF8
FC0FF8
0001F8
0001F8
0001F8
0001F8
0001F8
0001F8
0001F8
ENDCHAR
STARTCHAR 049C
ENCODING 1180
SWIDTH 673 0
DWIDTH 29 0
BBX 24 33 3 -1
BITMAP
FC00FC
FC00FC
FC01FC
FC01F8
FC01F8
FC03F8
FCE3F8
FCE3F0
FCE7F0
FCE7F0
FCE7E0
FCEFE0
FFFFE0
FFFFC0
FFFFC0
FFFFC0
FFFFC0
FFFFE0
FCEFE0
FCEFE0
FCE7F0
FCE7F0
FCE3F0
FCE3F8
FC03F8
FC01FC
FC01FC
FC00FC
FC00FE
FC00FE
FC007F
FC007F
FC007F
ENDCHAR
STARTCHAR 049D
ENCODING 1181
SWIDTH 557 0
DWIDTH 24 0
BBX 19 25 3 -1
BITMAP
FC0FE0
FC0FC0
FC0FC0
FC1FC0
FD1F80
FD1F80
FD3F00
FD3F00
FD3F00
FFFE00
FFFE00
FFFE00
FFFE00
FFFF00
FD3F00
FD3F00
FD3F80
FD1F80
FD1F80
FC0FC0
FC0FC0
FC0FC0
FC07E0
FC07E0
FC07E0
ENDCHAR
STARTCHAR 04A2
ENCODING 1186
SWIDTH 720 0
DWIDTH 31 0
BBX 28 40 3 -8
BITMAP
FC001F80
FC001F80
FC001F80
FC001F80
FC001F80
FC001F80
FC001F80
FC001F80
FC001F80
FC001F80
FC001F80
FC001F80
FC001F80
FFFFFF80
FFFFFF80
FFFFFF80
FFFFFF80
FFFFFF80
FC001F80
FC001F80
FC001F80
FC001F80
FC001F80
FC001F80
FC001F80
FC001F80
FC001F80
FC001FF0
FC001FF0
FC001FF0
FC001FF0
FC001FF0
FC001FF0
000003F0
000003F0
000003F0
000003F0
000003F0
000003F0
000003F0
ENDCHAR
STARTCHAR 04A3
ENCODING 1187
SWIDTH 603 0
DWIDTH 26 0
BBX 23 32 3 -8
BITMAP
FC03F0
FC03F0
FC03F0
FC03F0
FC03F0
FC03F0
FC03F0
FC03F0
FC03F0
FFFFF0
FFFFF0
FFFFF0
FFFFF0
FFFFF0
FC03F0
FC03F0
FC03F0
FC03F0
FC03F0
FC03F0
FC03FE
FC03FE
FC03FE
FC03FE
FC03FE
00007E
00007E
00007E
00007E
00007E
00007E
00007E
ENDCHAR
STARTCHAR 04AE
ENCODING 1198
SWIDTH 673 0
DWIDTH 29 0
BBX 27 33 1 -1
BITMAP
FF000FE0
7F001FC0
7F001FC0
3F803F80
3F803F80
1FC07F00
1FC07F00
0FE07E00
0FE0FE00
07F0FC00
07F1FC00
03F1F800
03F9F800
01FBF800
01FFF000
00FFF000
00FFE000
007FE000
007FC000
003FC000
003F8000
001F8000
001F8000
001F8000
001F8000
001F8000
001F8000
001F8000
001F8000
001F8000
001F8000
001F8000
001F8000
ENDCHAR
STARTCHAR 04AF
ENCODING 1199
SWIDTH 534 0
DWIDTH 23 0
BBX 22 33 1 -9
BITMAP
FC00FC
FE00FC
FE01F8
7E01F8
7E01F8
7F01F0
3F03F0
3F03F0
3F83E0
1F87E0
1F87E0
0FC7C0
0FC7C0
0FCFC0
07CF80
07EF80
07EF80
03FF00
03FF00
03FF00
01FE00
01FE00
01FE00
00FC00
00FC00
00FC00
00FC00
00FC00
00FC00
00FC00
00FC00
00FC00
00FC00
ENDCHAR
STARTCHAR 04B0
ENCODING 1200
SWIDTH 673 0
DWIDTH 29 0
BBX 27 33 1 -1
BITMAP
FF000FE0
7F001FC0
7F001FC0
3F803F80
3F803F80
1FC03F00
1FC07F00
0FE07E00
0FE0FE00
07E0FE00
07F0FC00
03F1FC00
03F9F800
01FBF800
01FFF000
00FFF000
00FFE000
007FE000
007FC000
003FC000
003F8000
001F8000
001F8000
07FFFE00
07FFFE00
07FFFE00
07FFFE00
07FFFE00
001F8000
001F8000
001F8000
001F8000
001F8000
ENDCHAR
STARTCHAR 04B1
ENCODING 1201
SWIDTH 534 0
DWIDTH 23 0
BBX 22 33 1 -9
BITMAP
FC00FC
FE00FC
FE01F8
7E01F8
7E01F8
7F01F0
3F03F0
3F03F0
3F83E0
1F87E0
1F87E0
0FC7C0
0FC7C0
0FCFC0
07CF80
07EF80
07EF80
03FF00
03FF00
03FF00
01FE00
01FE00
01FE00
00FC00
1FFFE0
1FFFE0
1FFFE0
1FFFE0
00FC00
00FC00
00FC00
00FC00
00FC00
ENDCHAR
STARTCHAR 04B2
ENCODING 1202
SWIDTH 720 0
DWIDTH 31 0
BBX 29 40 1 -8
BITMAP
FF001FC0
7F803FC0
7F803F80
3FC07F80
1FC07F00
1FE0FE00
0FE0FE00
0FF1FC00
07F1FC00
03FBF800
03FFF000
01FFF000
01FFE000
00FFC000
007FC000
007F8000
003F8000
007FC000
00FFC000
00FFE000
01FFE000
01FFF000
03FBF800
07F3F800
07F1FC00
0FE1FC00
0FE0FE00
1FC0FFF8
1FC07FF8
3F807FF8
7F803FF8
7F003FF8
FE001FF8
000003F8
000003F8
000003F8
000003F8
000003F8
000003F8
000003F8
ENDCHAR
STARTCHAR 04B3
ENCODING 1203
SWIDTH 580 0
DWIDTH 25 0
BBX 24 32 1 -8
BITMAP
FE03F8
7F03F8
7F07F0
3F87F0
3F8FE0
1FCFC0
0FDFC0
0FFF80
07FF80
07FF00
03FE00
01FE00
01FC00
01FE00
03FE00
07FF00
07FF80
0FFF80
0FDFC0
1FCFC0
3F8FFF
3F87FF
7F07FF
FF03FF
FE03FF
00003F
00003F
00003F
00003F
00003F
00003F
00003F
ENDCHAR
STARTCHAR 04B6
ENCODING 1206
SWIDTH 720 0
DWIDTH 31 0
BBX 29 40 2 -8
BITMAP
FC000FC0
FC000FC0
FC000FC0
FC000FC0
FC000FC0
FC000FC0
FC000FC0
FC000FC0
FC000FC0
FC000FC0
FC000FC0
FC000FC0
FC000FC0
FC000FC0
FC000FC0
FE000FC0
FF003FC0
7FFFFFC0
7FFFFFC0
3FFFFFC0
1FFFFFC0
0FFFFFC0
01FF0FC0
00000FC0
00000FC0
00000FC0
00000FC0
00000FF8
00000FF8
00000FF8
00000FF8
00000FF8
00000FF8
000003F8
000003F8
000003F8
000003F8
000003F8
000003F8
000003F8
ENDCHAR
STARTCHAR 04B7
ENCODING 1207
SWIDTH 603 0
DWIDTH 26 0
BBX 23 32 2 -8
BITMAP
FC01F8
FC01F8
FC01F8
FC01F8
FC01F8
FC01F8
FC01F8
FC01F8
FC01F8
FC01F8
FC01F8
FC01F8
FF07F8
FFFFF8
7FFFF8
7FFFF8
3FFFF8
07F1F8
0001F8
0001F8
0001FE
0001FE
0001FE
0001FE
0001FE
00007E
00007E
00007E
00007E
00007E
00007E
00007E
ENDCHAR
STARTCHAR 04B8
ENCODING 1208
SWIDTH 720 0
DWIDTH 31 0
BBX 26 33 2 -1
BITMAP
FC000FC0
FC000FC0
FC000FC0
FC000FC0
FC000FC0
FC000FC0
FC000FC0
FC000FC0
FC000FC0
FC000FC0
FC1E0FC0
FC1E0FC0
FC1E0FC0
FC1E0FC0
FE1E0FC0
FE1E0FC0
FF1E3FC0
7FFFFFC0
7FFFFFC0
3FFFFFC0
1FFFFFC0
0FFFFFC0
01FF8FC0
001E0FC0
001E0FC0
001E0FC0
001E0FC0
001E0FC0
001E0FC0
00000FC0
00000FC0
00000FC0
00000FC0
ENDCHAR
STARTCHAR 04B9
ENCODING 1209
SWIDTH 603 0
DWIDTH 26 0
BBX 21 25 2 -1
BITMAP
FC01F8
FC01F8
FC01F8
FC01F8
FC01F8
FC01F8
FC01F8
FC71F8
FC71F8
FC71F8
FC71F8
FE71F8
FFFFF8
7FFFF8
7FFFF8
7FFFF8
1FFFF8
07F1F8
0071F8
0071F8
0071F8
0071F8
0071F8
0001F8
0001F8
ENDCHAR
STARTCHAR 04BA
ENCODING 1210
SWIDTH 720 0
DWIDTH 31 0
BBX 26 33 3 -1
BITMAP
FC000000
FC000000
FC000000
FC000000
FC000000
FC000000
FC000000
FC000000
FC000000
FC000000
FC3FE000
FFFFF800
FFFFFE00
FFFFFF00
FFFFFF80
FFFFFF80
FF003FC0
FC001FC0
FC000FC0
FC000FC0
FC000FC0
FC000FC0
FC000FC0
FC000FC0
FC000FC0
FC000FC0
FC000FC0
FC000FC0
FC000FC0
FC000FC0
FC000FC0
FC000FC0
FC000FC0
ENDCHAR
STARTCHAR 04BB
ENCODING 1211
SWIDTH 603 0
DWIDTH 26 0
BBX 20 33 4 -1
BITMAP
FC0000
FC0000
FC0000
FC0000
FC0000
FC0000
FC0000
FC0000
FC0000
FC0000
FC0000
FC3F00
FCFF80
FFFFC0
FFFFE0
FFFFF0
FF0FF0
FE07F0
FC03F0
FC03F0
FC03F0
FC03F0
FC03F0
FC03F0
FC03F0
FC03F0
FC03F0
FC03F0
FC03F0
FC03F0
FC03F0
FC03F0
FC03F0
ENDCHAR
STARTCHAR 04C0
ENCODING 1216
SWIDTH 278 0
DWIDTH 12 0
BBX 6 33 3 -1
BITMAP
FC
FC
FC
FC
FC
FC
FC
FC
FC
FC
FC
FC
FC
FC
FC
FC
FC
FC
FC
FC
FC
FC
FC
FC
FC
FC
FC
FC
FC
FC
FC
FC
FC
ENDCHAR
STARTCHAR 04CF
ENCODING 1231
SWIDTH 278 0
DWIDTH 12 0
BBX 6 33 3 -1
BITMAP
FC
FC
FC
FC
FC
FC
FC
FC
FC
FC
FC
FC
FC
FC
FC
FC
FC
FC
FC
FC
FC
FC
FC
FC
FC
FC
FC
FC
FC
FC
FC
FC
FC
ENDCHAR
STARTCHAR 04D8
ENCODING 1240
SWIDTH 789 0
DWIDTH 34 0
BBX 30 33 2 -1
BITMAP
001FE000
00FFFC00
03FFFF00
07FFFF80
0FFFFFC0
1FFFFFE0
3FE01FE0
3F800FF0
3F0007F0
0F0003F8
020003F8
000001F8
000001FC
000001FC
FFFFFFFC
FFFFFFFC
FFFFFFFC
FFFFFFFC
FFFFFFFC
FC0001FC
FE0001F8
FE0001F8
7E0003F8
7F0003F8
7F8007F0
3F800FF0
3FE01FE0
1FFFFFC0
0FFFFFC0
07FFFF80
03FFFE00
00FFFC00
003FE000
ENDCHAR
STARTCHAR 04D9
ENCODING 1241
SWIDTH 580 0
DWIDTH 25 0
BBX 21 25 2 -1
BITMAP
01FC00
0FFF00
1FFFC0
3FFFC0
7FFFE0
FE07F0
FC03F0
FC01F8
0001F8
0001F8
0001F8
FFFFF8
FFFFF8
FFFFF8
FFFFF8
FC01F8
FC01F8
FC03F0
7E03F0
7F07F0
3FFFE0
3FFFC0
1FFF80
07FF00
01FC00
ENDCHAR
STARTCHAR 04E2
ENCODING 1250
SWIDTH 720 0
DWIDTH 31 0
BBX 29 42 1 -1
BITMAP
01E03C00
00F03C00
00F07800
00FFF800
007FF000
003FE000
001FC000
00000000
00000000
001FE000
001FE000
003FE000
003FF000
003FF000
007FF000
007FF800
007FF800
00FDF800
00FDFC00
00FDFC00
01F8FC00
01F8FE00
01F8FE00
03F87E00
03F07F00
03F07F00
07F03F00
07E03F80
07E03F80
0FE03F80
0FFFFFC0
0FFFFFC0
1FFFFFC0
1FFFFFC0
1FFFFFE0
3F800FE0
3F0007E0
3F0007F0
7F0007F0
7E0003F0
FE0003F8
FE0003F8
ENDCHAR
STARTCHAR 04E3
ENCODING 1251
SWIDTH 557 0
DWIDTH 24 0
BBX 22 34 1 -1
BITMAP
070380
070380
078780
03FF00
03FF00
00FC00
000000
000000
000000
01FE00
0FFF80
1FFFE0
3FFFE0
3FFFF0
7F07F0
7E03F0
7E03F0
0003F0
000FF0
01FFF0
0FFFF0
3FFFF0
7FFBF0
7F03F0
7E03F0
FC03F0
FC03F0
FC07F0
FE0FF0
7FFFF0
7FFFF0
3FFBF8
1FF3FC
0FC1FC
ENDCHAR
STARTCHAR 04E8
ENCODING 1256
SWIDTH 789 0
DWIDTH 34 0
BBX 30 33 2 -1
BITMAP
001FE000
00FFFC00
03FFFE00
07FFFF80
0FFFFFC0
1FFFFFC0
3FE01FE0
3F800FF0
7F0007F0
7F0003F8
7E0003F8
FE0001F8
FE0001FC
FC0001FC
FFFFFFFC
FFFFFFFC
FFFFFFFC
FFFFFFFC
FFFFFFFC
FC0001FC
FE0001F8
FE0001F8
7E0003F8
7F0003F8
7F8007F0
3F800FF0
3FE01FE0
1FFFFFC0
0FFFFFC0
07FFFF80
03FFFE00
00FFFC00
003FE000
ENDCHAR
STARTCHAR 04E9
ENCODING 1257
SWIDTH 603 0
DWIDTH 26 0
BBX 23 25 2 -1
BITMAP
00FE00
07FFC0
0FFFE0
1FFFF0
3FFFF8
7F83F8
7E01FC
FE00FC
FC00FC
FC00FE
FFFFFE
FFFFFE
FFFFFE
FFFFFE
FC00FE
FC00FC
FE00FC
FE01FC
7F01FC
7F83F8
3FFFF8
1FFFF0
0FFFE0
07FF80
01FE00
ENDCHAR
STARTCHAR 04EE
ENCODING 1262
SWIDTH 650 0
DWIDTH 28 0
BBX 23 42 3 -1
BITMAP
0F03C0
0F03C0
0F83C0
07FFC0
07FF80
03FF00
00FC00
000000
000000
FFFFFE
FFFFFE
FFFFFE
FFFFFE
FFFFFE
FC0000
FC0000
FC0000
FC0000
FC0000
FC0000
FC0000
FC0000
FFFFF8
FFFFF8
FFFFF8
FFFFF8
FFFFF8
FC0000
FC0000
FC0000
FC0000
FC0000
FC0000
FC0000
FC0000
FC0000
FC0000
FFFFFE
FFFFFE
FFFFFE
FFFFFE
FFFFFE
ENDCHAR
STARTCHAR 04EF
ENCODING 1263
SWIDTH 580 0
DWIDTH 25 0
BBX 21 34 2 -1
BITMAP
0E0300
0F0700
070F00
07FF00
03FE00
01FC00
000000
000000
000000
01FC00
07FF00
0FFFC0
1FFFE0
3FFFE0
7F07F0
7E03F0
FC03F8
FC01F8
FC01F8
FFFFF8
FFFFF8
FFFFF8
FFFFF8
FC0000
FC0000
FC0000
FC01F8
7E03F8
7F07F0
3FFFF0
3FFFE0
1FFFC0
07FF00
01FC00
ENDCHAR
STARTCHAR 1E80
ENCODING 7808
SWIDTH 952 0
DWIDTH 41 0
BBX 39 42 1 -1
BITMAP
0001F00000
0001F00000
0000F80000
0000780000
00003C0000
00001C0000
00000E0000
0000000000
0000000000
FE00FE00FE
FE00FE00FE
FE00FE00FC
FE01FE00FC
7E01FE01FC
7F01FF01FC
7F01FF01F8
3F01FF01F8
3F03EF01F8
3F03EF03F8
3F03EF83F0
1F83EF83F0
1F83CF83F0
1F87C783F0
1F87C783E0
0F87C7C7E0
0FC7C7C7E0
0FC787C7E0
07CF83C7C0
07CF83E7C0
07CF83EFC0
07EF83EF80
03EF03EF80
03EF01EF80
03FF01FF80
03FF01FF00
01FF01FF00
01FE01FF00
01FE00FF00
01FE00FE00
00FE00FE00
00FE00FE00
00FC00FE00
ENDCHAR
STARTCHAR 1E81
ENCODING 7809
SWIDTH 789 0
DWIDTH 34 0
BBX 33 34 0 -1
BITMAP
000F800000
0007C00000
0003C00000
0003E00000
0001E00000
0000E00000
0000000000
0000000000
0000000000
FE03F01F80
7E07F03F80
7E07F03F00
7E07F03F00
7E07F83F00
3F07F83F00
3F0FF87E00
3F0FF87E00
3F0F787E00
1F0F7C7C00
1F8F7C7C00
1F9F7CFC00
1F9F3CFC00
0F9E3CF800
0FDE3EF800
0FDE3EF800
07FE3FF800
07FE1FF000
07FC1FF000
07FC1FF000
03FC1FF000
03FC1FE000
03F80FE000
03F80FE000
01F80FE000
ENDCHAR
STARTCHAR 1E82
ENCODING 7810
SWIDTH 952 0
DWIDTH 41 0
BBX 39 42 1 -1
BITMAP
00000FC000
00000F8000
00000F0000
00001E0000
00001C0000
00003C0000
0000380000
0000000000
0000000000
FE00FE00FE
FE00FE00FE
FE00FE00FC
FE01FE00FC
7E01FE01FC
7F01FF01FC
7F01FF01F8
3F01FF01F8
3F03EF01F8
3F03EF03F8
3F03EF83F0
1F83EF83F0
1F83CF83F0
1F87C783F0
1F87C783E0
0F87C7C7E0
0FC7C7C7E0
0FC787C7E0
07CF83C7C0
07CF83E7C0
07CF83EFC0
07EF83EF80
03EF03EF80
03EF01EF80
03FF01FF80
03FF01FF00
01FF01FF00
01FE01FF00
01FE00FF00
01FE00FE00
00FE00FE00
00FE00FE00
00FC00FE00
ENDCHAR
STARTCHAR 1E83
ENCODING 7811
SWIDTH 789 0
DWIDTH 34 0
BBX 33 34 0 -1
BITMAP
0001F80000
0001F00000
0003E00000
0003C00000
0007800000
0007000000
0000000000
0000000000
0000000000
FE03F01F80
7E07F03F80
7E07F03F00
7E07F03F00
7E07F83F00
3F07F83F00
3F0FF87E00
3F0FF87E00
3F0F787E00
1F0F7C7C00
1F8F7C7C00
1F9F7CFC00
1F9F3CFC00
0F9E3CF800
0FDE3EF800
0FDE3EF800
07FE3FF800
07FE1FF000
07FC1FF000
07FC1FF000
03FC1FF000
03FC1FE000
03F80FE000
03F80FE000
01F80FE000
ENDCHAR
STARTCHAR 1E84
ENCODING 7812
SWIDTH 952 0
DWIDTH 41 0
BBX 39 41 1 -1
BITMAP
0007C7C000
0007C7C000
0007C7C000
0007C7C000
0007C7C000
0000000000
0000000000
0000000000
FE00FE00FE
FE00FE00FE
FE00FE00FC
FE01FE00FC
7E01FE01FC
7F01FF01FC
7F01FF01F8
3F01FF01F8
3F03EF01F8
3F03EF03F8
3F03EF83F0
1F83EF83F0
1F83CF83F0
1F87C783F0
1F87C783E0
0F87C7C7E0
0FC7C7C7E0
0FC787C7E0
07CF83C7C0
07CF83E7C0
07CF83EFC0
07EF83EF80
03EF03EF80
03EF01EF80
03FF01FF80
03FF01FF00
01FF01FF00
01FE01FF00
01FE00FF00
01FE00FE00
00FE00FE00
00FE00FE00
00FC00FE00
ENDCHAR
STARTCHAR 1E85
ENCODING 7813
SWIDTH 789 0
DWIDTH 34 0
BBX 33 34 0 -1
BITMAP
003E3E0000
003E3E0000
003E3E0000
003E3E0000
003E3E0000
0000000000
0000000000
0000000000
0000000000
FE03F01F80
7E07F03F80
7E07F03F00
7E07F03F00
7E07F83F00
3F07F83F00
3F0FF87E00
3F0FF87E00
3F0F787E00
1F0F7C7C00
1F8F7C7C00
1F9F7CFC00
1F9F3CFC00
0F9E3CF800
0FDE3EF800
0FDE3EF800
07FE3FF800
07FE1FF000
07FC1FF000
07FC1FF000
03FC1FF000
03FC1FE000
03F80FE000
03F80FE000
01F80FE000
ENDCHAR
STARTCHAR 1EF2
ENCODING 7922
SWIDTH 673 0
DWIDTH 29 0
BBX 27 42 1 -1
BITMAP
003E0000
003E0000
001F0000
000F0000
00078000
00038000
0001C000
00000000
00000000
FF000FE0
7F001FC0
7F001FC0
3F803F80
3F803F80
1FC07F00
1FC07F00
0FE07E00
0FE0FE00
07F0FC00
07F1FC00
03F1F800
03F9F800
01FBF800
01FFF000
00FFF000
00FFE000
007FE000
007FC000
003FC000
003F8000
001F8000
001F8000
001F8000
001F8000
001F8000
001F8000
001F8000
001F8000
001F8000
001F8000
001F8000
001F8000
ENDCHAR
STARTCHAR 1EF3
ENCODING 7923
SWIDTH 557 0
DWIDTH 24 0
BBX 22 42 1 -9
BITMAP
07C000
03E000
01E000
00F000
007000
007800
000000
000000
000000
FC00FC
FC00FC
FE01F8
7E01F8
7E01F8
7F03F0
3F03F0
3F03F0
3F83E0
1F87E0
1F87E0
1F87C0
0FCFC0
0FCFC0
0FCF80
07EF80
07FF80
07FF00
03FF00
03FF00
03FE00
01FE00
01FE00
00FC00
00FC00
00FC00
00F800
01F800
03F800
1FF000
1FF000
1FE000
1FC000
ENDCHAR
STARTCHAR 2002
ENCODING 8194
SWIDTH 510 0
DWIDTH 22 0
BBX 0 0 0 0
BITMAP
ENDCHAR
STARTCHAR 2013
ENCODING 8211
SWIDTH 557 0
DWIDTH 24 0
BBX 24 4 0 9
BITMAP
FFFFFF
FFFFFF
FFFFFF
FFFFFF
ENDCHAR
STARTCHAR 2014
ENCODING 8212
SWIDTH 998 0
DWIDTH 43 0
BBX 43 4 0 9
BITMAP
FFFFFFFFFFE0
FFFFFFFFFFE0
FFFFFFFFFFE0
FFFFFFFFFFE0
ENDCHAR
STARTCHAR 2015
ENCODING 8213
SWIDTH 998 0
DWIDTH 43 0
BBX 43 4 0 9
BITMAP
FFFFFFFFFFE0
FFFFFFFFFFE0
FFFFFFFFFFE0
FFFFFFFFFFE0
ENDCHAR
STARTCHAR 2017
ENCODING 8215
SWIDTH 557 0
DWIDTH 24 0
BBX 26 9 -1 -14
BITMAP
FFFFFFC0
FFFFFFC0
FFFFFFC0
00000000
00000000
00000000
FFFFFFC0
FFFFFFC0
FFFFFFC0
ENDCHAR
STARTCHAR 2018
ENCODING 8216
SWIDTH 278 0
DWIDTH 12 0
BBX 6 11 3 21
BITMAP
0C
3C
70
60
E0
C0
FC
FC
FC
FC
FC
ENDCHAR
STARTCHAR 2019
ENCODING 8217
SWIDTH 278 0
DWIDTH 12 0
BBX 6 11 3 21
BITMAP
FC
FC
FC
FC
FC
1C
1C
18
38
F0
C0
ENDCHAR
STARTCHAR 201A
ENCODING 8218
SWIDTH 278 0
DWIDTH 12 0
BBX 6 11 3 -7
BITMAP
FC
FC
FC
FC
FC
1C
18
18
70
F0
80
ENDCHAR
STARTCHAR 201B
ENCODING 8219
SWIDTH 278 0
DWIDTH 12 0
BBX 6 11 3 21
BITMAP
FC
FC
FC
FC
FC
E0
60
60
70
3C
0C
ENDCHAR
STARTCHAR 201C
ENCODING 8220
SWIDTH 510 0
DWIDTH 22 0
BBX 16 11 3 21
BITMAP
0C03
3C0F
781C
6018
E038
E030
FC3F
FC3F
FC3F
FC3F
FC3F
ENDCHAR
STARTCHAR 201D
ENCODING 8221
SWIDTH 510 0
DWIDTH 22 0
BBX 16 11 3 21
BITMAP
FC3F
FC3F
FC3F
FC3F
FC3F
0C03
0C03
1C07
380E
F03C
E038
ENDCHAR
STARTCHAR 201E
ENCODING 8222
SWIDTH 510 0
DWIDTH 22 0
BBX 16 11 3 -7
BITMAP
FC3F
FC3F
FC3F
FC3F
FC3F
0C07
1C06
1806
781C
F038
C020
ENDCHAR
STARTCHAR 2020
ENCODING 8224
SWIDTH 557 0
DWIDTH 24 0
BBX 22 39 1 -8
BITMAP
00FC00
00FC00
00FC00
00FC00
00FC00
00FC00
00FC00
00FC00
00FC00
00FC00
FFFFFC
FFFFFC
FFFFFC
FFFFFC
FFFFFC
00FC00
00FC00
00FC00
00FC00
00FC00
00FC00
00FC00
00FC00
00FC00
00FC00
00FC00
00FC00
00FC00
00FC00
00FC00
00FC00
00FC00
00FC00
00FC00
00FC00
00FC00
00FC00
00FC00
00FC00
ENDCHAR
STARTCHAR 2021
ENCODING 8225
SWIDTH 557 0
DWIDTH 24 0
BBX 21 40 1 -9
BITMAP
00FC00
00FC00
00FC00
00FC00
00FC00
00FC00
00FC00
00FC00
00FC00
00FC00
FFFFF8
FFFFF8
FFFFF8
FFFFF8
FFFFF8
00FC00
00FC00
00FC00
00FC00
00FC00
00FC00
00FC00
00FC00
00FC00
00FC00
FFFFF8
FFFFF8
FFFFF8
FFFFF8
FFFFF8
00FC00
00FC00
00FC00
00FC00
00FC00
00FC00
00FC00
00FC00
00FC00
00FC00
ENDCHAR
STARTCHAR 2022
ENCODING 8226
SWIDTH 348 0
DWIDTH 15 0
BBX 11 11 2 7
BITMAP
1F00
3F80
7FC0
7FE0
FFE0
FFE0
FFE0
7FC0
7FC0
3F80
0E00
ENDCHAR
STARTCHAR 2026
ENCODING 8230
SWIDTH 998 0
DWIDTH 43 0
BBX 35 6 4 -1
BITMAP
FC03F807E0
FC03F807E0
FC03F807E0
FC03F807E0
FC03F807E0
FC03F807E0
ENDCHAR
STARTCHAR 2030
ENCODING 8240
SWIDTH 998 0
DWIDTH 43 0
BBX 43 33 0 -1
BITMAP
0F8007000000
1FE006000000
3FF00E000000
7FF81C000000
78781C000000
703838000000
F03838000000
703870000000
787870000000
7CF8E0000000
3FF0C0000000
1FE1C0000000
0F8180000000
000380000000
000700000000
000700000000
000E00000000
000E00000000
001C00000000
001C00000000
00383E003E00
0030FF80FF00
0071FF81FF80
00E1FFC1FFC0
00E3C1C3C3C0
01C381E381E0
01C381E381E0
038381E381E0
0383C1C3C1C0
0701F7C3E7C0
0601FF81FF80
0E00FF00FF00
0C003E003E00
ENDCHAR
STARTCHAR 2032
ENCODING 8242
SWIDTH 232 0
DWIDTH 10 0
BBX 5 11 3 18
BITMAP
38
38
70
70
70
60
E0
E0
E0
C0
C0
ENDCHAR
STARTCHAR 2033
ENCODING 8243
SWIDTH 487 0
DWIDTH 21 0
BBX 11 11 5 18
BITMAP
38E0
38E0
39C0
71C0
71C0
71C0
7180
6380
E380
E300
C300
ENDCHAR
STARTCHAR 2039
ENCODING 8249
SWIDTH 325 0
DWIDTH 14 0
BBX 7 17 4 4
BITMAP
06
0E
1E
3E
7E
F8
F0
E0
E0
F0
F8
7C
3E
1E
0E
06
02
ENDCHAR
STARTCHAR 203A
ENCODING 8250
SWIDTH 325 0
DWIDTH 14 0
BBX 8 18 3 3
BITMAP
80
C0
E0
F0
F8
7C
3F
1F
0F
0F
1F
3F
7E
F8
F0
E0
C0
80
ENDCHAR
STARTCHAR 203C
ENCODING 8252
SWIDTH 603 0
DWIDTH 26 0
BBX 20 31 4 -1
BITMAP
FE07F0
FE07F0
FE07F0
FE07F0
FE07F0
FE07F0
FE07F0
FE07F0
FE07F0
FC07F0
FC07E0
FC03E0
7C03E0
7C03E0
7C03E0
7C03E0
7C03E0
7803C0
7803C0
3801C0
3801C0
3801C0
000000
000000
000000
FE07F0
FE07F0
FE07F0
FE07F0
FE07F0
FE07F0
ENDCHAR
STARTCHAR 203E
ENCODING 8254
SWIDTH 325 0
DWIDTH 14 0
BBX 26 3 -6 37
BITMAP
FFFFFFC0
FFFFFFC0
FFFFFFC0
ENDCHAR
STARTCHAR 2044
ENCODING 8260
SWIDTH 278 0
DWIDTH 12 0
BBX 22 32 -5 -1
BITMAP
00003C
000078
000078
0000F0
0000E0
0001E0
0001C0
0003C0
000780
000780
000F00
000E00
001E00
001C00
003C00
007800
007800
00F000
00E000
01E000
01C000
03C000
078000
078000
0F0000
0E0000
1E0000
1C0000
3C0000
780000
780000
F00000
ENDCHAR
STARTCHAR 2070
ENCODING 8304
SWIDTH 325 0
DWIDTH 14 0
BBX 14 19 0 12
BITMAP
07C0
1FE0
3FF0
7CF8
7878
7878
F83C
F03C
F03C
F03C
F03C
F03C
F83C
787C
7878
7CF8
3FF0
3FF0
0FC0
ENDCHAR
STARTCHAR 2074
ENCODING 8308
SWIDTH 325 0
DWIDTH 14 0
BBX 14 18 0 12
BITMAP
01F0
03F0
07F0
07F0
0EF0
0EF0
1CF0
38F0
38F0
70F0
E0F0
FFFC
FFFC
FFFC
00F0
00F0
00F0
00F0
ENDCHAR
STARTCHAR 2075
ENCODING 8309
SWIDTH 325 0
DWIDTH 14 0
BBX 14 19 0 12
BITMAP
3FF8
3FF8
3FF8
3800
3800
3800
7FE0
7FF0
7FF8
7878
007C
003C
003C
F03C
F87C
7CF8
7FF0
3FE0
0FC0
ENDCHAR
STARTCHAR 2076
ENCODING 8310
SWIDTH 325 0
DWIDTH 14 0
BBX 14 19 0 12
BITMAP
07C0
1FF0
3FF8
3C78
783C
7800
7800
7BE0
FFF0
FFF8
FC7C
F83C
F03C
703C
783C
7C78
3FF8
3FF0
0FE0
ENDCHAR
STARTCHAR 2077
ENCODING 8311
SWIDTH 325 0
DWIDTH 14 0
BBX 14 18 0 13
BITMAP
FFFC
FFFC
FFFC
003C
0078
00F0
01E0
01E0
03C0
0380
0780
0780
0F00
0F00
0F00
0F00
1E00
1E00
ENDCHAR
STARTCHAR 2078
ENCODING 8312
SWIDTH 325 0
DWIDTH 14 0
BBX 14 19 0 12
BITMAP
0FC0
3FF0
3FF8
7C78
7038
7038
7878
3FF0
3FF0
7FF8
787C
F03C
F03C
F03C
F87C
7CF8
7FF8
3FF0
0FC0
ENDCHAR
STARTCHAR 2079
ENCODING 8313
SWIDTH 325 0
DWIDTH 14 0
BBX 14 19 0 12
BITMAP
0FC0
1FE0
3FF0
7CF8
7878
F078
F03C
F03C
F87C
7CFC
7FFC
3FFC
0F3C
0038
7878
78F8
7FF0
3FE0
1FC0
ENDCHAR
STARTCHAR 207F
ENCODING 8319
SWIDTH 394 0
DWIDTH 17 0
BBX 13 14 2 11
BITMAP
F7E0
FFF8
FFF8
F8F8
F078
F078
F078
F078
F078
F078
F078
F078
F078
F078
ENDCHAR
STARTCHAR 20A3
ENCODING 8355
SWIDTH 557 0
DWIDTH 24 0
BBX 24 33 1 -1
BITMAP
FFFFFC
FFFFFC
FFFFFC
FFFFFC
FFFFFC
FC0000
FC0000
FC0000
FC0000
FC0000
FC0000
FC0000
FC0000
FFFF87
FFFF8F
FFFF9F
FFFFBF
FFFFFF
FC1FFF
FC1FF0
FC1FC0
FC1FC0
FC1F80
FC1F80
FC1F80
FC1F80
FC1F80
FC1F80
FC1F80
FC1F80
FC1F80
FC1F80
FC1F80
ENDCHAR
STARTCHAR 20A4
ENCODING 8356
SWIDTH 557 0
DWIDTH 24 0
BBX 22 32 1 -1
BITMAP
01FE00
07FF80
1FFFE0
3FFFF0
3FFFF0
7F03F8
7E01F8
7E01F8
7E00F8
7E00F8
7E0000
7F0000
3F0000
3F8000
1F8000
FFFE00
FFFE00
0FC000
07C000
FFFE00
FFFE00
07C000
07C000
078000
0F8000
1F0000
3EFE78
7FFFF8
7FFFFC
7FFFFC
3FFFF8
301FE0
ENDCHAR
STARTCHAR 20A7
ENCODING 8359
SWIDTH 1091 0
DWIDTH 47 0
BBX 40 33 4 -1
BITMAP
FFE0000000
FFF8000000
FFFE000000
FFFF000000
FFFF000000
FFFF800000
FFFF800000
FC7F800000
FC3F800000
FC1F800000
FC1F800000
FC1F800000
FC1F800000
FC1F800000
FC1F800000
FC3F000000
FFFF1E0000
FFFE1E0000
FFFE1E0000
FFF81E0040
FFE07F83FC
FC007F87FE
FC001E0F0E
FC001E0F0F
FC001E0FC0
FC001E07F8
FC001E03FE
FC001E007F
FC001E000F
FC001E0E0F
FC001F8FFF
FC001F87FE
FC000F83F8
ENDCHAR
STARTCHAR 20AC
ENCODING 8364
SWIDTH 557 0
DWIDTH 24 0
BBX 23 32 0 -1
BITMAP
000FE0
003FF8
007FFE
01FFFE
01FFFE
03FFFE
07F81C
07F00C
0FE004
0FC000
0FC000
1FC000
7FFFF0
7FFFF0
FFFFF0
1F8000
1F8000
7FFFC0
7FFFC0
FFFF80
1FC000
0FC000
0FC000
0FE000
07F004
07F81C
03FFFC
03FFFC
01FFFC
00FFFC
003FFC
000FC0
ENDCHAR
STARTCHAR 2105
ENCODING 8453
SWIDTH 882 0
DWIDTH 38 0
BBX 5 5 17 14
BITMAP
F8
F8
F8
F8
F8
ENDCHAR
STARTCHAR 2111
ENCODING 8465
SWIDTH 720 0
DWIDTH 31 0
BBX 21 27 5 -1
BITMAP
01F800
1FFFC0
3FFFF0
7FFFE0
7003C0
C00380
C00700
C00F00
E00F00
780F00
3E0F00
1E0F80
0E07C0
0607E0
0403F0
0001F0
0000F8
000078
000078
000078
000078
1F0070
1FC070
3FF0E0
47FDC0
01FF00
007C00
ENDCHAR
STARTCHAR 2113
ENCODING 8467
SWIDTH 487 0
DWIDTH 21 0
BBX 16 33 0 -1
BITMAP
001C
003E
0077
00E3
00E3
01C3
01C6
01C6
0386
038C
038C
078C
0798
0730
0730
0F60
0FC0
0F80
0F00
0E00
1E00
3E00
7E00
DE00
9C00
1C00
1C00
1C60
1C40
1CC0
1DC0
1F80
0F00
ENDCHAR
STARTCHAR 2116
ENCODING 8470
SWIDTH 1114 0
DWIDTH 48 0
BBX 43 33 3 -1
BITMAP
FC01F801F800
FC01F807FE00
FE01F80FFF00
FE01F81FFF80
FE01F83FFF80
FF01F83F0FC0
FF01F87E07C0
FF81F87C07C0
FF81F87C03E0
FFC1F87C03E0
FFC1F87C03E0
FBE1F87803E0
FBE1F8F803E0
F9E1F8F803E0
F9F1F87803E0
F8F1F87C03E0
F8F9F87C03E0
F8F9F87C03E0
F87DF87C07C0
F87DF87E0FC0
F83FF83F1FC0
F83FF83FFF80
F81FF81FFF80
F81FF80FFF00
F80FF807FC00
F80FF801F000
F807F8000000
F807F8000000
F807F8000000
F803F87FFFE0
F803F87FFFE0
F801F87FFFE0
F801F87FFFE0
ENDCHAR
STARTCHAR 2118
ENCODING 8472
SWIDTH 696 0
DWIDTH 30 0
BBX 22 25 4 -8
BITMAP
004000
018000
0201F0
040638
08081C
18101C
18201C
30401C
31001C
32001C
320038
3C0038
383030
3C7070
3C4060
3E40C0
4E6180
4E1E00
8E0000
870000
870000
860000
860000
840000
780000
ENDCHAR
STARTCHAR 211C
ENCODING 8476
SWIDTH 789 0
DWIDTH 34 0
BBX 27 26 3 -1
BITMAP
07C07C00
1FF1FF00
3FFFFF00
70FC0F80
607C0780
403C07C0
C03C07C0
C03C0780
E03C0F80
E03C0F00
F83C3C00
7E3FF000
3F3FF800
0F3C7C00
073C3C00
033C3C00
023C3E00
003C3E00
003C1E00
003C1E00
00381F00
0E781F00
1FF80FE0
3FF00FC0
6FE00F80
03800700
ENDCHAR
STARTCHAR 211E
ENCODING 8478
SWIDTH 766 0
DWIDTH 33 0
BBX 26 30 3 -1
BITMAP
FFFF0000
FFFFC000
FFFFF000
FFFFF800
FFFFF800
FC03F800
FC01FC00
FC00FC00
FC00FC00
FC00FC00
FC00FC00
FC00FC00
FC01FC00
FC03F800
FFFFF800
FFFFF000
FFFFE000
FFFFC7C0
FFFFEF80
FC03EF80
FC01FF00
FC00FE00
FC00FE00
FC007C00
FC00FE00
FC00FE00
FC01FF00
FC01EF80
FC03EF80
FC07C7C0
ENDCHAR
STARTCHAR 2122
ENCODING 8482
SWIDTH 998 0
DWIDTH 43 0
BBX 37 20 3 12
BITMAP
FFFF3F01F8
FFFF3F01F8
FFFF3F03F8
03C03F83F8
03C03F83F8
03C03F83F8
03C03F83F8
03C03FC778
03C03DC778
03C03DC778
03C03DC778
03C03DEE78
03C03CEE78
03C03CEE78
03C03CEE78
03C03CFC78
03C03C7C78
03C03C7C78
03C03C7C78
03C03C7C78
ENDCHAR
STARTCHAR 2126
ENCODING 8486
SWIDTH 766 0
DWIDTH 33 0
BBX 31 33 1 -1
BITMAP
000FF000
007FFE00
01FFFF00
03FFFFC0
07FFFFE0
0FF01FE0
1FE00FF0
3FC007F8
3F8003F8
3F0001FC
7F0001FC
7E0000FC
7E0000FC
7E0000FE
FE0000FE
FE0000FE
FE0000FE
7E0000FC
7E0000FC
7E0000FC
7F0001FC
3F0001F8
3F0001F8
1F8003F0
1FC003F0
0FE007E0
03F01F80
01F83F00
FFF83FFE
FFF83FFE
FFF83FFE
FFF83FFE
FFF83FFE
ENDCHAR
STARTCHAR 212E
ENCODING 8494
SWIDTH 603 0
DWIDTH 26 0
BBX 21 24 2 -1
BITMAP
00F800
03FF00
0FFF80
1F07C0
3E01E0
3C00F0
780070
780070
780078
780078
F80078
FFFFF8
FFFFF8
F80000
F80000
780000
780000
780070
780070
3C00E0
1E03E0
0FFFC0
07FF80
01FC00
ENDCHAR
STARTCHAR 2135
ENCODING 8501
SWIDTH 510 0
DWIDTH 22 0
BBX 19 27 1 0
BITMAP
001000
C03000
E03FE0
F03FE0
703FE0
783FE0
3C1FE0
1E0120
0E0300
0F0200
0F8600
1BC600
19E400
30EC00
38FC00
787C00
783C00
7C1E00
7E0E00
7F0F00
3F0780
3F83C0
1F81C0
1F81E0
7F80E0
7F8060
7F0040
ENDCHAR
STARTCHAR 215B
ENCODING 8539
SWIDTH 836 0
DWIDTH 36 0
BBX 34 32 1 -1
BITMAP
030001E000
070003C000
0F0003C000
FF00078000
FF00070000
FF000F0000
0F000E0000
0F001E0000
0F003C0000
0F003C0000
0F00780000
0F00700000
0F00F07C00
0F00E1FF00
0F01E3FF80
0F03C3C780
0F03C38380
0F07838380
0F07038380
000F03C780
000E01FF00
001E01FF00
003C03EF80
003C0383C0
00780783C0
00780783C0
00F00783C0
00E00783C0
01E003C780
03C003FF80
03C001FF00
0780007C00
ENDCHAR
STARTCHAR 215C
ENCODING 8540
SWIDTH 836 0
DWIDTH 36 0
BBX 34 32 1 -1
BITMAP
0FC000F000
3FE000F000
7FF001E000
78F801C000
F07803C000
F078038000
0078078000
00F00F0000
07E00F0000
07F01E0000
07F81C0000
00783C0000
007C387C00
F07878FF00
F078F1FF80
F8F8F3C780
7FF9E383C0
3FF1C381C0
1FC3C383C0
000381C380
000780FF00
000F00FF00
000F03FF80
001E03C3C0
001C0781C0
003C0781C0
00380781C0
00780783C0
00F003C7C0
00F003FF80
01E001FF00
01E0007E00
ENDCHAR
STARTCHAR 215D
ENCODING 8541
SWIDTH 836 0
DWIDTH 36 0
BBX 34 32 1 -1
BITMAP
3FF000F000
3FF001E000
3FF001C000
700003C000
7000038000
7000078000
77800F0000
7FE00F0000
7FF01E0000
F0F01C0000
00703C0000
0078380000
0078787C00
E070F0FF00
F0F0F1FF80
F9F1E3C780
7FE1C3C3C0
3FC3C381C0
1F838383C0
000781C380
000F00FF00
000F00FF00
001E03FF80
001E03C3C0
003C0781C0
00380781C0
00780781C0
00F00783C0
00F003C7C0
01E003FF80
01E001FF00
03C0007E00
ENDCHAR
STARTCHAR 215E
ENCODING 8542
SWIDTH 836 0
DWIDTH 36 0
BBX 33 32 2 -1
BITMAP
FFF8038000
FFF8078000
FFF80F0000
00700F0000
00F01E0000
01E01C0000
01C03C0000
03C0380000
0380780000
0780F00000
0700F00000
0F01E00000
0F01E0F800
0E03C3FC00
0E0387FE00
1E07870F00
1E0F0F0700
1E0F0E0700
001E0F0700
001E070E00
003C03FC00
003803FC00
007807FF00
00700F0F00
00F00E0780
01E00E0780
01E00E0780
03C00F0700
03800F8F00
078007FF00
070003FE00
0F0001F800
ENDCHAR
STARTCHAR 2190
ENCODING 8592
SWIDTH 998 0
DWIDTH 43 0
BBX 35 14 4 7
BITMAP
0180000000
0180000000
0380000000
0F00000000
1E00000000
7FFFFFFFE0
FFFFFFFFE0
FFFFFFFFE0
3E00000000
0F00000000
0700000000
0380000000
0180000000
0080000000
ENDCHAR
STARTCHAR 2191
ENCODING 8593
SWIDTH 510 0
DWIDTH 22 0
BBX 14 36 3 -5
BITMAP
0100
0380
0780
07C0
0FE0
1FE0
3FF0
7BF8
F39C
C384
0380
0380
0380
0380
0380
0380
0380
0380
0380
0380
0380
0380
0380
0380
0380
0380
0380
0380
0380
0380
0380
0380
0380
0380
0380
0380
ENDCHAR
STARTCHAR 2192
ENCODING 8594
SWIDTH 998 0
DWIDTH 43 0
BBX 35 14 4 7
BITMAP
0000003000
0000003800
0000003C00
0000001E00
0000001F00
FFFFFFFFC0
FFFFFFFFE0
FFFFFFFFE0
0000000F80
0000001E00
0000001C00
0000003800
0000003000
0000002000
ENDCHAR
STARTCHAR 2193
ENCODING 8595
SWIDTH 510 0
DWIDTH 22 0
BBX 15 36 3 -5
BITMAP
0380
0380
0380
0380
0380
0380
0380
0380
0380
0380
0380
0380
0380
0380
0380
0380
0380
0380
0380
0380
0380
0380
0380
0380
0380
0380
E38E
7BBC
3FF8
1FF0
0FE0
0FC0
07C0
0380
0300
0100
ENDCHAR
STARTCHAR 2194
ENCODING 8596
SWIDTH 998 0
DWIDTH 43 0
BBX 33 14 5 7
BITMAP
00C0018000
01C001C000
038000E000
078000F000
1F00007C00
7FFFFFFF00
FFFFFFFF80
7FFFFFFF00
1F00007C00
0F00007800
038000E000
018000C000
00C0018000
0040018000
ENDCHAR
ENDFONT
